G04 Layer_Physical_Order=1*
G04 Layer_Color=255*
%FSAX25Y25*%
%MOIN*%
G70*
G01*
G75*
%ADD10R,0.01575X0.02362*%
%ADD11R,0.03937X0.03150*%
%ADD12R,0.02362X0.01968*%
%ADD13R,0.11024X0.11024*%
G04:AMPARAMS|DCode=14|XSize=110.24mil|YSize=59.84mil|CornerRadius=14.96mil|HoleSize=0mil|Usage=FLASHONLY|Rotation=270.000|XOffset=0mil|YOffset=0mil|HoleType=Round|Shape=RoundedRectangle|*
%AMROUNDEDRECTD14*
21,1,0.11024,0.02992,0,0,270.0*
21,1,0.08031,0.05984,0,0,270.0*
1,1,0.02992,-0.01496,-0.04016*
1,1,0.02992,-0.01496,0.04016*
1,1,0.02992,0.01496,0.04016*
1,1,0.02992,0.01496,-0.04016*
%
%ADD14ROUNDEDRECTD14*%
G04:AMPARAMS|DCode=15|XSize=110.24mil|YSize=59.84mil|CornerRadius=14.96mil|HoleSize=0mil|Usage=FLASHONLY|Rotation=180.000|XOffset=0mil|YOffset=0mil|HoleType=Round|Shape=RoundedRectangle|*
%AMROUNDEDRECTD15*
21,1,0.11024,0.02992,0,0,180.0*
21,1,0.08031,0.05984,0,0,180.0*
1,1,0.02992,-0.04016,0.01496*
1,1,0.02992,0.04016,0.01496*
1,1,0.02992,0.04016,-0.01496*
1,1,0.02992,-0.04016,-0.01496*
%
%ADD15ROUNDEDRECTD15*%
%ADD16R,0.03937X0.02756*%
%ADD17R,0.05512X0.01181*%
%ADD18R,0.05512X0.02362*%
%ADD19R,0.03150X0.03937*%
%ADD20R,0.00984X0.01417*%
%ADD21R,0.01968X0.02756*%
%ADD22R,0.02362X0.01575*%
%ADD23R,0.01417X0.00984*%
%ADD24R,0.03937X0.02953*%
G04:AMPARAMS|DCode=25|XSize=29.92mil|YSize=10.63mil|CornerRadius=1.33mil|HoleSize=0mil|Usage=FLASHONLY|Rotation=270.000|XOffset=0mil|YOffset=0mil|HoleType=Round|Shape=RoundedRectangle|*
%AMROUNDEDRECTD25*
21,1,0.02992,0.00797,0,0,270.0*
21,1,0.02726,0.01063,0,0,270.0*
1,1,0.00266,-0.00399,-0.01363*
1,1,0.00266,-0.00399,0.01363*
1,1,0.00266,0.00399,0.01363*
1,1,0.00266,0.00399,-0.01363*
%
%ADD25ROUNDEDRECTD25*%
G04:AMPARAMS|DCode=26|XSize=29.92mil|YSize=10.63mil|CornerRadius=1.33mil|HoleSize=0mil|Usage=FLASHONLY|Rotation=180.000|XOffset=0mil|YOffset=0mil|HoleType=Round|Shape=RoundedRectangle|*
%AMROUNDEDRECTD26*
21,1,0.02992,0.00797,0,0,180.0*
21,1,0.02726,0.01063,0,0,180.0*
1,1,0.00266,-0.01363,0.00399*
1,1,0.00266,0.01363,0.00399*
1,1,0.00266,0.01363,-0.00399*
1,1,0.00266,-0.01363,-0.00399*
%
%ADD26ROUNDEDRECTD26*%
%ADD27R,0.07087X0.07087*%
%ADD28C,0.00984*%
%ADD29C,0.01181*%
%ADD30C,0.01968*%
%ADD31C,0.02756*%
%ADD32C,0.01000*%
%ADD33C,0.02362*%
%ADD34C,0.01575*%
%ADD35C,0.02756*%
%ADD36O,0.06299X0.03937*%
%ADD37O,0.08268X0.03937*%
%ADD38C,0.02559*%
%ADD39C,0.03543*%
G36*
X0132678Y0156592D02*
X0132641Y0156663D01*
X0132593Y0156727D01*
X0132534Y0156784D01*
X0132465Y0156833D01*
X0132384Y0156874D01*
X0132292Y0156908D01*
X0132190Y0156935D01*
X0132137Y0156943D01*
X0131689Y0156916D01*
X0131630Y0156901D01*
X0131594Y0156883D01*
X0131582Y0156862D01*
Y0158256D01*
X0131594Y0158236D01*
X0131630Y0158218D01*
X0131689Y0158202D01*
X0131772Y0158188D01*
X0131878Y0158176D01*
X0132338Y0158154D01*
X0132536Y0158152D01*
X0133070Y0158188D01*
X0133152Y0158202D01*
X0133287Y0158236D01*
X0133340Y0158256D01*
X0132678Y0156592D01*
D02*
G37*
G36*
X0158673Y0161232D02*
X0158654Y0161342D01*
X0158595Y0161441D01*
X0158496Y0161528D01*
X0158358Y0161603D01*
X0158181Y0161666D01*
X0157965Y0161718D01*
X0157709Y0161759D01*
X0157414Y0161788D01*
X0156705Y0161811D01*
Y0163779D01*
X0157079Y0163785D01*
X0157709Y0163832D01*
X0157965Y0163872D01*
X0158181Y0163924D01*
X0158358Y0163988D01*
X0158496Y0164063D01*
X0158595Y0164150D01*
X0158654Y0164248D01*
X0158673Y0164358D01*
Y0161232D01*
D02*
G37*
G36*
X0105905Y0191732D02*
X0108887D01*
X0109055Y0191710D01*
X0111592D01*
Y0189370D01*
X0105905D01*
Y0184252D01*
X0111592D01*
Y0180118D01*
X0111614Y0179950D01*
Y0176772D01*
X0115877D01*
X0115933Y0176760D01*
X0115989Y0176772D01*
X0117126D01*
Y0177427D01*
X0117151Y0177432D01*
X0117416Y0177472D01*
X0118127Y0177523D01*
X0118898Y0177509D01*
Y0177362D01*
X0119939D01*
X0119947Y0177360D01*
X0119979Y0177362D01*
X0120035D01*
X0120091Y0177351D01*
X0120147Y0177362D01*
X0125197D01*
Y0177537D01*
X0128065D01*
X0128521Y0177081D01*
Y0170079D01*
X0128609Y0169411D01*
X0128867Y0168788D01*
X0129277Y0168254D01*
X0132852Y0164679D01*
Y0163697D01*
X0132776Y0163228D01*
X0129429D01*
Y0163146D01*
X0129253Y0163123D01*
X0128937Y0162992D01*
X0123002D01*
X0122966Y0163267D01*
X0122708Y0163889D01*
X0122298Y0164424D01*
X0121763Y0164834D01*
X0121141Y0165092D01*
X0120472Y0165180D01*
X0119804Y0165092D01*
X0119182Y0164834D01*
X0118647Y0164424D01*
X0118237Y0163889D01*
X0117979Y0163267D01*
X0117891Y0162598D01*
X0117979Y0161930D01*
X0118237Y0161308D01*
X0118647Y0160773D01*
X0119038Y0160474D01*
X0118868Y0159974D01*
X0114567D01*
X0113914Y0159844D01*
X0113361Y0159474D01*
X0110605Y0156718D01*
X0110235Y0156165D01*
X0110105Y0155512D01*
Y0130020D01*
X0110000D01*
Y0127165D01*
X0109843D01*
Y0122441D01*
X0112880D01*
X0113087Y0121941D01*
X0111076Y0119930D01*
X0110984Y0119849D01*
X0110843Y0119737D01*
X0110767Y0119685D01*
X0110603D01*
X0110557Y0119696D01*
X0110494Y0119685D01*
X0109055D01*
Y0115748D01*
Y0113146D01*
X0109051Y0113133D01*
X0109055Y0113085D01*
Y0113060D01*
X0109044Y0113004D01*
X0109055Y0112948D01*
Y0111811D01*
X0109055D01*
X0109244Y0111389D01*
X0109252Y0111349D01*
Y0107480D01*
X0113583D01*
Y0107480D01*
X0113976D01*
Y0107480D01*
X0118307D01*
Y0111349D01*
X0118315Y0111387D01*
X0118504Y0111811D01*
X0118504Y0111811D01*
X0118504Y0111811D01*
Y0112948D01*
X0118515Y0113004D01*
X0118504Y0113060D01*
Y0113085D01*
X0118508Y0113133D01*
X0118504Y0113146D01*
Y0115910D01*
X0171899D01*
X0172091Y0115448D01*
X0164577Y0107934D01*
X0160236D01*
Y0108886D01*
X0153937D01*
Y0107934D01*
X0136614D01*
Y0108886D01*
X0130315D01*
Y0103571D01*
X0136614D01*
Y0104522D01*
X0153937D01*
Y0103571D01*
X0160236D01*
Y0104522D01*
X0165284D01*
X0165936Y0104652D01*
X0166490Y0105022D01*
X0175116Y0113648D01*
X0184306D01*
X0184629Y0113148D01*
X0184478Y0112785D01*
X0184386Y0112087D01*
Y0104055D01*
X0184478Y0103356D01*
X0184748Y0102705D01*
X0185177Y0102146D01*
X0185737Y0101717D01*
X0185766Y0101704D01*
X0185667Y0101204D01*
X0101204D01*
Y0192520D01*
X0105905D01*
Y0191732D01*
D02*
G37*
G36*
X0122708Y0155524D02*
X0122700Y0155540D01*
X0122674Y0155555D01*
X0122631Y0155568D01*
X0122571Y0155579D01*
X0122494Y0155589D01*
X0122288Y0155602D01*
X0121850Y0155610D01*
Y0156595D01*
X0122013Y0156595D01*
X0122631Y0156637D01*
X0122674Y0156650D01*
X0122700Y0156665D01*
X0122708Y0156681D01*
Y0155524D01*
D02*
G37*
G36*
X0119446Y0147872D02*
X0119350Y0147773D01*
X0119192Y0147583D01*
X0119129Y0147493D01*
X0119078Y0147405D01*
X0119037Y0147321D01*
X0119008Y0147240D01*
X0118989Y0147162D01*
X0118982Y0147087D01*
X0118985Y0147015D01*
X0117881Y0148119D01*
X0117953Y0148116D01*
X0118028Y0148123D01*
X0118106Y0148142D01*
X0118187Y0148171D01*
X0118271Y0148212D01*
X0118359Y0148263D01*
X0118449Y0148326D01*
X0118543Y0148399D01*
X0118639Y0148484D01*
X0118739Y0148580D01*
X0119446Y0147872D01*
D02*
G37*
G36*
X0122708Y0151587D02*
X0122698Y0151602D01*
X0122668Y0151615D01*
X0122618Y0151627D01*
X0122548Y0151637D01*
X0122348Y0151653D01*
X0121708Y0151665D01*
Y0152665D01*
X0121898Y0152666D01*
X0122668Y0152716D01*
X0122698Y0152729D01*
X0122708Y0152744D01*
Y0151587D01*
D02*
G37*
G36*
X0118982Y0153307D02*
X0118989Y0153232D01*
X0119008Y0153154D01*
X0119037Y0153073D01*
X0119078Y0152989D01*
X0119129Y0152901D01*
X0119192Y0152811D01*
X0119265Y0152717D01*
X0119350Y0152621D01*
X0119446Y0152521D01*
X0118739Y0151814D01*
X0118639Y0151910D01*
X0118449Y0152068D01*
X0118359Y0152131D01*
X0118271Y0152182D01*
X0118187Y0152223D01*
X0118106Y0152252D01*
X0118028Y0152271D01*
X0117953Y0152278D01*
X0117881Y0152274D01*
X0118985Y0153379D01*
X0118982Y0153307D01*
D02*
G37*
G36*
X0159461Y0166154D02*
X0159641D01*
X0159646Y0166327D01*
X0161614D01*
X0161619Y0166154D01*
X0161799D01*
X0161764Y0166134D01*
X0161732Y0166075D01*
X0161705Y0165977D01*
X0161681Y0165839D01*
X0161660Y0165662D01*
X0161657Y0165594D01*
X0161702Y0165323D01*
X0161770Y0165067D01*
X0161857Y0164850D01*
X0161964Y0164673D01*
X0162091Y0164535D01*
X0162236Y0164437D01*
X0162402Y0164378D01*
X0162586Y0164358D01*
X0161616D01*
X0161614Y0164185D01*
X0159646D01*
X0159645Y0164358D01*
X0158673D01*
X0158858Y0164378D01*
X0159023Y0164437D01*
X0159169Y0164535D01*
X0159296Y0164673D01*
X0159403Y0164850D01*
X0159490Y0165067D01*
X0159558Y0165323D01*
X0159586Y0165489D01*
X0159555Y0165977D01*
X0159527Y0166075D01*
X0159496Y0166134D01*
X0159461Y0166154D01*
X0159449Y0166264D01*
X0159414Y0166362D01*
X0159354Y0166449D01*
X0159272Y0166524D01*
X0159166Y0166588D01*
X0159036Y0166640D01*
X0158882Y0166680D01*
X0158705Y0166709D01*
X0158504Y0166727D01*
X0158280Y0166732D01*
Y0167913D01*
X0158504Y0167915D01*
X0159166Y0167960D01*
X0159272Y0167980D01*
X0159354Y0168004D01*
X0159414Y0168032D01*
X0159449Y0168063D01*
X0159461Y0168098D01*
Y0166154D01*
D02*
G37*
G36*
X0144366Y0172120D02*
X0144273Y0172157D01*
X0144170Y0172170D01*
X0144056Y0172159D01*
X0143933Y0172124D01*
X0143799Y0172065D01*
X0143654Y0171983D01*
X0143500Y0171876D01*
X0143335Y0171745D01*
X0143160Y0171591D01*
X0142974Y0171412D01*
X0142023Y0171852D01*
X0142155Y0171990D01*
X0142377Y0172251D01*
X0142468Y0172376D01*
X0142545Y0172496D01*
X0142607Y0172613D01*
X0142656Y0172725D01*
X0142691Y0172833D01*
X0142712Y0172937D01*
X0142719Y0173036D01*
X0144366Y0172120D01*
D02*
G37*
G36*
X0307457Y0101204D02*
X0301734D01*
X0301635Y0101704D01*
X0301665Y0101717D01*
X0302224Y0102146D01*
X0302653Y0102705D01*
X0302923Y0103356D01*
X0303015Y0104055D01*
Y0112087D01*
X0302923Y0112785D01*
X0302653Y0113437D01*
X0302224Y0113996D01*
X0301665Y0114425D01*
X0301014Y0114695D01*
X0300315Y0114787D01*
X0297323D01*
X0296624Y0114695D01*
X0295973Y0114425D01*
X0295413Y0113996D01*
X0295187Y0113701D01*
X0294577D01*
X0294350Y0113996D01*
X0293791Y0114425D01*
X0293140Y0114695D01*
X0292441Y0114787D01*
X0289449D01*
X0288750Y0114695D01*
X0288099Y0114425D01*
X0287539Y0113996D01*
X0287110Y0113437D01*
X0286841Y0112785D01*
X0286749Y0112087D01*
Y0104055D01*
X0286841Y0103356D01*
X0287110Y0102705D01*
X0287539Y0102146D01*
X0288099Y0101717D01*
X0288129Y0101704D01*
X0288029Y0101204D01*
X0278113D01*
X0278013Y0101704D01*
X0278043Y0101717D01*
X0278602Y0102146D01*
X0279031Y0102705D01*
X0279301Y0103356D01*
X0279393Y0104055D01*
Y0112087D01*
X0279301Y0112785D01*
X0279031Y0113437D01*
X0278602Y0113996D01*
X0278043Y0114425D01*
X0277392Y0114695D01*
X0276693Y0114787D01*
X0273701D01*
X0273002Y0114695D01*
X0272351Y0114425D01*
X0271791Y0113996D01*
X0271565Y0113701D01*
X0270955D01*
X0270728Y0113996D01*
X0270169Y0114425D01*
X0269518Y0114695D01*
X0268819Y0114787D01*
X0265827D01*
X0265128Y0114695D01*
X0264477Y0114425D01*
X0263917Y0113996D01*
X0263691Y0113701D01*
X0263081D01*
X0262854Y0113996D01*
X0262295Y0114425D01*
X0261644Y0114695D01*
X0260945Y0114787D01*
X0257953D01*
X0257254Y0114695D01*
X0256603Y0114425D01*
X0256043Y0113996D01*
X0255817Y0113701D01*
X0255207D01*
X0254980Y0113996D01*
X0254421Y0114425D01*
X0253770Y0114695D01*
X0253071Y0114787D01*
X0250079D01*
X0249380Y0114695D01*
X0248729Y0114425D01*
X0248169Y0113996D01*
X0247943Y0113701D01*
X0247333D01*
X0247106Y0113996D01*
X0246547Y0114425D01*
X0245896Y0114695D01*
X0245197Y0114787D01*
X0242205D01*
X0241506Y0114695D01*
X0240855Y0114425D01*
X0240295Y0113996D01*
X0240069Y0113701D01*
X0239459D01*
X0239232Y0113996D01*
X0238673Y0114425D01*
X0238022Y0114695D01*
X0237533Y0114759D01*
Y0116660D01*
X0237534Y0116664D01*
X0237538Y0116683D01*
X0237541Y0116690D01*
X0237601Y0116730D01*
X0238145Y0117544D01*
X0238336Y0118504D01*
X0238145Y0119464D01*
X0237601Y0120278D01*
X0236787Y0120822D01*
X0235827Y0121013D01*
X0234867Y0120822D01*
X0234053Y0120278D01*
X0233509Y0119464D01*
X0233318Y0118504D01*
X0233509Y0117544D01*
X0234053Y0116730D01*
X0234113Y0116690D01*
X0234115Y0116683D01*
X0234120Y0116664D01*
X0234121Y0116660D01*
Y0114759D01*
X0233632Y0114695D01*
X0232981Y0114425D01*
X0232421Y0113996D01*
X0232195Y0113701D01*
X0231585D01*
X0231358Y0113996D01*
X0230799Y0114425D01*
X0230148Y0114695D01*
X0229449Y0114787D01*
X0226457D01*
X0225758Y0114695D01*
X0225107Y0114425D01*
X0224547Y0113996D01*
X0224321Y0113701D01*
X0223711D01*
X0223484Y0113996D01*
X0222925Y0114425D01*
X0222274Y0114695D01*
X0221575Y0114787D01*
X0218583D01*
X0217884Y0114695D01*
X0217232Y0114425D01*
X0216673Y0113996D01*
X0216447Y0113701D01*
X0215837D01*
X0215610Y0113996D01*
X0215051Y0114425D01*
X0214400Y0114695D01*
X0213701Y0114787D01*
X0210709D01*
X0210010Y0114695D01*
X0209359Y0114425D01*
X0208799Y0113996D01*
X0208573Y0113701D01*
X0207963D01*
X0207736Y0113996D01*
X0207177Y0114425D01*
X0206526Y0114695D01*
X0206037Y0114759D01*
Y0117010D01*
X0214880Y0125853D01*
X0224140D01*
X0224145Y0125852D01*
X0224164Y0125847D01*
X0224170Y0125845D01*
X0224210Y0125785D01*
X0225024Y0125241D01*
X0225984Y0125050D01*
X0226944Y0125241D01*
X0227758Y0125785D01*
X0228302Y0126599D01*
X0228493Y0127559D01*
X0228302Y0128519D01*
X0227758Y0129333D01*
X0226944Y0129877D01*
X0225984Y0130068D01*
X0225024Y0129877D01*
X0224210Y0129333D01*
X0224170Y0129273D01*
X0224164Y0129271D01*
X0224145Y0129266D01*
X0224140Y0129265D01*
X0214961D01*
Y0132627D01*
X0231915Y0149581D01*
X0232285Y0150135D01*
X0232415Y0150787D01*
Y0168978D01*
X0235729Y0172293D01*
X0235733Y0172295D01*
X0235750Y0172305D01*
X0235756Y0172308D01*
X0235827Y0172294D01*
X0236787Y0172485D01*
X0237601Y0173029D01*
X0238145Y0173843D01*
X0238336Y0174803D01*
X0238145Y0175763D01*
X0237601Y0176577D01*
X0237060Y0176939D01*
X0237212Y0177439D01*
X0263878D01*
X0264546Y0177526D01*
X0265168Y0177784D01*
X0265703Y0178195D01*
X0269148Y0181639D01*
X0269558Y0182174D01*
X0269816Y0182797D01*
X0269904Y0183465D01*
Y0185988D01*
X0269905Y0185991D01*
X0269916Y0186400D01*
X0269945Y0186743D01*
X0269991Y0187048D01*
X0270052Y0187317D01*
X0270126Y0187549D01*
X0270209Y0187746D01*
X0270300Y0187911D01*
X0270396Y0188048D01*
X0270500Y0188162D01*
X0270668Y0188309D01*
X0270689Y0188336D01*
X0270718Y0188358D01*
X0270729Y0188366D01*
X0270736Y0188376D01*
X0271157Y0188926D01*
X0271427Y0189577D01*
X0271519Y0190276D01*
Y0198307D01*
X0271427Y0199006D01*
X0271157Y0199657D01*
X0270728Y0200217D01*
X0270169Y0200646D01*
X0270139Y0200658D01*
X0270238Y0201158D01*
X0307457D01*
Y0101204D01*
D02*
G37*
G36*
X0136173Y0173622D02*
X0136142Y0173587D01*
X0136114Y0173528D01*
X0136090Y0173445D01*
X0136070Y0173339D01*
X0136053Y0173209D01*
X0136045Y0173091D01*
X0136070Y0172724D01*
X0136090Y0172618D01*
X0136114Y0172535D01*
X0136142Y0172476D01*
X0136173Y0172441D01*
X0136208Y0172429D01*
X0134658D01*
X0134693Y0172441D01*
X0134724Y0172476D01*
X0134752Y0172535D01*
X0134776Y0172618D01*
X0134796Y0172724D01*
X0134813Y0172854D01*
X0134821Y0172973D01*
X0134796Y0173339D01*
X0134776Y0173445D01*
X0134752Y0173528D01*
X0134724Y0173587D01*
X0134693Y0173622D01*
X0134658Y0173634D01*
X0136208D01*
X0136173Y0173622D01*
D02*
G37*
G36*
X0153532Y0173707D02*
X0153568Y0173606D01*
X0153628Y0173518D01*
X0153712Y0173441D01*
X0153820Y0173376D01*
X0153951Y0173323D01*
X0154106Y0173282D01*
X0154284Y0173252D01*
X0154486Y0173234D01*
X0154712Y0173228D01*
Y0172047D01*
X0153531Y0172059D01*
X0153519Y0173819D01*
X0153532Y0173707D01*
D02*
G37*
G36*
X0144736Y0167692D02*
X0144788Y0167656D01*
X0144850Y0167624D01*
X0144924Y0167596D01*
X0145009Y0167573D01*
X0145106Y0167554D01*
X0145213Y0167539D01*
X0145462Y0167522D01*
X0145604Y0167520D01*
Y0166339D01*
X0145462Y0166336D01*
X0145213Y0166319D01*
X0145106Y0166305D01*
X0145009Y0166285D01*
X0144924Y0166262D01*
X0144850Y0166234D01*
X0144788Y0166202D01*
X0144736Y0166166D01*
X0144696Y0166125D01*
Y0167733D01*
X0144736Y0167692D01*
D02*
G37*
G36*
X0140155Y0172151D02*
X0140185Y0172067D01*
X0140234Y0171993D01*
X0140303Y0171929D01*
X0140392Y0171875D01*
X0140500Y0171831D01*
X0140628Y0171796D01*
X0140775Y0171772D01*
X0140943Y0171757D01*
X0141130Y0171752D01*
Y0170768D01*
X0140943Y0170763D01*
X0140775Y0170748D01*
X0140628Y0170723D01*
X0140500Y0170689D01*
X0140392Y0170645D01*
X0140303Y0170591D01*
X0140234Y0170527D01*
X0140185Y0170453D01*
X0140155Y0170369D01*
X0140146Y0170276D01*
Y0172244D01*
X0140155Y0172151D01*
D02*
G37*
G36*
X0148116Y0172059D02*
X0148016Y0172022D01*
X0147927Y0171962D01*
X0147850Y0171878D01*
X0147785Y0171771D01*
X0147732Y0171640D01*
X0147691Y0171485D01*
X0147661Y0171306D01*
X0147644Y0171104D01*
X0147638Y0170878D01*
X0146457D01*
X0146469Y0172059D01*
X0148228Y0172071D01*
X0148116Y0172059D01*
D02*
G37*
G36*
X0122708Y0147650D02*
X0122698Y0147665D01*
X0122668Y0147678D01*
X0122618Y0147690D01*
X0122548Y0147700D01*
X0122348Y0147716D01*
X0121708Y0147728D01*
Y0148728D01*
X0121898Y0148729D01*
X0122668Y0148779D01*
X0122698Y0148792D01*
X0122708Y0148807D01*
Y0147650D01*
D02*
G37*
G36*
X0117201Y0112992D02*
X0117103Y0112957D01*
X0117016Y0112898D01*
X0116941Y0112815D01*
X0116877Y0112709D01*
X0116825Y0112579D01*
X0116784Y0112425D01*
X0116755Y0112248D01*
X0116750Y0112188D01*
X0116767Y0111984D01*
X0116793Y0111830D01*
X0116828Y0111701D01*
X0116870Y0111594D01*
X0116919Y0111512D01*
X0116977Y0111452D01*
X0117042Y0111417D01*
X0117114Y0111405D01*
X0115170D01*
X0115242Y0111417D01*
X0115307Y0111452D01*
X0115364Y0111512D01*
X0115414Y0111594D01*
X0115456Y0111701D01*
X0115490Y0111830D01*
X0115517Y0111984D01*
X0115536Y0112159D01*
X0115528Y0112248D01*
X0115499Y0112425D01*
X0115459Y0112579D01*
X0115407Y0112709D01*
X0115343Y0112815D01*
X0115268Y0112898D01*
X0115181Y0112957D01*
X0115083Y0112992D01*
X0114973Y0113004D01*
X0117311D01*
X0117201Y0112992D01*
D02*
G37*
G36*
X0204828Y0114378D02*
X0204842Y0114209D01*
X0204867Y0114060D01*
X0204902Y0113930D01*
X0204946Y0113821D01*
X0205000Y0113731D01*
X0205064Y0113661D01*
X0205138Y0113611D01*
X0205222Y0113581D01*
X0205315Y0113572D01*
X0203346D01*
X0203440Y0113581D01*
X0203524Y0113611D01*
X0203597Y0113661D01*
X0203661Y0113731D01*
X0203715Y0113821D01*
X0203760Y0113930D01*
X0203794Y0114060D01*
X0203819Y0114209D01*
X0203834Y0114378D01*
X0203839Y0114568D01*
X0204823D01*
X0204828Y0114378D01*
D02*
G37*
G36*
X0236324D02*
X0236339Y0114209D01*
X0236363Y0114060D01*
X0236398Y0113930D01*
X0236442Y0113821D01*
X0236496Y0113731D01*
X0236560Y0113661D01*
X0236634Y0113611D01*
X0236718Y0113581D01*
X0236811Y0113572D01*
X0234842D01*
X0234936Y0113581D01*
X0235020Y0113611D01*
X0235093Y0113661D01*
X0235157Y0113731D01*
X0235212Y0113821D01*
X0235256Y0113930D01*
X0235290Y0114060D01*
X0235315Y0114209D01*
X0235330Y0114378D01*
X0235335Y0114568D01*
X0236319D01*
X0236324Y0114378D01*
D02*
G37*
G36*
X0112477Y0112992D02*
X0112378Y0112957D01*
X0112291Y0112898D01*
X0112216Y0112815D01*
X0112153Y0112709D01*
X0112100Y0112579D01*
X0112060Y0112425D01*
X0112031Y0112248D01*
X0112026Y0112188D01*
X0112042Y0111984D01*
X0112069Y0111830D01*
X0112103Y0111701D01*
X0112145Y0111594D01*
X0112195Y0111512D01*
X0112252Y0111452D01*
X0112317Y0111417D01*
X0112390Y0111405D01*
X0110445D01*
X0110518Y0111417D01*
X0110582Y0111452D01*
X0110640Y0111512D01*
X0110689Y0111594D01*
X0110731Y0111701D01*
X0110766Y0111830D01*
X0110792Y0111984D01*
X0110811Y0112159D01*
X0110804Y0112248D01*
X0110775Y0112425D01*
X0110734Y0112579D01*
X0110682Y0112709D01*
X0110618Y0112815D01*
X0110543Y0112898D01*
X0110457Y0112957D01*
X0110358Y0112992D01*
X0110248Y0113004D01*
X0112586D01*
X0112477Y0112992D01*
D02*
G37*
G36*
X0135419Y0107119D02*
X0135449Y0107035D01*
X0135499Y0106962D01*
X0135568Y0106898D01*
X0135658Y0106843D01*
X0135768Y0106799D01*
X0135897Y0106765D01*
X0136047Y0106740D01*
X0136216Y0106725D01*
X0136405Y0106720D01*
Y0105736D01*
X0136216Y0105731D01*
X0136047Y0105717D01*
X0135897Y0105692D01*
X0135768Y0105657D01*
X0135658Y0105613D01*
X0135568Y0105559D01*
X0135499Y0105495D01*
X0135449Y0105421D01*
X0135419Y0105338D01*
X0135409Y0105244D01*
Y0107213D01*
X0135419Y0107119D01*
D02*
G37*
G36*
X0155142Y0105244D02*
X0155132Y0105338D01*
X0155102Y0105421D01*
X0155052Y0105495D01*
X0154983Y0105559D01*
X0154893Y0105613D01*
X0154783Y0105657D01*
X0154654Y0105692D01*
X0154505Y0105717D01*
X0154335Y0105731D01*
X0154146Y0105736D01*
Y0106720D01*
X0154335Y0106725D01*
X0154505Y0106740D01*
X0154654Y0106765D01*
X0154783Y0106799D01*
X0154893Y0106843D01*
X0154983Y0106898D01*
X0155052Y0106962D01*
X0155102Y0107035D01*
X0155132Y0107119D01*
X0155142Y0107213D01*
Y0105244D01*
D02*
G37*
G36*
X0159041Y0107119D02*
X0159071Y0107035D01*
X0159121Y0106962D01*
X0159190Y0106898D01*
X0159280Y0106843D01*
X0159390Y0106799D01*
X0159519Y0106765D01*
X0159669Y0106740D01*
X0159838Y0106725D01*
X0160027Y0106720D01*
Y0105736D01*
X0159838Y0105731D01*
X0159669Y0105717D01*
X0159519Y0105692D01*
X0159390Y0105657D01*
X0159280Y0105613D01*
X0159190Y0105559D01*
X0159121Y0105495D01*
X0159071Y0105421D01*
X0159041Y0105338D01*
X0159031Y0105244D01*
Y0107213D01*
X0159041Y0107119D01*
D02*
G37*
G36*
X0236646Y0117509D02*
X0236577Y0117422D01*
X0236517Y0117331D01*
X0236464Y0117235D01*
X0236420Y0117134D01*
X0236384Y0117028D01*
X0236355Y0116917D01*
X0236335Y0116801D01*
X0236323Y0116681D01*
X0236319Y0116555D01*
X0235335D01*
X0235331Y0116681D01*
X0235318Y0116801D01*
X0235298Y0116917D01*
X0235270Y0117028D01*
X0235234Y0117134D01*
X0235189Y0117235D01*
X0235137Y0117331D01*
X0235076Y0117422D01*
X0235008Y0117509D01*
X0234931Y0117590D01*
X0236722D01*
X0236646Y0117509D01*
D02*
G37*
G36*
X0131512Y0141651D02*
X0131561Y0141543D01*
X0131643Y0141409D01*
X0131701Y0141329D01*
X0132087Y0141715D01*
X0132091Y0141536D01*
X0132107Y0141364D01*
X0132135Y0141198D01*
X0132175Y0141038D01*
X0132227Y0140885D01*
X0132290Y0140739D01*
X0132366Y0140599D01*
X0132454Y0140465D01*
X0132491Y0140418D01*
X0132817Y0140069D01*
X0133126Y0139756D01*
X0132291Y0138921D01*
X0131978Y0139231D01*
X0131510Y0139641D01*
X0131448Y0139681D01*
X0131308Y0139757D01*
X0131162Y0139821D01*
X0131009Y0139873D01*
X0130850Y0139912D01*
X0130684Y0139941D01*
X0130511Y0139956D01*
X0130333Y0139961D01*
X0130712Y0140340D01*
X0130638Y0140404D01*
X0130504Y0140486D01*
X0130396Y0140535D01*
X0130314Y0140551D01*
X0131496Y0141733D01*
X0131512Y0141651D01*
D02*
G37*
G36*
X0129050Y0140492D02*
X0129028Y0140503D01*
X0128987Y0140513D01*
X0128925Y0140522D01*
X0128741Y0140536D01*
X0128133Y0140551D01*
X0127931Y0140551D01*
Y0142913D01*
X0129050Y0142972D01*
Y0140492D01*
D02*
G37*
G36*
X0122708Y0143713D02*
X0122698Y0143729D01*
X0122669Y0143744D01*
X0122620Y0143757D01*
X0122551Y0143768D01*
X0122462Y0143778D01*
X0122078Y0143796D01*
X0121724Y0143799D01*
Y0144783D01*
X0121911Y0144784D01*
X0122620Y0144826D01*
X0122669Y0144839D01*
X0122698Y0144853D01*
X0122708Y0144870D01*
Y0143713D01*
D02*
G37*
G36*
X0125452Y0139324D02*
X0128603D01*
X0128826Y0139153D01*
X0129544Y0138856D01*
X0130315Y0138754D01*
X0130331Y0138756D01*
X0130441Y0138754D01*
X0130527Y0138746D01*
X0130602Y0138733D01*
X0130668Y0138716D01*
X0130727Y0138696D01*
X0130780Y0138673D01*
X0130797Y0138664D01*
X0131051Y0138442D01*
X0131658Y0137834D01*
Y0129095D01*
X0125236Y0122672D01*
X0117717D01*
Y0127165D01*
X0117559D01*
Y0130020D01*
X0117454D01*
Y0138613D01*
X0117596Y0138715D01*
X0118210Y0138539D01*
X0118237Y0138473D01*
X0118647Y0137939D01*
X0119182Y0137529D01*
X0119804Y0137271D01*
X0120472Y0137183D01*
X0121141Y0137271D01*
X0121763Y0137529D01*
X0122298Y0137939D01*
X0122708Y0138473D01*
X0122966Y0139096D01*
X0123002Y0139370D01*
X0125219D01*
X0125452Y0139324D01*
D02*
G37*
G36*
X0117323Y0118457D02*
X0117358Y0118425D01*
X0117417Y0118398D01*
X0117500Y0118374D01*
X0117606Y0118353D01*
X0117736Y0118337D01*
X0118067Y0118315D01*
X0118492Y0118307D01*
Y0117126D01*
X0118268Y0117124D01*
X0117606Y0117080D01*
X0117500Y0117059D01*
X0117417Y0117035D01*
X0117358Y0117008D01*
X0117323Y0116976D01*
X0117311Y0116941D01*
Y0118492D01*
X0117323Y0118457D01*
D02*
G37*
G36*
X0113422Y0118886D02*
X0113170Y0118626D01*
X0112779Y0118168D01*
X0112639Y0117970D01*
X0112537Y0117792D01*
X0112472Y0117636D01*
X0112445Y0117500D01*
X0112455Y0117384D01*
X0112502Y0117289D01*
X0112586Y0117215D01*
X0110522Y0118492D01*
X0110632Y0118443D01*
X0110754Y0118423D01*
X0110889Y0118433D01*
X0111037Y0118472D01*
X0111198Y0118541D01*
X0111371Y0118639D01*
X0111558Y0118767D01*
X0111757Y0118924D01*
X0111968Y0119111D01*
X0112193Y0119327D01*
X0113422Y0118886D01*
D02*
G37*
G36*
X0225071Y0126663D02*
X0224989Y0126740D01*
X0224903Y0126809D01*
X0224811Y0126869D01*
X0224715Y0126922D01*
X0224614Y0126966D01*
X0224508Y0127002D01*
X0224397Y0127031D01*
X0224282Y0127051D01*
X0224161Y0127063D01*
X0224035Y0127067D01*
Y0128051D01*
X0224161Y0128055D01*
X0224282Y0128067D01*
X0224397Y0128087D01*
X0224508Y0128116D01*
X0224614Y0128152D01*
X0224715Y0128197D01*
X0224811Y0128249D01*
X0224903Y0128309D01*
X0224989Y0128378D01*
X0225071Y0128455D01*
Y0126663D01*
D02*
G37*
G36*
X0201515Y0200658D02*
X0201484Y0200646D01*
X0200925Y0200217D01*
X0200496Y0199657D01*
X0200226Y0199006D01*
X0200134Y0198307D01*
Y0190276D01*
X0200226Y0189577D01*
X0200496Y0188926D01*
X0200925Y0188366D01*
X0201484Y0187937D01*
X0202029Y0187711D01*
X0202201Y0187382D01*
X0202254Y0187147D01*
X0202013Y0186787D01*
X0201822Y0185827D01*
X0202013Y0184867D01*
X0202557Y0184053D01*
X0203371Y0183509D01*
X0204331Y0183318D01*
X0205291Y0183509D01*
X0206105Y0184053D01*
X0206649Y0184867D01*
X0206840Y0185827D01*
X0206649Y0186787D01*
X0206408Y0187147D01*
X0206461Y0187382D01*
X0206632Y0187711D01*
X0207177Y0187937D01*
X0207736Y0188366D01*
X0207963Y0188661D01*
X0208573D01*
X0208799Y0188366D01*
X0209359Y0187937D01*
X0210010Y0187667D01*
X0210709Y0187575D01*
X0213701D01*
X0214400Y0187667D01*
X0215051Y0187937D01*
X0215610Y0188366D01*
X0215837Y0188661D01*
X0216447D01*
X0216673Y0188366D01*
X0217233Y0187937D01*
X0217884Y0187667D01*
X0218583Y0187575D01*
X0221575D01*
X0222274Y0187667D01*
X0222925Y0187937D01*
X0223484Y0188366D01*
X0223711Y0188661D01*
X0224321D01*
X0224547Y0188366D01*
X0225107Y0187937D01*
X0225758Y0187667D01*
X0226146Y0187616D01*
Y0186371D01*
X0225635Y0185606D01*
X0225444Y0184646D01*
X0225635Y0183686D01*
X0226026Y0183101D01*
X0225758Y0182601D01*
X0186404D01*
X0182534Y0186471D01*
X0181999Y0186881D01*
X0181377Y0187139D01*
X0180709Y0187227D01*
X0176955D01*
X0174825Y0189357D01*
Y0194685D01*
X0174737Y0195353D01*
X0174479Y0195976D01*
X0174069Y0196510D01*
X0170526Y0200054D01*
X0169991Y0200464D01*
X0169522Y0200658D01*
X0169622Y0201158D01*
X0185667D01*
X0185766Y0200658D01*
X0185737Y0200646D01*
X0185177Y0200217D01*
X0184748Y0199657D01*
X0184478Y0199006D01*
X0184386Y0198307D01*
Y0190276D01*
X0184478Y0189577D01*
X0184748Y0188926D01*
X0185177Y0188366D01*
X0185737Y0187937D01*
X0186388Y0187667D01*
X0187087Y0187575D01*
X0190079D01*
X0190778Y0187667D01*
X0191429Y0187937D01*
X0191988Y0188366D01*
X0192417Y0188926D01*
X0192687Y0189577D01*
X0192779Y0190276D01*
Y0198307D01*
X0192687Y0199006D01*
X0192417Y0199657D01*
X0191988Y0200217D01*
X0191429Y0200646D01*
X0191399Y0200658D01*
X0191498Y0201158D01*
X0201415D01*
X0201515Y0200658D01*
D02*
G37*
G36*
X0229022Y0188779D02*
X0228921Y0188743D01*
X0228833Y0188683D01*
X0228756Y0188600D01*
X0228691Y0188492D01*
X0228638Y0188361D01*
X0228596Y0188206D01*
X0228567Y0188027D01*
X0228549Y0187824D01*
X0228543Y0187598D01*
X0227362D01*
X0227356Y0187824D01*
X0227339Y0188027D01*
X0227309Y0188206D01*
X0227268Y0188361D01*
X0227215Y0188492D01*
X0227150Y0188600D01*
X0227073Y0188683D01*
X0226984Y0188743D01*
X0226884Y0188779D01*
X0226772Y0188791D01*
X0229134D01*
X0229022Y0188779D01*
D02*
G37*
G36*
X0236896Y0188779D02*
X0236795Y0188743D01*
X0236707Y0188683D01*
X0236630Y0188600D01*
X0236565Y0188492D01*
X0236512Y0188361D01*
X0236471Y0188206D01*
X0236441Y0188027D01*
X0236423Y0187824D01*
X0236417Y0187598D01*
X0235236D01*
X0235230Y0187824D01*
X0235213Y0188027D01*
X0235183Y0188206D01*
X0235142Y0188361D01*
X0235089Y0188492D01*
X0235024Y0188600D01*
X0234947Y0188683D01*
X0234858Y0188743D01*
X0234758Y0188779D01*
X0234646Y0188791D01*
X0237008D01*
X0236896Y0188779D01*
D02*
G37*
G36*
X0260340Y0188781D02*
X0260256Y0188751D01*
X0260182Y0188701D01*
X0260118Y0188631D01*
X0260064Y0188542D01*
X0260020Y0188432D01*
X0259985Y0188303D01*
X0259973Y0188227D01*
X0259977Y0188201D01*
X0260005Y0188090D01*
X0260042Y0187985D01*
X0260086Y0187883D01*
X0260139Y0187787D01*
X0260199Y0187696D01*
X0260268Y0187610D01*
X0260345Y0187528D01*
X0258553D01*
X0258630Y0187610D01*
X0258698Y0187696D01*
X0258759Y0187787D01*
X0258811Y0187883D01*
X0258856Y0187985D01*
X0258892Y0188090D01*
X0258920Y0188201D01*
X0258925Y0188227D01*
X0258912Y0188303D01*
X0258878Y0188432D01*
X0258834Y0188542D01*
X0258780Y0188631D01*
X0258716Y0188701D01*
X0258642Y0188751D01*
X0258558Y0188781D01*
X0258465Y0188791D01*
X0260433D01*
X0260340Y0188781D01*
D02*
G37*
G36*
X0125602Y0185839D02*
X0125587Y0185874D01*
X0125540Y0185905D01*
X0125461Y0185933D01*
X0125351Y0185957D01*
X0125209Y0185977D01*
X0124831Y0186007D01*
X0124028Y0186024D01*
Y0187598D01*
X0124327Y0187600D01*
X0125351Y0187665D01*
X0125461Y0187689D01*
X0125540Y0187717D01*
X0125587Y0187748D01*
X0125602Y0187783D01*
Y0185839D01*
D02*
G37*
G36*
X0269654Y0189023D02*
X0269454Y0188801D01*
X0269277Y0188550D01*
X0269124Y0188273D01*
X0268995Y0187967D01*
X0268889Y0187634D01*
X0268807Y0187273D01*
X0268748Y0186884D01*
X0268713Y0186467D01*
X0268701Y0186023D01*
X0265945D01*
X0265933Y0186467D01*
X0265898Y0186884D01*
X0265839Y0187273D01*
X0265757Y0187634D01*
X0265651Y0187967D01*
X0265521Y0188273D01*
X0265368Y0188550D01*
X0265192Y0188801D01*
X0264992Y0189023D01*
X0264768Y0189217D01*
X0269877D01*
X0269654Y0189023D01*
D02*
G37*
G36*
X0204827Y0187650D02*
X0204839Y0187530D01*
X0204859Y0187414D01*
X0204887Y0187303D01*
X0204924Y0187197D01*
X0204968Y0187096D01*
X0205021Y0187000D01*
X0205081Y0186908D01*
X0205150Y0186822D01*
X0205226Y0186741D01*
X0203435D01*
X0203512Y0186822D01*
X0203580Y0186908D01*
X0203641Y0187000D01*
X0203693Y0187096D01*
X0203738Y0187197D01*
X0203774Y0187303D01*
X0203802Y0187414D01*
X0203822Y0187530D01*
X0203835Y0187650D01*
X0203839Y0187776D01*
X0204823D01*
X0204827Y0187650D01*
D02*
G37*
G36*
X0205222Y0188781D02*
X0205138Y0188751D01*
X0205064Y0188701D01*
X0205000Y0188631D01*
X0204946Y0188542D01*
X0204902Y0188432D01*
X0204867Y0188303D01*
X0204842Y0188153D01*
X0204828Y0187984D01*
X0204823Y0187794D01*
X0203839D01*
X0203834Y0187984D01*
X0203819Y0188153D01*
X0203794Y0188303D01*
X0203760Y0188432D01*
X0203716Y0188542D01*
X0203661Y0188631D01*
X0203597Y0188701D01*
X0203524Y0188751D01*
X0203440Y0188781D01*
X0203346Y0188791D01*
X0205315D01*
X0205222Y0188781D01*
D02*
G37*
G36*
X0129540Y0196666D02*
X0129512Y0196701D01*
X0129429Y0196732D01*
X0129291Y0196760D01*
X0129099Y0196784D01*
X0128547Y0196821D01*
X0126784Y0196850D01*
Y0199606D01*
X0127307Y0199608D01*
X0129512Y0199756D01*
X0129540Y0199791D01*
Y0196666D01*
D02*
G37*
G36*
X0158673D02*
X0158646Y0196701D01*
X0158563Y0196732D01*
X0158425Y0196760D01*
X0158232Y0196784D01*
X0157681Y0196821D01*
X0155918Y0196850D01*
Y0199606D01*
X0156441Y0199608D01*
X0158646Y0199756D01*
X0158673Y0199791D01*
Y0196666D01*
D02*
G37*
G36*
X0162610Y0199756D02*
X0162681Y0199725D01*
X0162800Y0199697D01*
X0162966Y0199673D01*
X0163441Y0199636D01*
X0164961Y0199606D01*
Y0196850D01*
X0164509Y0196849D01*
X0162681Y0196732D01*
X0162610Y0196701D01*
X0162586Y0196666D01*
Y0199791D01*
X0162610Y0199756D01*
D02*
G37*
G36*
X0123197Y0195657D02*
X0122826Y0195279D01*
X0121735Y0194000D01*
X0121560Y0193738D01*
X0121423Y0193500D01*
X0121326Y0193285D01*
X0121267Y0193094D01*
X0121248Y0192925D01*
X0117350Y0195657D01*
X0117596Y0195532D01*
X0117873Y0195478D01*
X0118182Y0195495D01*
X0118524Y0195584D01*
X0118898Y0195743D01*
X0119303Y0195973D01*
X0119741Y0196275D01*
X0120211Y0196648D01*
X0120714Y0197091D01*
X0121248Y0197606D01*
X0123197Y0195657D01*
D02*
G37*
G36*
X0126763Y0195646D02*
X0128347Y0195620D01*
Y0195473D01*
X0129388D01*
X0129395Y0195470D01*
X0129428Y0195473D01*
X0129484D01*
X0129540Y0195461D01*
X0129596Y0195473D01*
X0133397D01*
X0133453Y0195461D01*
X0133509Y0195473D01*
X0133564D01*
X0133597Y0195470D01*
X0133604Y0195473D01*
X0134646D01*
Y0195572D01*
X0135727Y0195644D01*
X0136037Y0195646D01*
X0136488Y0195635D01*
X0136885Y0195605D01*
X0137208Y0195559D01*
X0137452Y0195503D01*
X0137514Y0195481D01*
X0137564Y0194796D01*
Y0188150D01*
X0136422Y0187008D01*
X0129134D01*
Y0188976D01*
X0125684D01*
X0125637Y0188987D01*
X0125620Y0188984D01*
X0125602Y0188988D01*
X0125547Y0188976D01*
X0124409D01*
Y0188818D01*
X0122441D01*
Y0189370D01*
X0121304D01*
X0121248Y0189381D01*
X0121192Y0189370D01*
X0116754D01*
Y0191732D01*
X0119124D01*
X0119291Y0191710D01*
X0119882D01*
X0120050Y0191732D01*
X0121099D01*
X0121109Y0191729D01*
X0121148Y0191732D01*
X0122441D01*
Y0192777D01*
X0122444Y0192787D01*
X0122451Y0192847D01*
X0122455Y0192859D01*
X0122496Y0192951D01*
X0122584Y0193103D01*
X0122696Y0193271D01*
X0123716Y0194466D01*
X0124057Y0194815D01*
X0124060Y0194819D01*
X0124888Y0195647D01*
X0126759D01*
X0126763Y0195646D01*
D02*
G37*
G36*
X0133480Y0199756D02*
X0133563Y0199725D01*
X0133701Y0199697D01*
X0133894Y0199673D01*
X0134445Y0199636D01*
X0136208Y0199606D01*
Y0197003D01*
X0139370Y0199606D01*
X0142717Y0196850D01*
X0142193Y0196839D01*
X0141724Y0196803D01*
X0141311Y0196744D01*
X0140953Y0196661D01*
X0140650Y0196555D01*
X0140402Y0196425D01*
X0140209Y0196272D01*
X0140071Y0196095D01*
X0140029Y0195993D01*
X0139995Y0195610D01*
X0139964Y0194733D01*
X0139961Y0194227D01*
X0138779D01*
X0138776Y0194733D01*
X0138678Y0196072D01*
X0138669Y0196095D01*
X0138531Y0196272D01*
X0138339Y0196425D01*
X0138091Y0196555D01*
X0137787Y0196661D01*
X0137429Y0196744D01*
X0137016Y0196803D01*
X0136547Y0196839D01*
X0136049Y0196850D01*
X0135685Y0196849D01*
X0133480Y0196701D01*
X0133453Y0196666D01*
Y0199791D01*
X0133480Y0199756D01*
D02*
G37*
G36*
X0169663Y0193616D02*
Y0188287D01*
X0169751Y0187619D01*
X0170009Y0186997D01*
X0170419Y0186462D01*
X0173642Y0183240D01*
X0173434Y0182740D01*
X0168819D01*
X0168120Y0182648D01*
X0167469Y0182378D01*
X0166910Y0181949D01*
X0166480Y0181389D01*
X0166211Y0180738D01*
X0166119Y0180039D01*
Y0177047D01*
X0166211Y0176348D01*
X0166480Y0175697D01*
X0166910Y0175138D01*
X0167205Y0174911D01*
Y0174301D01*
X0166910Y0174075D01*
X0166480Y0173515D01*
X0166211Y0172864D01*
X0166119Y0172165D01*
Y0169173D01*
X0166211Y0168474D01*
X0166480Y0167823D01*
X0166910Y0167264D01*
X0167205Y0167037D01*
Y0166427D01*
X0166910Y0166201D01*
X0166480Y0165641D01*
X0166211Y0164990D01*
X0166119Y0164291D01*
Y0161299D01*
X0166211Y0160600D01*
X0166480Y0159949D01*
X0166910Y0159390D01*
X0167205Y0159163D01*
Y0158553D01*
X0166910Y0158327D01*
X0166480Y0157767D01*
X0166211Y0157116D01*
X0166119Y0156417D01*
Y0153425D01*
X0166211Y0152726D01*
X0166480Y0152075D01*
X0166910Y0151516D01*
X0167205Y0151289D01*
Y0150679D01*
X0166910Y0150453D01*
X0166480Y0149893D01*
X0166211Y0149242D01*
X0166119Y0148543D01*
Y0145551D01*
X0166211Y0144852D01*
X0166480Y0144201D01*
X0166910Y0143642D01*
X0167205Y0143415D01*
Y0142805D01*
X0166910Y0142579D01*
X0166480Y0142019D01*
X0166211Y0141368D01*
X0166119Y0140669D01*
Y0137677D01*
X0166211Y0136978D01*
X0166480Y0136327D01*
X0166910Y0135768D01*
X0167205Y0135541D01*
Y0134931D01*
X0166910Y0134705D01*
X0166480Y0134145D01*
X0166211Y0133494D01*
X0166119Y0132795D01*
Y0129803D01*
X0166211Y0129104D01*
X0166480Y0128453D01*
X0166910Y0127894D01*
X0167205Y0127667D01*
Y0127057D01*
X0166910Y0126831D01*
X0166480Y0126271D01*
X0166211Y0125620D01*
X0166119Y0124921D01*
Y0121929D01*
X0166211Y0121230D01*
X0166480Y0120579D01*
X0166910Y0120020D01*
X0166736Y0119523D01*
X0127903D01*
X0127696Y0120023D01*
X0134742Y0127069D01*
X0135133Y0127655D01*
X0135271Y0128347D01*
Y0138583D01*
X0135133Y0139274D01*
X0134742Y0139860D01*
X0133501Y0141101D01*
X0133421Y0141186D01*
X0133401Y0141217D01*
X0133374Y0141267D01*
X0133351Y0141320D01*
X0133331Y0141379D01*
X0133314Y0141445D01*
X0133302Y0141520D01*
X0133294Y0141606D01*
X0133291Y0141716D01*
X0133293Y0141732D01*
X0133192Y0142503D01*
X0132894Y0143221D01*
X0132421Y0143838D01*
X0131804Y0144311D01*
X0131086Y0144609D01*
X0130315Y0144711D01*
X0129889Y0144654D01*
X0129389Y0145053D01*
Y0146063D01*
X0129389D01*
Y0149280D01*
X0129429Y0149764D01*
X0132776D01*
Y0150451D01*
X0135039D01*
Y0149213D01*
X0140712D01*
X0140945Y0149166D01*
X0146850D01*
X0147772Y0149350D01*
X0148553Y0149872D01*
X0153278Y0154596D01*
X0153800Y0155377D01*
X0153983Y0156299D01*
Y0160706D01*
X0154483Y0160918D01*
X0155142Y0160477D01*
X0156102Y0160286D01*
X0156980Y0160461D01*
X0157276Y0160313D01*
X0157480Y0160155D01*
Y0160039D01*
X0158617D01*
X0158673Y0160028D01*
X0158729Y0160039D01*
X0163779D01*
Y0164216D01*
X0163784Y0164231D01*
X0163779Y0164279D01*
Y0164302D01*
X0163791Y0164358D01*
X0163779Y0164414D01*
Y0165551D01*
X0162992D01*
Y0166098D01*
X0163003Y0166154D01*
X0162992Y0166210D01*
Y0166261D01*
X0162995Y0166296D01*
X0162992Y0166304D01*
Y0169291D01*
X0160843D01*
X0160630Y0169334D01*
X0160417Y0169291D01*
X0159517D01*
X0159461Y0169302D01*
X0159420Y0169294D01*
X0159379Y0169300D01*
X0159348Y0169291D01*
X0158268D01*
Y0169129D01*
X0154759D01*
Y0169803D01*
X0154724Y0169978D01*
Y0172868D01*
X0157151D01*
X0157663Y0172970D01*
X0158098Y0173260D01*
X0158388Y0173695D01*
X0158490Y0174208D01*
Y0174869D01*
X0160433D01*
X0161086Y0174999D01*
X0161639Y0175368D01*
X0162107Y0175836D01*
X0162111Y0175839D01*
X0162127Y0175849D01*
X0162134Y0175852D01*
X0162205Y0175838D01*
X0163165Y0176029D01*
X0163979Y0176572D01*
X0164523Y0177386D01*
X0164714Y0178347D01*
X0164523Y0179306D01*
X0163979Y0180121D01*
X0163165Y0180664D01*
X0162205Y0180855D01*
X0161275Y0180670D01*
X0161185Y0180738D01*
X0160932Y0181056D01*
X0161373Y0181717D01*
X0161564Y0182677D01*
X0161373Y0183637D01*
X0160829Y0184451D01*
X0160015Y0184995D01*
X0159055Y0185186D01*
X0158095Y0184995D01*
X0157921Y0184879D01*
X0157480Y0185115D01*
Y0194973D01*
X0157480Y0195473D01*
X0158522D01*
X0158529Y0195470D01*
X0158562Y0195473D01*
X0158617D01*
X0158673Y0195461D01*
X0158729Y0195473D01*
X0162530D01*
X0162586Y0195461D01*
X0162642Y0195473D01*
X0163779D01*
Y0195595D01*
X0164550Y0195644D01*
X0164966Y0195646D01*
X0164971Y0195647D01*
X0167632D01*
X0169663Y0193616D01*
D02*
G37*
G36*
X0111023Y0187880D02*
X0111059Y0187779D01*
X0111118Y0187691D01*
X0111201Y0187614D01*
X0111307Y0187549D01*
X0111437Y0187496D01*
X0111590Y0187455D01*
X0111767Y0187425D01*
X0111968Y0187408D01*
X0112193Y0187402D01*
Y0186221D01*
X0111968Y0186215D01*
X0111767Y0186197D01*
X0111590Y0186167D01*
X0111437Y0186126D01*
X0111307Y0186073D01*
X0111201Y0186008D01*
X0111118Y0185931D01*
X0111059Y0185843D01*
X0111023Y0185742D01*
X0111012Y0185630D01*
Y0187992D01*
X0111023Y0187880D01*
D02*
G37*
G36*
X0162192Y0177067D02*
X0162080Y0177064D01*
X0161970Y0177051D01*
X0161863Y0177029D01*
X0161758Y0176998D01*
X0161655Y0176958D01*
X0161555Y0176909D01*
X0161456Y0176851D01*
X0161360Y0176783D01*
X0161266Y0176706D01*
X0161175Y0176620D01*
X0160479Y0177316D01*
X0160565Y0177408D01*
X0160641Y0177502D01*
X0160709Y0177598D01*
X0160767Y0177696D01*
X0160817Y0177797D01*
X0160856Y0177900D01*
X0160887Y0178005D01*
X0160909Y0178112D01*
X0160922Y0178222D01*
X0160925Y0178334D01*
X0162192Y0177067D01*
D02*
G37*
G36*
X0115960Y0181805D02*
X0116043Y0181740D01*
X0116181Y0181683D01*
X0116374Y0181633D01*
X0116622Y0181591D01*
X0116925Y0181557D01*
X0117697Y0181511D01*
X0117991Y0181507D01*
X0120063Y0181646D01*
X0120091Y0181681D01*
Y0178555D01*
X0120063Y0178590D01*
X0119981Y0178622D01*
X0119843Y0178650D01*
X0119650Y0178674D01*
X0119099Y0178711D01*
X0118094Y0178727D01*
X0117283Y0178670D01*
X0116925Y0178616D01*
X0116622Y0178546D01*
X0116374Y0178461D01*
X0116181Y0178360D01*
X0116043Y0178244D01*
X0115960Y0178112D01*
X0115933Y0177965D01*
Y0181878D01*
X0115960Y0181805D01*
D02*
G37*
G36*
X0152041Y0178777D02*
X0152554Y0178675D01*
X0153085D01*
Y0178145D01*
X0153187Y0177632D01*
X0153235Y0177559D01*
X0153187Y0177486D01*
X0153085Y0176973D01*
Y0176176D01*
X0153187Y0175663D01*
X0153235Y0175591D01*
X0153187Y0175518D01*
X0153085Y0175005D01*
Y0174208D01*
X0153102Y0174122D01*
X0152691Y0173622D01*
X0152362D01*
X0151969Y0173228D01*
Y0172899D01*
X0151469Y0172489D01*
X0151383Y0172506D01*
X0150586D01*
X0150073Y0172404D01*
X0150000Y0172355D01*
X0149927Y0172404D01*
X0149414Y0172506D01*
X0148617D01*
X0148104Y0172404D01*
X0147858Y0172239D01*
X0146915D01*
Y0173036D01*
X0146813Y0173549D01*
X0146765Y0173622D01*
X0146813Y0173695D01*
X0146915Y0174208D01*
Y0175005D01*
X0146813Y0175518D01*
X0146765Y0175591D01*
X0146813Y0175663D01*
X0146915Y0176176D01*
Y0176973D01*
X0146813Y0177486D01*
X0146765Y0177559D01*
X0146813Y0177632D01*
X0146915Y0178145D01*
Y0178675D01*
X0147446D01*
X0147959Y0178777D01*
X0148031Y0178826D01*
X0148104Y0178777D01*
X0148617Y0178675D01*
X0149414D01*
X0149927Y0178777D01*
X0150000Y0178826D01*
X0150073Y0178777D01*
X0150586Y0178675D01*
X0151383D01*
X0151896Y0178777D01*
X0151969Y0178826D01*
X0152041Y0178777D01*
D02*
G37*
G36*
X0136026Y0176929D02*
X0136070Y0176268D01*
X0136090Y0176161D01*
X0136114Y0176078D01*
X0136142Y0176020D01*
X0136173Y0175984D01*
X0136208Y0175972D01*
X0134658D01*
X0134693Y0175984D01*
X0134724Y0176020D01*
X0134752Y0176078D01*
X0134776Y0176161D01*
X0134796Y0176268D01*
X0134813Y0176398D01*
X0134835Y0176728D01*
X0134843Y0177153D01*
X0136024D01*
X0136026Y0176929D01*
D02*
G37*
G36*
X0228790Y0173826D02*
X0228739Y0173754D01*
X0228693Y0173675D01*
X0228653Y0173588D01*
X0228620Y0173493D01*
X0228592Y0173390D01*
X0228571Y0173279D01*
X0228555Y0173161D01*
X0228546Y0173034D01*
X0228543Y0172900D01*
X0227362D01*
X0227359Y0173034D01*
X0227335Y0173279D01*
X0227313Y0173390D01*
X0227286Y0173493D01*
X0227252Y0173588D01*
X0227213Y0173675D01*
X0227167Y0173754D01*
X0227115Y0173826D01*
X0227057Y0173889D01*
X0228848D01*
X0228790Y0173826D01*
D02*
G37*
G36*
X0235814Y0173524D02*
X0235702Y0173520D01*
X0235593Y0173508D01*
X0235485Y0173486D01*
X0235380Y0173455D01*
X0235277Y0173415D01*
X0235176Y0173366D01*
X0235078Y0173307D01*
X0234982Y0173240D01*
X0234888Y0173163D01*
X0234797Y0173077D01*
X0234101Y0173773D01*
X0234187Y0173865D01*
X0234263Y0173959D01*
X0234331Y0174055D01*
X0234389Y0174153D01*
X0234438Y0174253D01*
X0234479Y0174356D01*
X0234509Y0174461D01*
X0234531Y0174569D01*
X0234544Y0174679D01*
X0234547Y0174790D01*
X0235814Y0173524D01*
D02*
G37*
G36*
X0140155Y0175497D02*
X0140185Y0175413D01*
X0140234Y0175340D01*
X0140303Y0175276D01*
X0140392Y0175222D01*
X0140500Y0175177D01*
X0140628Y0175143D01*
X0140775Y0175118D01*
X0140943Y0175103D01*
X0141130Y0175098D01*
Y0174114D01*
X0140943Y0174109D01*
X0140775Y0174095D01*
X0140628Y0174071D01*
X0140500Y0174037D01*
X0140392Y0173994D01*
X0140303Y0173941D01*
X0140234Y0173879D01*
X0140185Y0173807D01*
X0140155Y0173725D01*
X0140146Y0173634D01*
Y0175591D01*
X0140155Y0175497D01*
D02*
G37*
G36*
X0139795Y0180501D02*
X0139727Y0180414D01*
X0139666Y0180323D01*
X0139614Y0180227D01*
X0139569Y0180126D01*
X0139533Y0180020D01*
X0139505Y0179909D01*
X0139485Y0179793D01*
X0139472Y0179673D01*
X0139469Y0179547D01*
X0138484D01*
X0138480Y0179673D01*
X0138468Y0179793D01*
X0138448Y0179909D01*
X0138420Y0180020D01*
X0138383Y0180126D01*
X0138339Y0180227D01*
X0138286Y0180323D01*
X0138226Y0180414D01*
X0138157Y0180501D01*
X0138081Y0180582D01*
X0139872D01*
X0139795Y0180501D01*
D02*
G37*
G36*
X0121264Y0188067D02*
X0121311Y0187969D01*
X0121390Y0187882D01*
X0121500Y0187807D01*
X0121642Y0187743D01*
X0121815Y0187691D01*
X0122020Y0187651D01*
X0122256Y0187622D01*
X0122523Y0187604D01*
X0122823Y0187598D01*
Y0186024D01*
X0122523Y0186018D01*
X0122020Y0185972D01*
X0121815Y0185931D01*
X0121642Y0185879D01*
X0121500Y0185815D01*
X0121390Y0185740D01*
X0121311Y0185653D01*
X0121264Y0185555D01*
X0121248Y0185445D01*
Y0188177D01*
X0121264Y0188067D01*
D02*
G37*
G36*
X0228546Y0186414D02*
X0228571Y0186170D01*
X0228592Y0186059D01*
X0228620Y0185956D01*
X0228653Y0185861D01*
X0228693Y0185774D01*
X0228739Y0185695D01*
X0228790Y0185623D01*
X0228848Y0185559D01*
X0227057D01*
X0227115Y0185623D01*
X0227167Y0185695D01*
X0227213Y0185774D01*
X0227252Y0185861D01*
X0227286Y0185956D01*
X0227313Y0186059D01*
X0227335Y0186170D01*
X0227350Y0186288D01*
X0227359Y0186414D01*
X0227362Y0186548D01*
X0228543D01*
X0228546Y0186414D01*
D02*
G37*
G36*
X0236420D02*
X0236445Y0186170D01*
X0236466Y0186059D01*
X0236494Y0185956D01*
X0236527Y0185861D01*
X0236567Y0185774D01*
X0236613Y0185695D01*
X0236665Y0185623D01*
X0236722Y0185559D01*
X0234931D01*
X0234989Y0185623D01*
X0235041Y0185695D01*
X0235087Y0185774D01*
X0235126Y0185861D01*
X0235160Y0185956D01*
X0235187Y0186059D01*
X0235209Y0186170D01*
X0235224Y0186288D01*
X0235233Y0186414D01*
X0235236Y0186548D01*
X0236417D01*
X0236420Y0186414D01*
D02*
G37*
G36*
X0153772Y0184635D02*
X0153703Y0184548D01*
X0153643Y0184457D01*
X0153590Y0184361D01*
X0153546Y0184260D01*
X0153509Y0184154D01*
X0153481Y0184043D01*
X0153461Y0183927D01*
X0153449Y0183807D01*
X0153445Y0183681D01*
X0152461D01*
X0152457Y0183807D01*
X0152445Y0183927D01*
X0152424Y0184043D01*
X0152396Y0184154D01*
X0152360Y0184260D01*
X0152315Y0184361D01*
X0152263Y0184457D01*
X0152202Y0184548D01*
X0152134Y0184635D01*
X0152057Y0184716D01*
X0153848D01*
X0153772Y0184635D01*
D02*
G37*
G36*
X0159874Y0181682D02*
X0159806Y0181595D01*
X0159745Y0181504D01*
X0159693Y0181408D01*
X0159648Y0181307D01*
X0159612Y0181201D01*
X0159584Y0181090D01*
X0159563Y0180974D01*
X0159551Y0180854D01*
X0159547Y0180728D01*
X0158563D01*
X0158559Y0180854D01*
X0158547Y0180974D01*
X0158527Y0181090D01*
X0158498Y0181201D01*
X0158462Y0181307D01*
X0158418Y0181408D01*
X0158365Y0181504D01*
X0158305Y0181595D01*
X0158236Y0181682D01*
X0158159Y0181763D01*
X0159951D01*
X0159874Y0181682D01*
D02*
G37*
G36*
X0115555Y0184110D02*
X0115689Y0182319D01*
X0115738Y0182126D01*
X0115796Y0181988D01*
X0115860Y0181905D01*
X0115933Y0181878D01*
X0112807D01*
X0112805Y0181905D01*
X0112803Y0181988D01*
X0112795Y0184634D01*
X0115551D01*
X0115555Y0184110D01*
D02*
G37*
G36*
X0142551Y0182863D02*
X0142483Y0182776D01*
X0142422Y0182685D01*
X0142370Y0182589D01*
X0142325Y0182488D01*
X0142289Y0182382D01*
X0142261Y0182271D01*
X0142241Y0182156D01*
X0142228Y0182035D01*
X0142224Y0181909D01*
X0141240D01*
X0141236Y0182035D01*
X0141224Y0182156D01*
X0141204Y0182271D01*
X0141176Y0182382D01*
X0141139Y0182488D01*
X0141095Y0182589D01*
X0141042Y0182685D01*
X0140982Y0182776D01*
X0140913Y0182863D01*
X0140837Y0182945D01*
X0142628D01*
X0142551Y0182863D01*
D02*
G37*
D10*
X0139370Y0174803D02*
D03*
X0135433D02*
D03*
X0139370Y0171260D02*
D03*
X0135433D02*
D03*
X0137008Y0154724D02*
D03*
X0140945D02*
D03*
X0137008Y0151575D02*
D03*
X0140945D02*
D03*
X0119685Y0124803D02*
D03*
X0115748D02*
D03*
X0107874D02*
D03*
X0111811D02*
D03*
D11*
X0160630Y0156890D02*
D03*
Y0162795D02*
D03*
X0160630Y0192323D02*
D03*
Y0198228D02*
D03*
X0131496Y0192323D02*
D03*
Y0198228D02*
D03*
X0122047Y0174213D02*
D03*
Y0180118D02*
D03*
D12*
X0160630Y0170669D02*
D03*
Y0167126D02*
D03*
X0164961Y0194685D02*
D03*
Y0198228D02*
D03*
X0126772Y0194685D02*
D03*
Y0198228D02*
D03*
Y0186811D02*
D03*
Y0190354D02*
D03*
Y0176575D02*
D03*
Y0180118D02*
D03*
D13*
X0263386Y0170276D02*
D03*
D14*
X0298819Y0108071D02*
D03*
X0290945D02*
D03*
X0283071D02*
D03*
X0275197D02*
D03*
X0267323D02*
D03*
X0259449D02*
D03*
X0251575D02*
D03*
X0243701D02*
D03*
X0235827D02*
D03*
X0227953D02*
D03*
X0220079D02*
D03*
X0212205D02*
D03*
X0204331D02*
D03*
X0196457D02*
D03*
X0188583D02*
D03*
X0180709D02*
D03*
Y0194291D02*
D03*
X0188583Y0194291D02*
D03*
X0196457Y0194291D02*
D03*
X0204331Y0194291D02*
D03*
X0212205D02*
D03*
X0220079D02*
D03*
X0227953D02*
D03*
X0235827Y0194291D02*
D03*
X0243701Y0194291D02*
D03*
X0251575D02*
D03*
X0259449D02*
D03*
X0267323D02*
D03*
X0275197Y0194291D02*
D03*
D15*
X0172835Y0123425D02*
D03*
Y0131299D02*
D03*
Y0139173D02*
D03*
Y0147047D02*
D03*
Y0154921D02*
D03*
Y0162795D02*
D03*
Y0170669D02*
D03*
Y0178543D02*
D03*
D16*
X0109055Y0194291D02*
D03*
Y0190551D02*
D03*
Y0186811D02*
D03*
X0119291D02*
D03*
Y0194291D02*
D03*
D17*
X0125452Y0158071D02*
D03*
Y0154134D02*
D03*
Y0148228D02*
D03*
X0125452Y0144291D02*
D03*
X0125452Y0146260D02*
D03*
Y0150197D02*
D03*
Y0152165D02*
D03*
Y0156102D02*
D03*
D18*
Y0141732D02*
D03*
Y0138583D02*
D03*
Y0160630D02*
D03*
Y0163779D02*
D03*
D19*
X0108465Y0179921D02*
D03*
X0114370D02*
D03*
D20*
X0131102Y0164646D02*
D03*
Y0161339D02*
D03*
Y0157559D02*
D03*
Y0154252D02*
D03*
Y0148346D02*
D03*
Y0151654D02*
D03*
D21*
X0116142Y0105709D02*
D03*
Y0110039D02*
D03*
X0111417Y0105709D02*
D03*
Y0110039D02*
D03*
D22*
X0116142Y0113779D02*
D03*
Y0117717D02*
D03*
X0111417Y0113779D02*
D03*
Y0117717D02*
D03*
D23*
X0118976Y0128347D02*
D03*
X0115669D02*
D03*
X0108583D02*
D03*
X0111890D02*
D03*
D24*
X0133465Y0106228D02*
D03*
X0157087D02*
D03*
Y0120992D02*
D03*
X0133465D02*
D03*
D25*
X0152953Y0181378D02*
D03*
X0150984D02*
D03*
X0149016D02*
D03*
X0147047D02*
D03*
Y0169803D02*
D03*
X0149016D02*
D03*
X0150984D02*
D03*
X0152953D02*
D03*
D26*
X0155787Y0172638D02*
D03*
Y0174606D02*
D03*
Y0176575D02*
D03*
Y0178543D02*
D03*
X0144213D02*
D03*
Y0176575D02*
D03*
Y0174606D02*
D03*
Y0172638D02*
D03*
D27*
X0150000Y0175591D02*
D03*
D28*
X0251575Y0183465D02*
Y0194291D01*
X0214173Y0127559D02*
X0225984D01*
X0204331Y0117717D02*
X0214173Y0127559D01*
X0204331Y0108071D02*
Y0117717D01*
X0230709Y0169685D02*
X0235827Y0174803D01*
X0230709Y0150787D02*
Y0169685D01*
X0195276Y0115354D02*
X0230709Y0150787D01*
X0162205Y0178347D02*
Y0178347D01*
X0160433Y0176575D02*
X0162205Y0178347D01*
X0155787Y0176575D02*
X0160433D01*
X0159055Y0179528D02*
Y0182677D01*
X0158071Y0178543D02*
X0159055Y0179528D01*
X0155787Y0178543D02*
X0158071D01*
X0152953Y0181378D02*
Y0185630D01*
X0138976Y0179134D02*
Y0181496D01*
Y0179134D02*
X0141535Y0176575D01*
X0141732Y0179528D02*
Y0183858D01*
Y0179528D02*
X0142717Y0178543D01*
X0144213D01*
X0141535Y0176575D02*
X0144213D01*
X0143504Y0172638D02*
X0144213D01*
X0142126Y0171260D02*
X0143504Y0172638D01*
X0139370Y0171260D02*
X0142126D01*
X0139370Y0174803D02*
X0139567Y0174606D01*
X0144213D01*
X0150886Y0164567D02*
X0150984Y0164665D01*
Y0169803D01*
X0148819Y0164961D02*
X0149016Y0165157D01*
Y0169803D01*
X0174409Y0115354D02*
X0195276D01*
X0235827Y0108071D02*
Y0118504D01*
X0204331Y0185827D02*
Y0194291D01*
X0251575Y0183465D02*
Y0183858D01*
X0251575Y0183465D02*
X0251575Y0183465D01*
X0259449Y0186614D02*
Y0194291D01*
X0114567Y0158268D02*
X0119685D01*
X0111811Y0155512D02*
X0114567Y0158268D01*
X0121850Y0156102D02*
X0125452D01*
X0119685Y0158268D02*
X0121850Y0156102D01*
X0115748Y0139764D02*
X0120276Y0144291D01*
X0165284Y0106228D02*
X0174409Y0115354D01*
X0157087Y0106228D02*
X0165284D01*
X0120276Y0144291D02*
X0125452D01*
X0115748Y0124803D02*
Y0139764D01*
X0111811Y0124803D02*
Y0155512D01*
X0133465Y0106228D02*
X0157087D01*
D29*
X0150000Y0175591D02*
X0152953Y0172638D01*
X0155787D01*
X0147047D02*
X0150000Y0175591D01*
X0147047Y0169803D02*
Y0172638D01*
X0143701Y0166929D02*
X0145669D01*
X0147047Y0168307D01*
Y0169803D01*
X0133386Y0157559D02*
X0133858Y0157087D01*
X0131102Y0157559D02*
X0133386D01*
X0139370Y0187402D02*
Y0198228D01*
X0135433Y0183465D02*
X0139370Y0187402D01*
X0135433Y0174803D02*
Y0183465D01*
X0114567Y0120866D02*
X0125984D01*
X0111417Y0117717D02*
X0114567Y0120866D01*
X0135433Y0171260D02*
Y0174803D01*
X0153937Y0167323D02*
X0160039D01*
X0152953Y0168307D02*
X0153937Y0167323D01*
X0152953Y0168307D02*
Y0169803D01*
X0121063Y0154134D02*
X0125452D01*
X0118898Y0156299D02*
X0121063Y0154134D01*
X0116535Y0156299D02*
X0118898D01*
X0114961Y0154724D02*
X0116535Y0156299D01*
X0114961Y0152362D02*
Y0154724D01*
Y0152362D02*
X0117126Y0150197D01*
X0125452D01*
X0136417Y0154134D02*
X0137008Y0154724D01*
X0227953Y0152362D02*
Y0174803D01*
X0193307Y0117717D02*
X0227953Y0152362D01*
X0116142Y0117717D02*
X0193307D01*
X0114075Y0186811D02*
X0114173Y0186713D01*
X0109055Y0186811D02*
X0114075D01*
X0130315Y0141732D02*
X0133465Y0138583D01*
Y0128347D02*
Y0138583D01*
X0125984Y0120866D02*
X0133465Y0128347D01*
X0116142Y0110039D02*
Y0113779D01*
X0111417Y0110039D02*
Y0113779D01*
X0235827Y0184646D02*
Y0194291D01*
X0227953Y0184646D02*
Y0194291D01*
X0125452Y0154134D02*
X0136417D01*
D30*
X0148425Y0188583D02*
Y0198228D01*
X0160630Y0162795D02*
Y0167126D01*
X0156102Y0162795D02*
X0160630D01*
X0160630Y0162795D01*
X0125452Y0160630D02*
X0125452Y0160630D01*
X0129921D01*
D31*
X0139370Y0198228D02*
X0148425D01*
X0160630D01*
X0131496D02*
X0139370D01*
X0135433Y0162205D02*
Y0165748D01*
X0131102Y0170079D02*
X0135433Y0165748D01*
X0131102Y0170079D02*
Y0178150D01*
X0185335Y0180020D02*
X0263878D01*
X0180709Y0184646D02*
X0185335Y0180020D01*
X0175886Y0184646D02*
X0180709D01*
X0172244Y0188287D02*
X0175886Y0184646D01*
X0172244Y0188287D02*
Y0194685D01*
X0168701Y0198228D02*
X0172244Y0194685D01*
X0164961Y0198228D02*
X0168701D01*
X0129134Y0180118D02*
X0131102Y0178150D01*
X0114173Y0186713D02*
Y0193307D01*
Y0180118D02*
Y0186713D01*
X0267323Y0183465D02*
Y0194291D01*
X0263878Y0180020D02*
X0267323Y0183465D01*
X0160630Y0198228D02*
X0164961D01*
X0126772D02*
X0131496D01*
X0123819D02*
X0126772D01*
X0119882Y0194291D02*
X0123819Y0198228D01*
X0119291Y0194291D02*
X0119882D01*
X0135433Y0162205D02*
X0138583D01*
X0133858Y0160630D02*
X0135433Y0162205D01*
X0114370Y0179921D02*
X0114567Y0180118D01*
X0122047D01*
X0114173D02*
X0114370Y0179921D01*
X0113189Y0194291D02*
X0114173Y0193307D01*
X0109055Y0194291D02*
X0113189D01*
X0122047Y0180118D02*
X0129134D01*
X0129921Y0160630D02*
X0133858D01*
D32*
X0117717Y0153543D02*
X0119095Y0152165D01*
X0125452D01*
X0136417D02*
X0137008Y0151575D01*
X0117717Y0146850D02*
X0119095Y0148228D01*
X0125452D01*
Y0152165D02*
X0136417D01*
D33*
X0151575Y0156299D02*
Y0165748D01*
X0148425Y0157874D02*
Y0165748D01*
X0146850Y0151575D02*
X0151575Y0156299D01*
X0140945Y0151575D02*
X0146850D01*
X0145276Y0154724D02*
X0148425Y0157874D01*
X0140945Y0154724D02*
X0145276D01*
X0125452Y0141732D02*
X0130315D01*
D34*
X0119291Y0186811D02*
X0126772D01*
D35*
X0120472Y0162598D02*
D03*
Y0139764D02*
D03*
D36*
X0106044Y0134153D02*
D03*
Y0168209D02*
D03*
D37*
X0122501Y0134153D02*
D03*
Y0168209D02*
D03*
D38*
X0174803Y0104331D02*
D03*
Y0108268D02*
D03*
X0143701Y0166929D02*
D03*
X0161811Y0151575D02*
D03*
X0156693D02*
D03*
X0164567Y0167323D02*
D03*
X0164961Y0187795D02*
D03*
X0160630D02*
D03*
X0151969Y0177559D02*
D03*
X0301181Y0188976D02*
D03*
X0295275Y0177165D02*
D03*
X0301181Y0165354D02*
D03*
X0295275Y0153543D02*
D03*
X0301181Y0141732D02*
D03*
X0295275Y0129921D02*
D03*
X0301181Y0118110D02*
D03*
X0289370Y0188976D02*
D03*
X0283465Y0177165D02*
D03*
X0289370Y0165354D02*
D03*
X0283465Y0153543D02*
D03*
X0289370Y0141732D02*
D03*
X0283465Y0129921D02*
D03*
X0289370Y0118110D02*
D03*
X0271654Y0177165D02*
D03*
X0277559Y0165354D02*
D03*
X0271654Y0153543D02*
D03*
X0277559Y0141732D02*
D03*
X0271654Y0129921D02*
D03*
X0277559Y0118110D02*
D03*
X0259842Y0153543D02*
D03*
X0265748Y0141732D02*
D03*
X0259842Y0129921D02*
D03*
X0265748Y0118110D02*
D03*
X0253937Y0165354D02*
D03*
X0248031Y0153543D02*
D03*
X0253937Y0141732D02*
D03*
X0248031Y0129921D02*
D03*
X0253937Y0118110D02*
D03*
X0242126Y0165354D02*
D03*
X0236220Y0153543D02*
D03*
X0242126Y0141732D02*
D03*
X0236220Y0129921D02*
D03*
X0242126Y0118110D02*
D03*
X0230315Y0141732D02*
D03*
Y0118110D02*
D03*
X0218504D02*
D03*
X0159449Y0141732D02*
D03*
X0147638D02*
D03*
X0135827Y0188976D02*
D03*
X0129921Y0129921D02*
D03*
X0112205Y0165354D02*
D03*
X0106299Y0153543D02*
D03*
Y0129921D02*
D03*
Y0106299D02*
D03*
X0148425Y0188583D02*
D03*
X0162205Y0178347D02*
D03*
X0159055Y0182677D02*
D03*
X0152953Y0185630D02*
D03*
X0141732Y0183858D02*
D03*
X0138976Y0181496D02*
D03*
X0156102Y0162795D02*
D03*
X0133858Y0157087D02*
D03*
X0219291Y0185039D02*
D03*
X0212992D02*
D03*
X0196063Y0184646D02*
D03*
X0190945D02*
D03*
X0118504Y0190551D02*
D03*
X0123228D02*
D03*
X0235827Y0118504D02*
D03*
X0225984Y0127559D02*
D03*
X0204331Y0185827D02*
D03*
X0251575Y0183858D02*
D03*
X0259449Y0186614D02*
D03*
X0227953Y0174803D02*
D03*
X0235827D02*
D03*
Y0184646D02*
D03*
X0227953D02*
D03*
X0117717Y0146850D02*
D03*
Y0153543D02*
D03*
D39*
X0130315Y0141732D02*
D03*
X0138583Y0162205D02*
D03*
M02*
