M48
;Layer_Color=9474304
;FILE_FORMAT=2:5
INCH
;TYPE=PLATED
T1F00S00C0.01181
T2F00S00C0.01968
;TYPE=NON_PLATED
T4F00S00C0.02756
%
T01
X0103543Y0107480
X0111417Y0103150
X0109055Y0119291
X0125984Y0125984
X0129921Y0133858
X0137795
X0145669
X0153543
X0149606Y0141732
X0141732
X0145669Y0149606
X0153543
X0149606Y0125984
X0141732
Y0110236
X0149606
X0133858
X0125984
X0117717Y0146850
Y0153543
X0161417Y0149606
X0165354Y0141732
X0157480
X0161417Y0133858
X0165354Y0125984
X0157480
Y0110236
X0165354
X0173228
X0181103Y0125984
X0188977
X0196851
X0204725
X0200787Y0133858
X0192913
X0185039
X0188977Y0141732
X0196851
X0204725
X0200787Y0149606
X0192913
X0185039
X0181103Y0141732
X0220473
X0216536Y0149606
X0232284
X0240158
X0248032
X0255906
X0263780
X0271654
X0279528
X0287402
X0295276
X0303150
X0299213Y0141732
X0291339
X0283465
X0275591
X0267717
X0259843
X0251969
X0244095
X0236221
X0240158Y0133858
X0248032
X0255906
X0263780
X0271654
X0279528
X0287402
X0295276
X0303150
X0299213Y0125984
X0291339
X0283465
X0275591
X0267717
X0259843
X0251969
X0244095
X0236221
X0235827Y0118504
X0240158Y0118110
X0248032
X0255906
X0263780
X0271654
X0279528
X0287402
X0295276
X0303150
X0232284Y0133858
X0225984Y0127559
X0220473Y0157480
X0224410Y0165354
X0216536
X0220473Y0173228
X0227953Y0174803
X0235827
Y0184646
X0227953
X0219291Y0185039
X0212992
X0204331Y0185827
X0196063Y0184646
X0190945
X0188977Y0173228
X0196851
X0204725
X0200787Y0165354
X0192913
X0185039
X0188977Y0157480
X0196851
X0204725
X0181103
Y0173228
X0165354
X0163976Y0165551
X0165354Y0157480
X0157480
X0157776Y0183465
X0161417Y0181103
X0251575Y0183858
X0259449Y0186614
X0271654Y0181103
X0279528
X0287402
X0295276
X0303150
X0299213Y0188977
X0291339
X0283465
X0287402Y0196851
X0295276
X0303150
X0299213Y0173228
X0291339
X0283465
X0275591
X0279528Y0165354
X0287402
X0295276
X0303150
X0299213Y0157480
X0291339
X0283465
X0275591
X0267717
X0259843
X0251969
X0244095
X0248032Y0165354
X0240158
X0271654
X0150295Y0171358
X0138976Y0170079
X0139370Y0157480
X0144685Y0181496
X0138583Y0188189
X0140945Y0193110
X0136024Y0194488
X0146260Y0194685
X0155512Y0194587
X0131398Y0185433
X0123228Y0190551
X0118504
X0110236Y0173228
X0114173Y0165354
T02
X0130315Y0141732
X0138583Y0162205
T04
X0120472Y0139764
Y0162598
M30
