G04 Layer_Physical_Order=1*
G04 Layer_Color=255*
%FSAX25Y25*%
%MOIN*%
G70*
G01*
G75*
G04:AMPARAMS|DCode=10|XSize=33.07mil|YSize=10.63mil|CornerRadius=1.33mil|HoleSize=0mil|Usage=FLASHONLY|Rotation=90.000|XOffset=0mil|YOffset=0mil|HoleType=Round|Shape=RoundedRectangle|*
%AMROUNDEDRECTD10*
21,1,0.03307,0.00797,0,0,90.0*
21,1,0.03041,0.01063,0,0,90.0*
1,1,0.00266,0.00399,0.01521*
1,1,0.00266,0.00399,-0.01521*
1,1,0.00266,-0.00399,-0.01521*
1,1,0.00266,-0.00399,0.01521*
%
%ADD10ROUNDEDRECTD10*%
G04:AMPARAMS|DCode=11|XSize=33.07mil|YSize=10.63mil|CornerRadius=1.33mil|HoleSize=0mil|Usage=FLASHONLY|Rotation=0.000|XOffset=0mil|YOffset=0mil|HoleType=Round|Shape=RoundedRectangle|*
%AMROUNDEDRECTD11*
21,1,0.03307,0.00797,0,0,0.0*
21,1,0.03041,0.01063,0,0,0.0*
1,1,0.00266,0.01521,-0.00399*
1,1,0.00266,-0.01521,-0.00399*
1,1,0.00266,-0.01521,0.00399*
1,1,0.00266,0.01521,0.00399*
%
%ADD11ROUNDEDRECTD11*%
%ADD12R,0.07874X0.07874*%
%ADD13R,0.03937X0.03150*%
%ADD14R,0.02362X0.01968*%
%ADD15R,0.11024X0.11024*%
G04:AMPARAMS|DCode=16|XSize=110.24mil|YSize=59.84mil|CornerRadius=14.96mil|HoleSize=0mil|Usage=FLASHONLY|Rotation=270.000|XOffset=0mil|YOffset=0mil|HoleType=Round|Shape=RoundedRectangle|*
%AMROUNDEDRECTD16*
21,1,0.11024,0.02992,0,0,270.0*
21,1,0.08031,0.05984,0,0,270.0*
1,1,0.02992,-0.01496,-0.04016*
1,1,0.02992,-0.01496,0.04016*
1,1,0.02992,0.01496,0.04016*
1,1,0.02992,0.01496,-0.04016*
%
%ADD16ROUNDEDRECTD16*%
G04:AMPARAMS|DCode=17|XSize=110.24mil|YSize=59.84mil|CornerRadius=14.96mil|HoleSize=0mil|Usage=FLASHONLY|Rotation=180.000|XOffset=0mil|YOffset=0mil|HoleType=Round|Shape=RoundedRectangle|*
%AMROUNDEDRECTD17*
21,1,0.11024,0.02992,0,0,180.0*
21,1,0.08031,0.05984,0,0,180.0*
1,1,0.02992,-0.04016,0.01496*
1,1,0.02992,0.04016,0.01496*
1,1,0.02992,0.04016,-0.01496*
1,1,0.02992,-0.04016,-0.01496*
%
%ADD17ROUNDEDRECTD17*%
%ADD18R,0.03937X0.02756*%
%ADD19R,0.05512X0.01181*%
%ADD20R,0.05512X0.02362*%
%ADD21R,0.03150X0.03937*%
%ADD22R,0.00984X0.01417*%
%ADD23R,0.01575X0.02362*%
%ADD24R,0.01968X0.02756*%
%ADD25R,0.02362X0.01575*%
%ADD26R,0.01417X0.00984*%
%ADD27R,0.03937X0.02953*%
%ADD28C,0.02756*%
%ADD29C,0.01000*%
%ADD30C,0.00984*%
%ADD31C,0.01378*%
%ADD32C,0.01181*%
%ADD33C,0.01575*%
%ADD34C,0.00787*%
%ADD35C,0.01968*%
%ADD36C,0.02362*%
%ADD37C,0.02756*%
%ADD38O,0.06299X0.03937*%
%ADD39O,0.08268X0.03937*%
%ADD40C,0.02559*%
%ADD41C,0.03543*%
G36*
X0128205Y0150760D02*
X0128235Y0150747D01*
X0128285Y0150735D01*
X0128355Y0150725D01*
X0128555Y0150709D01*
X0129195Y0150697D01*
Y0149697D01*
X0129005Y0149696D01*
X0128235Y0149647D01*
X0128205Y0149634D01*
X0128195Y0149619D01*
Y0150774D01*
X0128205Y0150760D01*
D02*
G37*
G36*
X0122709Y0149619D02*
X0122699Y0149634D01*
X0122669Y0149647D01*
X0122619Y0149659D01*
X0122549Y0149669D01*
X0122349Y0149684D01*
X0121709Y0149697D01*
Y0150697D01*
X0121899Y0150698D01*
X0122669Y0150747D01*
X0122699Y0150760D01*
X0122709Y0150774D01*
Y0149619D01*
D02*
G37*
G36*
X0143063Y0150282D02*
X0142928Y0150142D01*
X0142710Y0149880D01*
X0142627Y0149759D01*
X0142561Y0149644D01*
X0142513Y0149536D01*
X0142483Y0149434D01*
X0142469Y0149339D01*
X0142473Y0149251D01*
X0142495Y0149169D01*
X0141885Y0150762D01*
X0141923Y0150697D01*
X0141978Y0150659D01*
X0142049Y0150648D01*
X0142136Y0150664D01*
X0142239Y0150708D01*
X0142359Y0150778D01*
X0142494Y0150876D01*
X0142646Y0151000D01*
X0142999Y0151331D01*
X0143063Y0150282D01*
D02*
G37*
G36*
X0128205Y0152728D02*
X0128235Y0152715D01*
X0128285Y0152703D01*
X0128355Y0152693D01*
X0128555Y0152678D01*
X0129195Y0152665D01*
Y0151665D01*
X0129005Y0151665D01*
X0128235Y0151616D01*
X0128205Y0151602D01*
X0128195Y0151588D01*
Y0152743D01*
X0128205Y0152728D01*
D02*
G37*
G36*
X0122709Y0151588D02*
X0122699Y0151602D01*
X0122669Y0151616D01*
X0122619Y0151627D01*
X0122549Y0151637D01*
X0122349Y0151653D01*
X0121709Y0151665D01*
Y0152665D01*
X0121899Y0152666D01*
X0122669Y0152715D01*
X0122699Y0152728D01*
X0122709Y0152743D01*
Y0151588D01*
D02*
G37*
G36*
X0133490Y0149197D02*
X0133479Y0149292D01*
X0133448Y0149377D01*
X0133397Y0149452D01*
X0133326Y0149517D01*
X0133235Y0149572D01*
X0133123Y0149617D01*
X0132992Y0149652D01*
X0132841Y0149677D01*
X0132669Y0149692D01*
X0132530Y0149696D01*
X0132390Y0149692D01*
X0132219Y0149677D01*
X0132068Y0149652D01*
X0131936Y0149617D01*
X0131825Y0149572D01*
X0131734Y0149517D01*
X0131663Y0149452D01*
X0131612Y0149377D01*
X0131580Y0149292D01*
X0131570Y0149197D01*
X0131581Y0150381D01*
X0132478Y0150664D01*
Y0150697D01*
X0132668Y0150698D01*
X0133438Y0150747D01*
X0133468Y0150760D01*
X0133478Y0150774D01*
X0133490Y0149197D01*
D02*
G37*
G36*
X0122709Y0147651D02*
X0122699Y0147666D01*
X0122669Y0147679D01*
X0122619Y0147690D01*
X0122549Y0147700D01*
X0122349Y0147716D01*
X0121709Y0147728D01*
Y0148728D01*
X0121899Y0148729D01*
X0122669Y0148778D01*
X0122699Y0148791D01*
X0122709Y0148806D01*
Y0147651D01*
D02*
G37*
G36*
X0122709Y0143714D02*
X0122699Y0143730D01*
X0122670Y0143745D01*
X0122621Y0143757D01*
X0122552Y0143768D01*
X0122463Y0143778D01*
X0122079Y0143796D01*
X0121725Y0143799D01*
Y0144783D01*
X0121912Y0144784D01*
X0122621Y0144825D01*
X0122670Y0144838D01*
X0122699Y0144853D01*
X0122709Y0144869D01*
Y0143714D01*
D02*
G37*
G36*
X0119446Y0147872D02*
X0119350Y0147773D01*
X0119192Y0147583D01*
X0119129Y0147493D01*
X0119078Y0147405D01*
X0119037Y0147321D01*
X0119008Y0147240D01*
X0118989Y0147162D01*
X0118982Y0147087D01*
X0118985Y0147015D01*
X0117881Y0148119D01*
X0117953Y0148116D01*
X0118028Y0148123D01*
X0118106Y0148142D01*
X0118187Y0148171D01*
X0118271Y0148212D01*
X0118359Y0148263D01*
X0118449Y0148326D01*
X0118543Y0148399D01*
X0118639Y0148484D01*
X0118739Y0148580D01*
X0119446Y0147872D01*
D02*
G37*
G36*
X0129813Y0150694D02*
X0130133Y0150668D01*
X0130263Y0150646D01*
X0130373Y0150618D01*
X0130463Y0150583D01*
X0130533Y0150542D01*
X0130583Y0150495D01*
X0130613Y0150441D01*
X0130623Y0150381D01*
X0130635Y0149197D01*
X0130624Y0149292D01*
X0130593Y0149377D01*
X0130542Y0149452D01*
X0130471Y0149517D01*
X0130380Y0149572D01*
X0130269Y0149617D01*
X0130137Y0149652D01*
X0129986Y0149677D01*
X0129815Y0149692D01*
X0129623Y0149697D01*
Y0150697D01*
X0129813Y0150694D01*
D02*
G37*
G36*
X0135824Y0150685D02*
X0135854Y0150605D01*
X0135904Y0150534D01*
X0135974Y0150473D01*
X0136064Y0150421D01*
X0136174Y0150379D01*
X0136304Y0150346D01*
X0136417Y0150328D01*
X0136531Y0150346D01*
X0136661Y0150379D01*
X0136771Y0150421D01*
X0136861Y0150473D01*
X0136931Y0150534D01*
X0136981Y0150605D01*
X0137011Y0150685D01*
X0137021Y0150774D01*
X0137033Y0148803D01*
X0137022Y0148898D01*
X0136991Y0148983D01*
X0136941Y0149058D01*
X0136870Y0149123D01*
X0136778Y0149178D01*
X0136667Y0149223D01*
X0136536Y0149258D01*
X0136415Y0149278D01*
X0136304Y0149261D01*
X0136174Y0149228D01*
X0136064Y0149185D01*
X0135974Y0149134D01*
X0135904Y0149072D01*
X0135854Y0149002D01*
X0135824Y0148921D01*
X0135814Y0148832D01*
Y0150774D01*
X0135824Y0150685D01*
D02*
G37*
G36*
X0141489Y0160714D02*
Y0155512D01*
X0141343Y0155334D01*
X0140945D01*
X0140561Y0155258D01*
X0140235Y0155040D01*
X0140019Y0154717D01*
X0140008Y0154715D01*
X0139520D01*
X0139508Y0154717D01*
X0139292Y0155040D01*
X0138967Y0155258D01*
X0138583Y0155334D01*
X0137008D01*
X0136624Y0155258D01*
X0136298Y0155040D01*
X0136081Y0154715D01*
X0136039Y0154505D01*
X0135827Y0154547D01*
X0133465D01*
X0133080Y0154470D01*
X0132755Y0154253D01*
X0132304Y0154095D01*
X0131978Y0154313D01*
X0131595Y0154389D01*
X0130610D01*
X0130226Y0154313D01*
X0129901Y0154095D01*
X0129293Y0154076D01*
X0129211Y0154132D01*
Y0154724D01*
X0129135Y0155108D01*
X0129129Y0155118D01*
X0129135Y0155128D01*
X0129211Y0155512D01*
Y0156693D01*
X0129135Y0157077D01*
X0129129Y0157087D01*
X0129135Y0157096D01*
X0129211Y0157480D01*
Y0157968D01*
X0129598Y0158286D01*
X0129921Y0158221D01*
X0133858D01*
X0134780Y0158405D01*
X0135561Y0158927D01*
X0135777Y0159143D01*
X0135903Y0159233D01*
X0136123Y0159360D01*
X0136373Y0159475D01*
X0136656Y0159576D01*
X0136973Y0159661D01*
X0137324Y0159731D01*
X0137347Y0159733D01*
X0137863Y0159520D01*
X0138583Y0159425D01*
X0139302Y0159520D01*
X0139972Y0159798D01*
X0140548Y0160239D01*
X0140990Y0160815D01*
X0141489Y0160714D01*
D02*
G37*
G36*
X0122709Y0155525D02*
X0122701Y0155541D01*
X0122675Y0155555D01*
X0122632Y0155568D01*
X0122572Y0155579D01*
X0122494Y0155589D01*
X0122288Y0155603D01*
X0121850Y0155610D01*
Y0156595D01*
X0122014Y0156595D01*
X0122632Y0156636D01*
X0122675Y0156649D01*
X0122701Y0156664D01*
X0122709Y0156680D01*
Y0155525D01*
D02*
G37*
G36*
X0128212Y0161763D02*
X0128264Y0161732D01*
X0128350Y0161704D01*
X0128471Y0161680D01*
X0128627Y0161660D01*
X0129041Y0161631D01*
X0129921Y0161614D01*
Y0159646D01*
X0129593Y0159644D01*
X0128350Y0159556D01*
X0128264Y0159528D01*
X0128212Y0159497D01*
X0128195Y0159462D01*
Y0161798D01*
X0128212Y0161763D01*
D02*
G37*
G36*
X0166290Y0164039D02*
Y0161299D01*
X0166482Y0160331D01*
X0167031Y0159511D01*
X0167558Y0159159D01*
Y0158558D01*
X0167031Y0158205D01*
X0166482Y0157385D01*
X0166290Y0156417D01*
Y0153425D01*
X0166482Y0152457D01*
X0167031Y0151637D01*
X0167558Y0151285D01*
Y0150684D01*
X0167031Y0150331D01*
X0166482Y0149511D01*
X0166290Y0148543D01*
Y0145551D01*
X0166482Y0144583D01*
X0167031Y0143763D01*
X0167558Y0143411D01*
Y0142809D01*
X0167031Y0142457D01*
X0166482Y0141637D01*
X0166290Y0140669D01*
Y0137677D01*
X0166482Y0136709D01*
X0167031Y0135889D01*
X0167558Y0135537D01*
Y0134935D01*
X0167031Y0134583D01*
X0166482Y0133763D01*
X0166290Y0132795D01*
Y0129803D01*
X0166482Y0128835D01*
X0167031Y0128015D01*
X0167558Y0127663D01*
Y0127061D01*
X0167031Y0126709D01*
X0166482Y0125889D01*
X0166290Y0124921D01*
Y0121929D01*
X0166482Y0120961D01*
X0167031Y0120141D01*
X0167508Y0119822D01*
X0167356Y0119322D01*
X0129799D01*
X0128694Y0120427D01*
X0128592Y0120495D01*
X0128528Y0121139D01*
X0134600Y0127211D01*
X0134600Y0127211D01*
X0134948Y0127732D01*
X0135070Y0128347D01*
X0135070Y0128347D01*
Y0138583D01*
X0134948Y0139197D01*
X0134600Y0139718D01*
X0133356Y0140962D01*
X0133263Y0141062D01*
X0133229Y0141114D01*
X0133194Y0141179D01*
X0133163Y0141248D01*
X0133138Y0141322D01*
X0133118Y0141404D01*
X0133103Y0141494D01*
X0133093Y0141594D01*
X0133091Y0141702D01*
X0133095Y0141732D01*
X0133000Y0142452D01*
X0132722Y0143122D01*
X0132281Y0143698D01*
X0131705Y0144140D01*
X0131034Y0144417D01*
X0130315Y0144512D01*
X0129711Y0144432D01*
X0129211Y0144729D01*
Y0144882D01*
X0129135Y0145266D01*
X0129129Y0145276D01*
X0129135Y0145285D01*
X0129211Y0145669D01*
Y0146850D01*
X0129135Y0147234D01*
X0129129Y0147244D01*
X0129135Y0147254D01*
X0129211Y0147638D01*
Y0148230D01*
X0129293Y0148287D01*
X0129901Y0148267D01*
X0130226Y0148049D01*
X0130610Y0147973D01*
X0131595D01*
X0131978Y0148049D01*
X0132304Y0148267D01*
X0132755Y0148109D01*
X0133080Y0147892D01*
X0133465Y0147815D01*
X0135827D01*
X0136089Y0147868D01*
X0136092Y0147868D01*
X0136094Y0147869D01*
X0136184Y0147887D01*
X0136298Y0147716D01*
X0136624Y0147498D01*
X0137008Y0147422D01*
X0138583D01*
X0138967Y0147498D01*
X0139292Y0147716D01*
X0139508Y0148039D01*
X0139520Y0148041D01*
X0140008D01*
X0140019Y0148039D01*
X0140235Y0147716D01*
X0140561Y0147498D01*
X0140945Y0147422D01*
X0142520D01*
X0142904Y0147498D01*
X0143229Y0147716D01*
X0143447Y0148041D01*
X0143523Y0148425D01*
Y0149288D01*
X0143643Y0149431D01*
X0147336Y0153124D01*
X0147441Y0153103D01*
X0148363Y0153287D01*
X0149144Y0153809D01*
X0149666Y0154590D01*
X0149849Y0155512D01*
Y0163191D01*
X0150349Y0163572D01*
X0150394Y0163563D01*
X0152756D01*
X0152874Y0163587D01*
X0152884Y0163586D01*
X0152901Y0163592D01*
X0153140Y0163640D01*
X0153347Y0163778D01*
X0153553Y0163640D01*
X0153792Y0163592D01*
X0153809Y0163586D01*
X0153819Y0163587D01*
X0153937Y0163563D01*
X0156299D01*
X0156683Y0163640D01*
X0159065D01*
X0159449Y0163563D01*
X0161811D01*
X0162195Y0163640D01*
X0162296Y0163708D01*
X0162629Y0163728D01*
X0163093Y0163419D01*
X0163976Y0163243D01*
X0164860Y0163419D01*
X0165609Y0163919D01*
X0165790Y0164191D01*
X0166290Y0164039D01*
D02*
G37*
G36*
X0136829Y0165815D02*
X0136882Y0165347D01*
X0136970Y0164933D01*
X0137094Y0164575D01*
X0137254Y0164272D01*
X0137449Y0164024D01*
X0137679Y0163831D01*
X0137945Y0163693D01*
X0138246Y0163610D01*
X0138583Y0163583D01*
Y0160827D01*
X0138081Y0160815D01*
X0137607Y0160780D01*
X0137162Y0160721D01*
X0136745Y0160639D01*
X0136356Y0160534D01*
X0135995Y0160405D01*
X0135662Y0160253D01*
X0135357Y0160077D01*
X0135081Y0159878D01*
X0134833Y0159656D01*
X0132884Y0161604D01*
X0133106Y0161854D01*
X0133306Y0162136D01*
X0133481Y0162450D01*
X0133633Y0162795D01*
X0133762Y0163172D01*
X0133868Y0163580D01*
X0133950Y0164021D01*
X0134043Y0164996D01*
X0134055Y0165531D01*
X0136811Y0166339D01*
X0136829Y0165815D01*
D02*
G37*
G36*
X0143203Y0153727D02*
X0143033Y0153551D01*
X0142759Y0153222D01*
X0142656Y0153071D01*
X0142574Y0152927D01*
X0142514Y0152792D01*
X0142476Y0152666D01*
X0142460Y0152547D01*
X0142467Y0152437D01*
X0142495Y0152335D01*
X0141705Y0154306D01*
X0141754Y0154225D01*
X0141824Y0154178D01*
X0141913Y0154164D01*
X0142022Y0154185D01*
X0142151Y0154238D01*
X0142300Y0154326D01*
X0142470Y0154447D01*
X0142659Y0154603D01*
X0143097Y0155014D01*
X0143203Y0153727D01*
D02*
G37*
G36*
X0118982Y0153307D02*
X0118989Y0153232D01*
X0119008Y0153154D01*
X0119037Y0153073D01*
X0119078Y0152989D01*
X0119129Y0152901D01*
X0119192Y0152811D01*
X0119265Y0152717D01*
X0119350Y0152621D01*
X0119446Y0152521D01*
X0118739Y0151814D01*
X0118639Y0151910D01*
X0118449Y0152068D01*
X0118359Y0152131D01*
X0118271Y0152182D01*
X0118187Y0152223D01*
X0118106Y0152252D01*
X0118028Y0152271D01*
X0117953Y0152278D01*
X0117881Y0152274D01*
X0118985Y0153379D01*
X0118982Y0153307D01*
D02*
G37*
G36*
X0130623Y0151981D02*
X0129623Y0151665D01*
Y0152665D01*
X0129815Y0152670D01*
X0129986Y0152685D01*
X0130137Y0152710D01*
X0130269Y0152745D01*
X0130380Y0152790D01*
X0130471Y0152845D01*
X0130542Y0152910D01*
X0130593Y0152985D01*
X0130624Y0153070D01*
X0130635Y0153165D01*
X0130623Y0151981D01*
D02*
G37*
G36*
X0133478Y0151588D02*
X0133468Y0151602D01*
X0133438Y0151616D01*
X0133388Y0151627D01*
X0133318Y0151637D01*
X0133118Y0151653D01*
X0132478Y0151665D01*
Y0151698D01*
X0131581Y0151981D01*
X0131570Y0153165D01*
X0131580Y0153070D01*
X0131612Y0152985D01*
X0131663Y0152910D01*
X0131734Y0152845D01*
X0131825Y0152790D01*
X0131936Y0152745D01*
X0132068Y0152710D01*
X0132219Y0152685D01*
X0132390Y0152670D01*
X0132530Y0152667D01*
X0132669Y0152670D01*
X0132841Y0152685D01*
X0132992Y0152710D01*
X0133123Y0152745D01*
X0133235Y0152790D01*
X0133326Y0152845D01*
X0133397Y0152910D01*
X0133448Y0152985D01*
X0133479Y0153070D01*
X0133490Y0153165D01*
X0133478Y0151588D01*
D02*
G37*
G36*
X0122709Y0153556D02*
X0122699Y0153571D01*
X0122669Y0153584D01*
X0122619Y0153596D01*
X0122549Y0153606D01*
X0122349Y0153621D01*
X0121709Y0153634D01*
Y0154634D01*
X0121899Y0154635D01*
X0122669Y0154683D01*
X0122699Y0154697D01*
X0122709Y0154711D01*
Y0153556D01*
D02*
G37*
G36*
X0137021Y0151981D02*
X0137011Y0151996D01*
X0136981Y0152009D01*
X0136931Y0152021D01*
X0136861Y0152031D01*
X0136661Y0152047D01*
X0136556Y0152049D01*
X0136454Y0152040D01*
X0136304Y0152017D01*
X0136174Y0151984D01*
X0136064Y0151941D01*
X0135974Y0151889D01*
X0135904Y0151828D01*
X0135854Y0151757D01*
X0135824Y0151677D01*
X0135814Y0151588D01*
Y0153530D01*
X0135824Y0153441D01*
X0135854Y0153361D01*
X0135904Y0153290D01*
X0135974Y0153229D01*
X0136064Y0153177D01*
X0136174Y0153134D01*
X0136304Y0153102D01*
X0136414Y0153084D01*
X0136535Y0153104D01*
X0136667Y0153139D01*
X0136778Y0153184D01*
X0136869Y0153239D01*
X0136940Y0153304D01*
X0136991Y0153379D01*
X0137022Y0153464D01*
X0137033Y0153559D01*
X0137021Y0151981D01*
D02*
G37*
G36*
X0121924Y0114568D02*
X0121826Y0114533D01*
X0121740Y0114474D01*
X0121665Y0114391D01*
X0121601Y0114285D01*
X0121549Y0114155D01*
X0121509Y0114001D01*
X0121480Y0113824D01*
X0121475Y0113762D01*
X0121491Y0113558D01*
X0121518Y0113404D01*
X0121552Y0113274D01*
X0121594Y0113168D01*
X0121643Y0113085D01*
X0121700Y0113026D01*
X0121765Y0112991D01*
X0121837Y0112979D01*
X0119895D01*
X0119967Y0112991D01*
X0120032Y0113026D01*
X0120089Y0113085D01*
X0120139Y0113168D01*
X0120180Y0113274D01*
X0120215Y0113404D01*
X0120241Y0113558D01*
X0120260Y0113734D01*
X0120253Y0113824D01*
X0120224Y0114001D01*
X0120183Y0114155D01*
X0120131Y0114285D01*
X0120068Y0114391D01*
X0119993Y0114474D01*
X0119906Y0114533D01*
X0119808Y0114568D01*
X0119698Y0114580D01*
X0122034D01*
X0121924Y0114568D01*
D02*
G37*
G36*
X0117200D02*
X0117102Y0114533D01*
X0117015Y0114474D01*
X0116940Y0114391D01*
X0116877Y0114285D01*
X0116825Y0114155D01*
X0116784Y0114001D01*
X0116755Y0113824D01*
X0116750Y0113762D01*
X0116767Y0113558D01*
X0116793Y0113404D01*
X0116827Y0113274D01*
X0116869Y0113168D01*
X0116919Y0113085D01*
X0116976Y0113026D01*
X0117041Y0112991D01*
X0117113Y0112979D01*
X0115171D01*
X0115243Y0112991D01*
X0115307Y0113026D01*
X0115365Y0113085D01*
X0115414Y0113168D01*
X0115456Y0113274D01*
X0115490Y0113404D01*
X0115517Y0113558D01*
X0115536Y0113734D01*
X0115528Y0113824D01*
X0115499Y0114001D01*
X0115459Y0114155D01*
X0115407Y0114285D01*
X0115343Y0114391D01*
X0115268Y0114474D01*
X0115182Y0114533D01*
X0115083Y0114568D01*
X0114974Y0114580D01*
X0117310D01*
X0117200Y0114568D01*
D02*
G37*
G36*
X0107584Y0114570D02*
X0107500Y0114541D01*
X0107426Y0114491D01*
X0107362Y0114422D01*
X0107308Y0114334D01*
X0107264Y0114226D01*
X0107229Y0114098D01*
X0107205Y0113950D01*
X0107190Y0113783D01*
X0107190Y0113777D01*
X0107190Y0113776D01*
X0107204Y0113609D01*
X0107228Y0113461D01*
X0107262Y0113333D01*
X0107305Y0113225D01*
X0107358Y0113137D01*
X0107420Y0113068D01*
X0107492Y0113019D01*
X0107573Y0112989D01*
X0107664Y0112979D01*
X0105722D01*
X0105813Y0112989D01*
X0105894Y0113019D01*
X0105966Y0113068D01*
X0106028Y0113137D01*
X0106081Y0113225D01*
X0106124Y0113333D01*
X0106158Y0113461D01*
X0106182Y0113609D01*
X0106196Y0113776D01*
X0106196Y0113777D01*
X0106196Y0113783D01*
X0106181Y0113950D01*
X0106157Y0114098D01*
X0106122Y0114226D01*
X0106078Y0114334D01*
X0106024Y0114422D01*
X0105960Y0114491D01*
X0105886Y0114541D01*
X0105802Y0114570D01*
X0105709Y0114580D01*
X0107677D01*
X0107584Y0114570D01*
D02*
G37*
G36*
X0207695Y0113692D02*
X0207530Y0113520D01*
X0207278Y0113213D01*
X0207192Y0113078D01*
X0207132Y0112957D01*
X0207099Y0112848D01*
X0207092Y0112752D01*
X0207113Y0112668D01*
X0207159Y0112598D01*
X0207232Y0112540D01*
X0205499Y0113572D01*
X0205589Y0113532D01*
X0205690Y0113516D01*
X0205800Y0113524D01*
X0205920Y0113555D01*
X0206050Y0113610D01*
X0206190Y0113689D01*
X0206340Y0113790D01*
X0206499Y0113916D01*
X0206669Y0114064D01*
X0206848Y0114237D01*
X0207695Y0113692D01*
D02*
G37*
G36*
X0112308Y0114570D02*
X0112224Y0114541D01*
X0112151Y0114491D01*
X0112087Y0114422D01*
X0112032Y0114334D01*
X0111988Y0114226D01*
X0111954Y0114098D01*
X0111929Y0113950D01*
X0111914Y0113783D01*
X0111914Y0113777D01*
X0111914Y0113776D01*
X0111929Y0113609D01*
X0111953Y0113461D01*
X0111986Y0113333D01*
X0112029Y0113225D01*
X0112082Y0113137D01*
X0112144Y0113068D01*
X0112216Y0113019D01*
X0112297Y0112989D01*
X0112389Y0112979D01*
X0110446D01*
X0110537Y0112989D01*
X0110619Y0113019D01*
X0110690Y0113068D01*
X0110753Y0113137D01*
X0110805Y0113225D01*
X0110848Y0113333D01*
X0110882Y0113461D01*
X0110906Y0113609D01*
X0110920Y0113776D01*
X0110920Y0113777D01*
X0110920Y0113783D01*
X0110906Y0113950D01*
X0110881Y0114098D01*
X0110846Y0114226D01*
X0110802Y0114334D01*
X0110748Y0114422D01*
X0110684Y0114491D01*
X0110610Y0114541D01*
X0110527Y0114570D01*
X0110433Y0114580D01*
X0112402D01*
X0112308Y0114570D01*
D02*
G37*
G36*
X0105734Y0106299D02*
X0105721Y0106411D01*
X0105685Y0106512D01*
X0105625Y0106600D01*
X0105541Y0106677D01*
X0105434Y0106742D01*
X0105303Y0106795D01*
X0105148Y0106837D01*
X0105033Y0106856D01*
X0104957Y0106841D01*
X0104854Y0106814D01*
X0104759Y0106780D01*
X0104672Y0106740D01*
X0104592Y0106694D01*
X0104521Y0106643D01*
X0104457Y0106585D01*
Y0108376D01*
X0104521Y0108318D01*
X0104592Y0108266D01*
X0104672Y0108220D01*
X0104759Y0108181D01*
X0104854Y0108147D01*
X0104957Y0108120D01*
X0105033Y0108105D01*
X0105143Y0108123D01*
X0105297Y0108163D01*
X0105426Y0108215D01*
X0105533Y0108279D01*
X0105615Y0108354D01*
X0105674Y0108440D01*
X0105710Y0108539D01*
X0105722Y0108648D01*
X0105734Y0106299D01*
D02*
G37*
G36*
X0112316Y0105907D02*
X0112251Y0105871D01*
X0112194Y0105812D01*
X0112145Y0105729D01*
X0112103Y0105623D01*
X0112069Y0105493D01*
X0112042Y0105340D01*
X0112023Y0105163D01*
X0112013Y0104893D01*
X0112035Y0104674D01*
X0112057Y0104563D01*
X0112084Y0104460D01*
X0112118Y0104365D01*
X0112157Y0104278D01*
X0112203Y0104199D01*
X0112255Y0104127D01*
X0112313Y0104063D01*
X0110522D01*
X0110580Y0104127D01*
X0110632Y0104199D01*
X0110677Y0104278D01*
X0110717Y0104365D01*
X0110750Y0104460D01*
X0110778Y0104563D01*
X0110799Y0104674D01*
X0110815Y0104792D01*
X0110824Y0104918D01*
X0110823Y0104962D01*
X0110793Y0105340D01*
X0110766Y0105493D01*
X0110732Y0105623D01*
X0110690Y0105729D01*
X0110640Y0105812D01*
X0110583Y0105871D01*
X0110518Y0105907D01*
X0110446Y0105919D01*
X0112389D01*
X0112316Y0105907D01*
D02*
G37*
G36*
X0127998Y0116581D02*
X0128519Y0116233D01*
X0129134Y0116111D01*
X0129134Y0116111D01*
X0172384D01*
X0172575Y0115649D01*
X0164660Y0107734D01*
X0160053D01*
X0159982Y0108089D01*
X0159765Y0108414D01*
X0159439Y0108632D01*
X0159055Y0108708D01*
X0155118D01*
X0154734Y0108632D01*
X0154409Y0108414D01*
X0154191Y0108089D01*
X0154120Y0107734D01*
X0136431D01*
X0136360Y0108089D01*
X0136143Y0108414D01*
X0135817Y0108632D01*
X0135433Y0108708D01*
X0131496D01*
X0131112Y0108632D01*
X0130787Y0108414D01*
X0130569Y0108089D01*
X0130492Y0107705D01*
Y0104752D01*
X0130569Y0104368D01*
X0130787Y0104042D01*
X0131112Y0103825D01*
X0131496Y0103748D01*
X0135433D01*
X0135817Y0103825D01*
X0136143Y0104042D01*
X0136360Y0104368D01*
X0136431Y0104723D01*
X0154120D01*
X0154191Y0104368D01*
X0154409Y0104042D01*
X0154734Y0103825D01*
X0155118Y0103748D01*
X0159055D01*
X0159439Y0103825D01*
X0159765Y0104042D01*
X0159982Y0104368D01*
X0160053Y0104723D01*
X0165284D01*
X0165859Y0104838D01*
X0166348Y0105164D01*
X0175033Y0113849D01*
X0184751D01*
X0184986Y0113408D01*
X0184750Y0113054D01*
X0184558Y0112087D01*
Y0104055D01*
X0184750Y0103087D01*
X0185298Y0102267D01*
X0186119Y0101719D01*
X0186192Y0101704D01*
X0186143Y0101204D01*
X0114173D01*
Y0109055D01*
X0122441D01*
X0123622Y0110236D01*
Y0117686D01*
X0126894D01*
X0127998Y0116581D01*
D02*
G37*
G36*
X0135418Y0107119D02*
X0135448Y0107035D01*
X0135498Y0106962D01*
X0135567Y0106898D01*
X0135657Y0106843D01*
X0135767Y0106799D01*
X0135896Y0106765D01*
X0136046Y0106740D01*
X0136215Y0106725D01*
X0136404Y0106720D01*
Y0105736D01*
X0136215Y0105731D01*
X0136046Y0105717D01*
X0135896Y0105692D01*
X0135767Y0105657D01*
X0135657Y0105613D01*
X0135567Y0105559D01*
X0135498Y0105495D01*
X0135448Y0105421D01*
X0135418Y0105338D01*
X0135408Y0105244D01*
Y0107213D01*
X0135418Y0107119D01*
D02*
G37*
G36*
X0159040D02*
X0159070Y0107035D01*
X0159120Y0106962D01*
X0159189Y0106898D01*
X0159279Y0106843D01*
X0159389Y0106799D01*
X0159518Y0106765D01*
X0159668Y0106740D01*
X0159837Y0106725D01*
X0160026Y0106720D01*
Y0105736D01*
X0159837Y0105731D01*
X0159668Y0105717D01*
X0159518Y0105692D01*
X0159389Y0105657D01*
X0159279Y0105613D01*
X0159189Y0105559D01*
X0159120Y0105495D01*
X0159070Y0105421D01*
X0159040Y0105338D01*
X0159030Y0105244D01*
Y0107213D01*
X0159040Y0107119D01*
D02*
G37*
G36*
X0155143Y0105244D02*
X0155133Y0105338D01*
X0155103Y0105421D01*
X0155053Y0105495D01*
X0154984Y0105559D01*
X0154894Y0105613D01*
X0154785Y0105657D01*
X0154655Y0105692D01*
X0154506Y0105717D01*
X0154336Y0105731D01*
X0154147Y0105736D01*
Y0106720D01*
X0154336Y0106725D01*
X0154506Y0106740D01*
X0154655Y0106765D01*
X0154785Y0106799D01*
X0154894Y0106843D01*
X0154984Y0106898D01*
X0155053Y0106962D01*
X0155103Y0107035D01*
X0155133Y0107119D01*
X0155143Y0107213D01*
Y0105244D01*
D02*
G37*
G36*
X0112306Y0129623D02*
X0112329Y0129308D01*
X0112348Y0129180D01*
X0112374Y0129072D01*
X0112405Y0128983D01*
X0112442Y0128914D01*
X0112484Y0128865D01*
X0112532Y0128835D01*
X0112585Y0128826D01*
X0111194D01*
X0111218Y0128835D01*
X0111239Y0128865D01*
X0111258Y0128914D01*
X0111274Y0128983D01*
X0111288Y0129072D01*
X0111308Y0129308D01*
X0111318Y0129623D01*
X0111319Y0129810D01*
X0112303D01*
X0112306Y0129623D01*
D02*
G37*
G36*
X0225071Y0126663D02*
X0224989Y0126740D01*
X0224903Y0126809D01*
X0224811Y0126869D01*
X0224715Y0126922D01*
X0224614Y0126966D01*
X0224508Y0127002D01*
X0224397Y0127031D01*
X0224282Y0127051D01*
X0224161Y0127063D01*
X0224035Y0127067D01*
Y0128051D01*
X0224161Y0128055D01*
X0224282Y0128067D01*
X0224397Y0128087D01*
X0224508Y0128116D01*
X0224614Y0128152D01*
X0224715Y0128197D01*
X0224811Y0128249D01*
X0224903Y0128309D01*
X0224989Y0128378D01*
X0225071Y0128455D01*
Y0126663D01*
D02*
G37*
G36*
X0116241Y0129623D02*
X0116285Y0128983D01*
X0116301Y0128914D01*
X0116320Y0128865D01*
X0116341Y0128835D01*
X0116365Y0128826D01*
X0114974D01*
X0115027Y0128835D01*
X0115075Y0128865D01*
X0115118Y0128914D01*
X0115154Y0128983D01*
X0115185Y0129072D01*
X0115211Y0129180D01*
X0115231Y0129308D01*
X0115245Y0129455D01*
X0115256Y0129810D01*
X0116240D01*
X0116241Y0129623D01*
D02*
G37*
G36*
X0131512Y0141651D02*
X0131561Y0141543D01*
X0131643Y0141409D01*
X0131701Y0141329D01*
X0132087Y0141715D01*
X0132091Y0141536D01*
X0132107Y0141364D01*
X0132135Y0141198D01*
X0132175Y0141038D01*
X0132227Y0140885D01*
X0132290Y0140739D01*
X0132366Y0140599D01*
X0132454Y0140465D01*
X0132491Y0140418D01*
X0132817Y0140069D01*
X0133126Y0139756D01*
X0132291Y0138921D01*
X0131978Y0139231D01*
X0131510Y0139641D01*
X0131448Y0139681D01*
X0131308Y0139757D01*
X0131162Y0139821D01*
X0131009Y0139873D01*
X0130850Y0139912D01*
X0130684Y0139941D01*
X0130511Y0139956D01*
X0130333Y0139961D01*
X0130712Y0140340D01*
X0130638Y0140404D01*
X0130504Y0140486D01*
X0130396Y0140535D01*
X0130314Y0140551D01*
X0131496Y0141733D01*
X0131512Y0141651D01*
D02*
G37*
G36*
X0125452Y0139524D02*
X0128665D01*
X0128925Y0139325D01*
X0129595Y0139047D01*
X0130315Y0138953D01*
X0130345Y0138957D01*
X0130453Y0138954D01*
X0130553Y0138945D01*
X0130644Y0138929D01*
X0130725Y0138909D01*
X0130799Y0138884D01*
X0130868Y0138854D01*
X0130912Y0138830D01*
X0131188Y0138589D01*
X0131859Y0137918D01*
Y0129011D01*
X0126107Y0123259D01*
X0118504D01*
X0118504Y0123259D01*
X0117955Y0123150D01*
X0117710Y0123303D01*
X0117512Y0123486D01*
X0117539Y0123622D01*
Y0125984D01*
X0117504Y0126160D01*
X0117504Y0126182D01*
X0117496Y0126199D01*
X0117463Y0126368D01*
X0117351Y0126535D01*
X0117349Y0126541D01*
X0117344Y0126545D01*
X0117256Y0126678D01*
X0117253Y0126709D01*
Y0127319D01*
X0117254Y0127327D01*
X0117260Y0127403D01*
X0117305Y0127470D01*
X0117382Y0127854D01*
Y0128839D01*
X0117305Y0129223D01*
X0117271Y0129273D01*
X0117253Y0129534D01*
Y0139140D01*
X0117595Y0139482D01*
X0118134Y0139314D01*
X0118190Y0139030D01*
X0118228Y0138939D01*
X0118247Y0138842D01*
X0118302Y0138760D01*
X0118340Y0138669D01*
X0118645Y0138213D01*
X0118714Y0138143D01*
X0118769Y0138061D01*
X0118852Y0138006D01*
X0118921Y0137936D01*
X0119377Y0137631D01*
X0119468Y0137594D01*
X0119551Y0137539D01*
X0119648Y0137519D01*
X0119739Y0137481D01*
X0120277Y0137375D01*
X0120277Y0137375D01*
X0120376D01*
X0120472Y0137355D01*
X0120569Y0137375D01*
X0120668D01*
X0121206Y0137481D01*
X0121297Y0137519D01*
X0121394Y0137539D01*
X0121476Y0137594D01*
X0121568Y0137631D01*
X0122023Y0137936D01*
X0122093Y0138006D01*
X0122176Y0138061D01*
X0122230Y0138143D01*
X0122300Y0138213D01*
X0122605Y0138669D01*
X0122643Y0138760D01*
X0122698Y0138842D01*
X0122717Y0138939D01*
X0122755Y0139030D01*
X0122858Y0139548D01*
X0125336D01*
X0125452Y0139524D01*
D02*
G37*
G36*
X0116341Y0127857D02*
X0116320Y0127828D01*
X0116301Y0127779D01*
X0116285Y0127710D01*
X0116271Y0127621D01*
X0116251Y0127385D01*
X0116241Y0127070D01*
X0116241Y0126933D01*
X0116243Y0126769D01*
X0116266Y0126453D01*
X0116285Y0126326D01*
X0116311Y0126217D01*
X0116342Y0126129D01*
X0116378Y0126060D01*
X0116421Y0126011D01*
X0116469Y0125981D01*
X0116523Y0125971D01*
X0114974D01*
X0115027Y0125981D01*
X0115075Y0126011D01*
X0115118Y0126060D01*
X0115154Y0126129D01*
X0115185Y0126217D01*
X0115211Y0126326D01*
X0115231Y0126453D01*
X0115245Y0126601D01*
X0115255Y0126932D01*
X0115253Y0127070D01*
X0115231Y0127385D01*
X0115211Y0127513D01*
X0115185Y0127621D01*
X0115154Y0127710D01*
X0115118Y0127779D01*
X0115075Y0127828D01*
X0115027Y0127857D01*
X0114974Y0127867D01*
X0116365D01*
X0116341Y0127857D01*
D02*
G37*
G36*
X0236646Y0117509D02*
X0236577Y0117422D01*
X0236517Y0117331D01*
X0236464Y0117235D01*
X0236420Y0117134D01*
X0236384Y0117028D01*
X0236355Y0116917D01*
X0236335Y0116801D01*
X0236323Y0116681D01*
X0236319Y0116555D01*
X0235335D01*
X0235331Y0116681D01*
X0235318Y0116801D01*
X0235298Y0116917D01*
X0235270Y0117028D01*
X0235234Y0117134D01*
X0235189Y0117235D01*
X0235137Y0117331D01*
X0235076Y0117422D01*
X0235008Y0117509D01*
X0234931Y0117590D01*
X0236722D01*
X0236646Y0117509D01*
D02*
G37*
G36*
X0236324Y0114378D02*
X0236339Y0114209D01*
X0236363Y0114060D01*
X0236398Y0113930D01*
X0236442Y0113821D01*
X0236496Y0113731D01*
X0236560Y0113661D01*
X0236634Y0113611D01*
X0236718Y0113581D01*
X0236811Y0113572D01*
X0234842D01*
X0234936Y0113581D01*
X0235020Y0113611D01*
X0235093Y0113661D01*
X0235157Y0113731D01*
X0235212Y0113821D01*
X0235256Y0113930D01*
X0235290Y0114060D01*
X0235315Y0114209D01*
X0235330Y0114378D01*
X0235335Y0114568D01*
X0236319D01*
X0236324Y0114378D01*
D02*
G37*
G36*
X0122046Y0120031D02*
X0122081Y0120000D01*
X0122141Y0119972D01*
X0122223Y0119948D01*
X0122329Y0119928D01*
X0122459Y0119911D01*
X0122790Y0119889D01*
X0123215Y0119882D01*
Y0118701D01*
X0122991Y0118699D01*
X0122329Y0118655D01*
X0122223Y0118635D01*
X0122141Y0118611D01*
X0122081Y0118583D01*
X0122046Y0118552D01*
X0122034Y0118517D01*
Y0120066D01*
X0122046Y0120031D01*
D02*
G37*
G36*
X0112532Y0127857D02*
X0112484Y0127828D01*
X0112442Y0127779D01*
X0112405Y0127710D01*
X0112374Y0127621D01*
X0112348Y0127513D01*
X0112329Y0127385D01*
X0112314Y0127237D01*
X0112304Y0126906D01*
X0112306Y0126769D01*
X0112329Y0126453D01*
X0112348Y0126326D01*
X0112374Y0126217D01*
X0112405Y0126129D01*
X0112442Y0126060D01*
X0112484Y0126011D01*
X0112532Y0125981D01*
X0112585Y0125971D01*
X0111037D01*
X0111090Y0125981D01*
X0111138Y0126011D01*
X0111181Y0126060D01*
X0111217Y0126129D01*
X0111248Y0126217D01*
X0111274Y0126326D01*
X0111293Y0126453D01*
X0111308Y0126601D01*
X0111319Y0126943D01*
X0111318Y0127070D01*
X0111274Y0127710D01*
X0111258Y0127779D01*
X0111239Y0127828D01*
X0111218Y0127857D01*
X0111194Y0127867D01*
X0112585D01*
X0112532Y0127857D01*
D02*
G37*
G36*
X0118145Y0120459D02*
X0117892Y0120199D01*
X0117499Y0119739D01*
X0117358Y0119541D01*
X0117255Y0119364D01*
X0117189Y0119207D01*
X0117160Y0119071D01*
X0117169Y0118956D01*
X0117215Y0118862D01*
X0117298Y0118789D01*
X0115246Y0120054D01*
X0115354Y0120006D01*
X0115476Y0119987D01*
X0115610Y0119998D01*
X0115758Y0120039D01*
X0115918Y0120109D01*
X0116092Y0120208D01*
X0116278Y0120337D01*
X0116478Y0120495D01*
X0116691Y0120683D01*
X0116916Y0120901D01*
X0118145Y0120459D01*
D02*
G37*
G36*
X0161814Y0166488D02*
X0161861Y0166456D01*
X0161940Y0166429D01*
X0162050Y0166405D01*
X0162192Y0166384D01*
X0162565Y0166356D01*
X0162874Y0166378D01*
X0162940Y0166392D01*
X0162994Y0166408D01*
X0163035Y0166426D01*
X0163063Y0166447D01*
Y0166345D01*
X0163373Y0166339D01*
Y0164764D01*
X0163074Y0164762D01*
X0163063Y0164761D01*
Y0164655D01*
X0163035Y0164676D01*
X0162994Y0164694D01*
X0162940Y0164711D01*
X0162874Y0164725D01*
X0162794Y0164737D01*
X0162743Y0164741D01*
X0162050Y0164698D01*
X0161940Y0164674D01*
X0161861Y0164646D01*
X0161814Y0164615D01*
X0161798Y0164580D01*
Y0166522D01*
X0161814Y0166488D01*
D02*
G37*
G36*
X0205222Y0188781D02*
X0205138Y0188751D01*
X0205064Y0188701D01*
X0205000Y0188631D01*
X0204946Y0188542D01*
X0204902Y0188432D01*
X0204867Y0188303D01*
X0204842Y0188153D01*
X0204828Y0187984D01*
X0204823Y0187794D01*
X0203839D01*
X0203834Y0187984D01*
X0203819Y0188153D01*
X0203794Y0188303D01*
X0203760Y0188432D01*
X0203716Y0188542D01*
X0203661Y0188631D01*
X0203597Y0188701D01*
X0203524Y0188751D01*
X0203440Y0188781D01*
X0203346Y0188791D01*
X0205315D01*
X0205222Y0188781D01*
D02*
G37*
G36*
X0307457Y0101204D02*
X0301259D01*
X0301210Y0101704D01*
X0301283Y0101719D01*
X0302103Y0102267D01*
X0302651Y0103087D01*
X0302844Y0104055D01*
Y0112087D01*
X0302651Y0113054D01*
X0302103Y0113875D01*
X0301283Y0114423D01*
X0300315Y0114615D01*
X0297323D01*
X0296355Y0114423D01*
X0295535Y0113875D01*
X0295183Y0113348D01*
X0294581D01*
X0294229Y0113875D01*
X0293409Y0114423D01*
X0292441Y0114615D01*
X0289449D01*
X0288481Y0114423D01*
X0287661Y0113875D01*
X0287112Y0113054D01*
X0286920Y0112087D01*
Y0104055D01*
X0287112Y0103087D01*
X0287661Y0102267D01*
X0288481Y0101719D01*
X0288554Y0101704D01*
X0288505Y0101204D01*
X0277637D01*
X0277588Y0101704D01*
X0277661Y0101719D01*
X0278481Y0102267D01*
X0279029Y0103087D01*
X0279222Y0104055D01*
Y0112087D01*
X0279029Y0113054D01*
X0278481Y0113875D01*
X0277661Y0114423D01*
X0276693Y0114615D01*
X0273701D01*
X0272733Y0114423D01*
X0271913Y0113875D01*
X0271561Y0113348D01*
X0270959D01*
X0270607Y0113875D01*
X0269787Y0114423D01*
X0268819Y0114615D01*
X0265827D01*
X0264859Y0114423D01*
X0264039Y0113875D01*
X0263686Y0113348D01*
X0263085D01*
X0262733Y0113875D01*
X0261913Y0114423D01*
X0260945Y0114615D01*
X0257953D01*
X0256985Y0114423D01*
X0256165Y0113875D01*
X0255813Y0113348D01*
X0255211D01*
X0254859Y0113875D01*
X0254039Y0114423D01*
X0253071Y0114615D01*
X0250079D01*
X0249111Y0114423D01*
X0248290Y0113875D01*
X0247938Y0113348D01*
X0247337D01*
X0246985Y0113875D01*
X0246165Y0114423D01*
X0245197Y0114615D01*
X0242205D01*
X0241237Y0114423D01*
X0240417Y0113875D01*
X0240064Y0113348D01*
X0239463D01*
X0239111Y0113875D01*
X0238291Y0114423D01*
X0237332Y0114614D01*
Y0116677D01*
X0237337Y0116706D01*
X0237346Y0116741D01*
X0237355Y0116768D01*
X0237366Y0116792D01*
X0237377Y0116812D01*
X0237383Y0116821D01*
X0237459Y0116872D01*
X0237959Y0117621D01*
X0238135Y0118504D01*
X0237959Y0119387D01*
X0237459Y0120136D01*
X0236710Y0120636D01*
X0235827Y0120812D01*
X0234944Y0120636D01*
X0234195Y0120136D01*
X0233694Y0119387D01*
X0233519Y0118504D01*
X0233694Y0117621D01*
X0234195Y0116872D01*
X0234271Y0116821D01*
X0234277Y0116812D01*
X0234288Y0116792D01*
X0234298Y0116769D01*
X0234308Y0116741D01*
X0234316Y0116706D01*
X0234321Y0116677D01*
Y0114614D01*
X0233363Y0114423D01*
X0232542Y0113875D01*
X0232190Y0113348D01*
X0231589D01*
X0231237Y0113875D01*
X0230417Y0114423D01*
X0229449Y0114615D01*
X0226457D01*
X0225489Y0114423D01*
X0224669Y0113875D01*
X0224316Y0113348D01*
X0223715D01*
X0223363Y0113875D01*
X0222543Y0114423D01*
X0221575Y0114615D01*
X0218583D01*
X0217615Y0114423D01*
X0216794Y0113875D01*
X0216442Y0113348D01*
X0215841D01*
X0215489Y0113875D01*
X0214669Y0114423D01*
X0213701Y0114615D01*
X0210758D01*
X0210615Y0114791D01*
X0210480Y0115044D01*
X0221490Y0126054D01*
X0224157D01*
X0224187Y0126049D01*
X0224221Y0126040D01*
X0224249Y0126030D01*
X0224272Y0126020D01*
X0224293Y0126009D01*
X0224301Y0126003D01*
X0224352Y0125927D01*
X0225101Y0125427D01*
X0225984Y0125251D01*
X0226868Y0125427D01*
X0227616Y0125927D01*
X0228117Y0126676D01*
X0228292Y0127559D01*
X0228117Y0128442D01*
X0227616Y0129191D01*
X0226868Y0129692D01*
X0225984Y0129867D01*
X0225101Y0129692D01*
X0224352Y0129191D01*
X0224301Y0129115D01*
X0224293Y0129109D01*
X0224272Y0129098D01*
X0224249Y0129088D01*
X0224221Y0129078D01*
X0224187Y0129069D01*
X0224157Y0129064D01*
X0221260D01*
Y0131496D01*
X0220946Y0131810D01*
X0236891Y0147755D01*
X0237217Y0148243D01*
X0237332Y0148819D01*
Y0172976D01*
X0237337Y0173006D01*
X0237346Y0173040D01*
X0237355Y0173068D01*
X0237366Y0173091D01*
X0237377Y0173112D01*
X0237383Y0173120D01*
X0237459Y0173171D01*
X0237959Y0173920D01*
X0238135Y0174803D01*
X0237959Y0175686D01*
X0237459Y0176435D01*
X0236710Y0176936D01*
X0235827Y0177111D01*
X0234944Y0176936D01*
X0234195Y0176435D01*
X0233694Y0175686D01*
X0233519Y0174803D01*
X0233694Y0173920D01*
X0234195Y0173171D01*
X0234271Y0173120D01*
X0234277Y0173112D01*
X0234288Y0173091D01*
X0234298Y0173068D01*
X0234308Y0173040D01*
X0234316Y0173006D01*
X0234321Y0172976D01*
Y0149442D01*
X0230047Y0145168D01*
X0229825Y0145217D01*
X0229558Y0145386D01*
Y0173091D01*
X0229562Y0173120D01*
X0229570Y0173161D01*
X0229585Y0173171D01*
X0230085Y0173920D01*
X0230261Y0174803D01*
X0230085Y0175686D01*
X0229585Y0176435D01*
X0228836Y0176936D01*
X0227953Y0177111D01*
X0227069Y0176936D01*
X0226321Y0176435D01*
X0225820Y0175686D01*
X0225645Y0174803D01*
X0225820Y0173920D01*
X0226321Y0173171D01*
X0226336Y0173161D01*
X0226341Y0173134D01*
X0226347Y0173070D01*
Y0145941D01*
X0199729Y0119322D01*
X0178313D01*
X0178162Y0119822D01*
X0178639Y0120141D01*
X0179187Y0120961D01*
X0179379Y0121929D01*
Y0124921D01*
X0179187Y0125889D01*
X0178639Y0126709D01*
X0178112Y0127061D01*
Y0127663D01*
X0178639Y0128015D01*
X0179187Y0128835D01*
X0179379Y0129803D01*
Y0132795D01*
X0179187Y0133763D01*
X0178639Y0134583D01*
X0178112Y0134935D01*
Y0135537D01*
X0178639Y0135889D01*
X0179187Y0136709D01*
X0179379Y0137677D01*
Y0140669D01*
X0179187Y0141637D01*
X0178639Y0142457D01*
X0178112Y0142809D01*
Y0143411D01*
X0178639Y0143763D01*
X0179187Y0144583D01*
X0179379Y0145551D01*
Y0148543D01*
X0179187Y0149511D01*
X0178639Y0150331D01*
X0178112Y0150684D01*
Y0151285D01*
X0178639Y0151637D01*
X0179187Y0152457D01*
X0179379Y0153425D01*
Y0156417D01*
X0179187Y0157385D01*
X0178639Y0158205D01*
X0178112Y0158558D01*
Y0159159D01*
X0178639Y0159511D01*
X0179187Y0160331D01*
X0179379Y0161299D01*
Y0164291D01*
X0179187Y0165259D01*
X0178639Y0166079D01*
X0178112Y0166432D01*
Y0167033D01*
X0178639Y0167385D01*
X0179187Y0168205D01*
X0179379Y0169173D01*
Y0172165D01*
X0179187Y0173133D01*
X0178639Y0173953D01*
X0178112Y0174306D01*
Y0174907D01*
X0178639Y0175259D01*
X0179187Y0176079D01*
X0179379Y0177047D01*
Y0180039D01*
X0179187Y0181007D01*
X0178699Y0181737D01*
X0178857Y0182237D01*
X0179711D01*
X0183632Y0178317D01*
X0184413Y0177795D01*
X0185335Y0177611D01*
X0263878D01*
X0264800Y0177795D01*
X0265581Y0178317D01*
X0269026Y0181762D01*
X0269548Y0182543D01*
X0269731Y0183465D01*
Y0186604D01*
X0269745Y0186766D01*
X0269793Y0187086D01*
X0269858Y0187370D01*
X0269937Y0187619D01*
X0270028Y0187834D01*
X0270129Y0188017D01*
X0270239Y0188173D01*
X0270359Y0188306D01*
X0270436Y0188373D01*
X0270607Y0188487D01*
X0270959Y0189014D01*
X0271561D01*
X0271913Y0188487D01*
X0272733Y0187939D01*
X0273701Y0187747D01*
X0276693D01*
X0277661Y0187939D01*
X0278481Y0188487D01*
X0279029Y0189308D01*
X0279222Y0190276D01*
Y0198307D01*
X0279029Y0199275D01*
X0278481Y0200095D01*
X0277661Y0200643D01*
X0277588Y0200658D01*
X0277637Y0201158D01*
X0307457D01*
Y0101204D01*
D02*
G37*
G36*
X0252466Y0188781D02*
X0252382Y0188751D01*
X0252308Y0188701D01*
X0252244Y0188631D01*
X0252190Y0188542D01*
X0252146Y0188432D01*
X0252111Y0188303D01*
X0252087Y0188153D01*
X0252072Y0187984D01*
X0252067Y0187794D01*
X0251083D01*
X0251078Y0187984D01*
X0251063Y0188153D01*
X0251038Y0188303D01*
X0251004Y0188432D01*
X0250960Y0188542D01*
X0250905Y0188631D01*
X0250841Y0188701D01*
X0250768Y0188751D01*
X0250684Y0188781D01*
X0250590Y0188791D01*
X0252559D01*
X0252466Y0188781D01*
D02*
G37*
G36*
X0142228Y0192986D02*
X0142240Y0192876D01*
X0142262Y0192769D01*
X0142293Y0192663D01*
X0142333Y0192561D01*
X0142382Y0192460D01*
X0142441Y0192362D01*
X0142508Y0192266D01*
X0142585Y0192172D01*
X0142671Y0192080D01*
X0141975Y0191384D01*
X0141883Y0191470D01*
X0141789Y0191547D01*
X0141693Y0191614D01*
X0141595Y0191673D01*
X0141495Y0191722D01*
X0141392Y0191762D01*
X0141287Y0191793D01*
X0141179Y0191815D01*
X0141070Y0191827D01*
X0140958Y0191831D01*
X0142224Y0193097D01*
X0142228Y0192986D01*
D02*
G37*
G36*
X0140239Y0188791D02*
X0140351Y0188783D01*
X0140486Y0188779D01*
Y0187598D01*
X0140351Y0187595D01*
X0140256Y0187586D01*
X0140257Y0187501D01*
X0140237Y0187520D01*
X0140195Y0187536D01*
X0140130Y0187551D01*
X0140057Y0187561D01*
X0139996Y0187550D01*
X0139893Y0187522D01*
X0139798Y0187489D01*
X0139711Y0187449D01*
X0139632Y0187403D01*
X0139560Y0187351D01*
X0139497Y0187293D01*
Y0187591D01*
X0139262Y0187598D01*
X0139038Y0187598D01*
Y0188779D01*
X0139266Y0188785D01*
X0139470Y0188803D01*
X0139497Y0188807D01*
Y0189085D01*
X0139560Y0189027D01*
X0139632Y0188975D01*
X0139711Y0188929D01*
X0139798Y0188889D01*
X0139822Y0188881D01*
X0139936Y0188927D01*
X0140044Y0188992D01*
X0140127Y0189069D01*
X0140185Y0189157D01*
X0140220Y0189258D01*
X0140231Y0189370D01*
X0140239Y0188791D01*
D02*
G37*
G36*
X0201940Y0200658D02*
X0201867Y0200643D01*
X0201046Y0200095D01*
X0200498Y0199275D01*
X0200306Y0198307D01*
Y0190276D01*
X0200498Y0189308D01*
X0201046Y0188487D01*
X0201867Y0187939D01*
X0202394Y0187834D01*
X0202434Y0187785D01*
X0202584Y0187287D01*
X0202198Y0186710D01*
X0202023Y0185827D01*
X0202198Y0184943D01*
X0202699Y0184195D01*
X0203447Y0183694D01*
X0204331Y0183519D01*
X0205214Y0183694D01*
X0205963Y0184195D01*
X0206463Y0184943D01*
X0206639Y0185827D01*
X0206463Y0186710D01*
X0206078Y0187287D01*
X0206227Y0187785D01*
X0206267Y0187834D01*
X0206795Y0187939D01*
X0207615Y0188487D01*
X0207967Y0189014D01*
X0208568D01*
X0208921Y0188487D01*
X0209741Y0187939D01*
X0210709Y0187747D01*
X0213701D01*
X0214669Y0187939D01*
X0215489Y0188487D01*
X0215841Y0189014D01*
X0216442D01*
X0216794Y0188487D01*
X0217615Y0187939D01*
X0218583Y0187747D01*
X0221575D01*
X0222543Y0187939D01*
X0223363Y0188487D01*
X0223715Y0189014D01*
X0224316D01*
X0224669Y0188487D01*
X0225489Y0187939D01*
X0226347Y0187768D01*
Y0186357D01*
X0226343Y0186329D01*
X0226336Y0186288D01*
X0226321Y0186278D01*
X0225820Y0185529D01*
X0225645Y0184646D01*
X0225820Y0183762D01*
X0226321Y0183014D01*
X0226448Y0182928D01*
X0226297Y0182428D01*
X0186332D01*
X0182412Y0186349D01*
X0181630Y0186871D01*
X0180709Y0187054D01*
X0176883D01*
X0174653Y0189285D01*
Y0194685D01*
X0174469Y0195607D01*
X0173947Y0196388D01*
X0170404Y0199931D01*
X0169623Y0200453D01*
X0168701Y0200637D01*
X0163736D01*
X0163708Y0200658D01*
X0163875Y0201158D01*
X0186143D01*
X0186192Y0200658D01*
X0186119Y0200643D01*
X0185298Y0200095D01*
X0184750Y0199275D01*
X0184558Y0198307D01*
Y0190276D01*
X0184750Y0189308D01*
X0185298Y0188487D01*
X0186119Y0187939D01*
X0187087Y0187747D01*
X0190079D01*
X0191047Y0187939D01*
X0191867Y0188487D01*
X0192415Y0189308D01*
X0192608Y0190276D01*
Y0198307D01*
X0192415Y0199275D01*
X0191867Y0200095D01*
X0191047Y0200643D01*
X0190973Y0200658D01*
X0191023Y0201158D01*
X0201891D01*
X0201940Y0200658D01*
D02*
G37*
G36*
X0204827Y0187650D02*
X0204839Y0187530D01*
X0204859Y0187414D01*
X0204887Y0187303D01*
X0204924Y0187197D01*
X0204968Y0187096D01*
X0205021Y0187000D01*
X0205081Y0186908D01*
X0205150Y0186822D01*
X0205226Y0186741D01*
X0203435D01*
X0203512Y0186822D01*
X0203580Y0186908D01*
X0203641Y0187000D01*
X0203693Y0187096D01*
X0203738Y0187197D01*
X0203774Y0187303D01*
X0203802Y0187414D01*
X0203822Y0187530D01*
X0203835Y0187650D01*
X0203839Y0187776D01*
X0204823D01*
X0204827Y0187650D01*
D02*
G37*
G36*
X0269654Y0189023D02*
X0269454Y0188801D01*
X0269277Y0188550D01*
X0269124Y0188273D01*
X0268995Y0187967D01*
X0268889Y0187634D01*
X0268807Y0187273D01*
X0268748Y0186884D01*
X0268713Y0186467D01*
X0268701Y0186023D01*
X0265945D01*
X0265933Y0186467D01*
X0265898Y0186884D01*
X0265839Y0187273D01*
X0265757Y0187634D01*
X0265651Y0187967D01*
X0265521Y0188273D01*
X0265368Y0188550D01*
X0265192Y0188801D01*
X0264992Y0189023D01*
X0264768Y0189217D01*
X0269877D01*
X0269654Y0189023D01*
D02*
G37*
G36*
X0260340Y0188781D02*
X0260256Y0188751D01*
X0260182Y0188701D01*
X0260118Y0188631D01*
X0260064Y0188542D01*
X0260020Y0188432D01*
X0259985Y0188303D01*
X0259973Y0188227D01*
X0259977Y0188201D01*
X0260005Y0188090D01*
X0260042Y0187985D01*
X0260086Y0187883D01*
X0260139Y0187787D01*
X0260199Y0187696D01*
X0260268Y0187610D01*
X0260345Y0187528D01*
X0258553D01*
X0258630Y0187610D01*
X0258698Y0187696D01*
X0258759Y0187787D01*
X0258811Y0187883D01*
X0258856Y0187985D01*
X0258892Y0188090D01*
X0258920Y0188201D01*
X0258925Y0188227D01*
X0258912Y0188303D01*
X0258878Y0188432D01*
X0258834Y0188542D01*
X0258780Y0188631D01*
X0258716Y0188701D01*
X0258642Y0188751D01*
X0258558Y0188781D01*
X0258465Y0188791D01*
X0260433D01*
X0260340Y0188781D01*
D02*
G37*
G36*
X0236896Y0188779D02*
X0236795Y0188743D01*
X0236707Y0188683D01*
X0236630Y0188600D01*
X0236565Y0188492D01*
X0236512Y0188361D01*
X0236471Y0188206D01*
X0236441Y0188027D01*
X0236423Y0187824D01*
X0236417Y0187598D01*
X0235236D01*
X0235230Y0187824D01*
X0235213Y0188027D01*
X0235183Y0188206D01*
X0235142Y0188361D01*
X0235089Y0188492D01*
X0235024Y0188600D01*
X0234947Y0188683D01*
X0234858Y0188743D01*
X0234758Y0188779D01*
X0234646Y0188791D01*
X0237008D01*
X0236896Y0188779D01*
D02*
G37*
G36*
X0229022Y0188779D02*
X0228921Y0188743D01*
X0228833Y0188683D01*
X0228756Y0188600D01*
X0228691Y0188492D01*
X0228638Y0188361D01*
X0228596Y0188206D01*
X0228567Y0188027D01*
X0228549Y0187824D01*
X0228543Y0187598D01*
X0227362D01*
X0227356Y0187824D01*
X0227339Y0188027D01*
X0227309Y0188206D01*
X0227268Y0188361D01*
X0227215Y0188492D01*
X0227150Y0188600D01*
X0227073Y0188683D01*
X0226984Y0188743D01*
X0226884Y0188779D01*
X0226772Y0188791D01*
X0229134D01*
X0229022Y0188779D01*
D02*
G37*
G36*
X0129541Y0196667D02*
X0129513Y0196702D01*
X0129430Y0196733D01*
X0129293Y0196760D01*
X0129100Y0196784D01*
X0128548Y0196821D01*
X0126785Y0196850D01*
Y0199606D01*
X0127308Y0199608D01*
X0129513Y0199755D01*
X0129541Y0199790D01*
Y0196667D01*
D02*
G37*
G36*
X0169836Y0193687D02*
Y0188287D01*
X0170019Y0187366D01*
X0170541Y0186584D01*
X0174057Y0183068D01*
X0173879Y0182568D01*
X0168819D01*
X0167851Y0182376D01*
X0167031Y0181828D01*
X0166482Y0181007D01*
X0166290Y0180039D01*
Y0177047D01*
X0166482Y0176079D01*
X0167031Y0175259D01*
X0167558Y0174907D01*
Y0174306D01*
X0167031Y0173953D01*
X0166482Y0173133D01*
X0166290Y0172165D01*
Y0169173D01*
X0166482Y0168205D01*
X0167031Y0167385D01*
X0167558Y0167033D01*
Y0166432D01*
X0167031Y0166079D01*
X0166768Y0165686D01*
X0166237Y0165791D01*
X0166109Y0166435D01*
X0165609Y0167183D01*
X0164860Y0167684D01*
X0163976Y0167859D01*
X0163599Y0168294D01*
X0163602Y0168307D01*
Y0171457D01*
X0163526Y0171841D01*
X0163308Y0172166D01*
X0162982Y0172384D01*
X0162598Y0172460D01*
X0159905D01*
X0159843Y0172504D01*
X0159378Y0172901D01*
X0158007Y0174272D01*
Y0177854D01*
X0157870Y0178546D01*
X0157478Y0179132D01*
X0156892Y0179523D01*
X0156781Y0179545D01*
X0155663Y0180663D01*
X0155142Y0181011D01*
X0154528Y0181133D01*
X0154527Y0181133D01*
X0152303D01*
X0151961Y0181065D01*
X0150783D01*
X0150347Y0180979D01*
X0149977Y0180732D01*
X0149730Y0180362D01*
X0149644Y0179926D01*
Y0179129D01*
X0149730Y0178693D01*
X0149830Y0178543D01*
X0149730Y0178394D01*
X0149644Y0177958D01*
Y0177160D01*
X0149701Y0176873D01*
X0149644Y0176775D01*
X0149406Y0176537D01*
X0149308Y0176480D01*
X0149021Y0176538D01*
X0148223D01*
X0147788Y0176451D01*
X0147638Y0176351D01*
X0147488Y0176451D01*
X0147052Y0176538D01*
X0146255D01*
X0145819Y0176451D01*
X0145669Y0176351D01*
X0145519Y0176451D01*
X0145084Y0176538D01*
X0144286D01*
X0143851Y0176451D01*
X0143701Y0176351D01*
X0143551Y0176451D01*
X0143115Y0176538D01*
X0142318D01*
X0141882Y0176451D01*
X0141732Y0176351D01*
X0141583Y0176451D01*
X0141147Y0176538D01*
X0140349D01*
X0140062Y0176480D01*
X0139964Y0176537D01*
X0139726Y0176775D01*
X0139670Y0176873D01*
X0139727Y0177160D01*
Y0177958D01*
X0139640Y0178394D01*
X0139540Y0178543D01*
X0139640Y0178693D01*
X0139727Y0179129D01*
Y0179926D01*
X0139640Y0180362D01*
X0139393Y0180732D01*
X0139023Y0180979D01*
X0138588Y0181065D01*
X0135546D01*
X0135364Y0181215D01*
Y0181777D01*
X0135546Y0181927D01*
X0138588D01*
X0139023Y0182014D01*
X0139393Y0182261D01*
X0139640Y0182630D01*
X0139727Y0183066D01*
Y0183863D01*
X0139640Y0184299D01*
X0139540Y0184449D01*
X0139640Y0184599D01*
X0139727Y0185034D01*
Y0185832D01*
X0139656Y0186184D01*
X0140128Y0186499D01*
X0140349Y0186454D01*
X0141147D01*
X0141583Y0186541D01*
X0141732Y0186641D01*
X0141882Y0186541D01*
X0142318Y0186454D01*
X0143115D01*
X0143551Y0186541D01*
X0143701Y0186641D01*
X0143851Y0186541D01*
X0144286Y0186454D01*
X0145084D01*
X0145519Y0186541D01*
X0145669Y0186641D01*
X0145819Y0186541D01*
X0146255Y0186454D01*
X0147052D01*
X0147488Y0186541D01*
X0147638Y0186641D01*
X0147788Y0186541D01*
X0148223Y0186454D01*
X0149021D01*
X0149308Y0186512D01*
X0149406Y0186455D01*
X0149644Y0186217D01*
X0149701Y0186119D01*
X0149644Y0185832D01*
Y0185034D01*
X0149730Y0184599D01*
X0149830Y0184449D01*
X0149730Y0184299D01*
X0149644Y0183863D01*
Y0183066D01*
X0149730Y0182630D01*
X0149977Y0182261D01*
X0150347Y0182014D01*
X0150783Y0181927D01*
X0151961D01*
X0152303Y0181859D01*
X0156126D01*
X0156143Y0181833D01*
X0156892Y0181332D01*
X0157776Y0181156D01*
X0158659Y0181332D01*
X0159408Y0181833D01*
X0159908Y0182581D01*
X0160084Y0183465D01*
X0159908Y0184348D01*
X0159408Y0185097D01*
X0158659Y0185597D01*
X0157776Y0185773D01*
X0156892Y0185597D01*
X0156143Y0185097D01*
X0156126Y0185070D01*
X0154963D01*
Y0185832D01*
X0154876Y0186268D01*
X0154629Y0186637D01*
X0154260Y0186884D01*
X0153824Y0186971D01*
X0150783D01*
X0150495Y0186914D01*
X0150398Y0186970D01*
X0150159Y0187208D01*
X0150103Y0187306D01*
X0150160Y0187593D01*
Y0190635D01*
X0150073Y0191071D01*
X0149826Y0191440D01*
X0149744Y0191495D01*
X0149660Y0192118D01*
X0150525Y0192983D01*
X0153742D01*
X0153778Y0192977D01*
X0153821Y0192967D01*
X0153858Y0192956D01*
X0153892Y0192942D01*
X0153915Y0192931D01*
X0154001Y0192873D01*
X0154038Y0192844D01*
X0154075Y0192824D01*
X0154629Y0192454D01*
X0155512Y0192279D01*
X0156395Y0192454D01*
X0157144Y0192955D01*
X0157644Y0193703D01*
X0157820Y0194587D01*
X0157675Y0195315D01*
X0157812Y0195529D01*
X0158277Y0195726D01*
X0158550Y0195672D01*
X0158557Y0195670D01*
X0158560Y0195670D01*
X0158661Y0195650D01*
X0162598D01*
X0162754Y0195681D01*
X0162773Y0195681D01*
X0162793Y0195689D01*
X0162982Y0195726D01*
X0163015Y0195748D01*
X0164144Y0195820D01*
X0167703D01*
X0169836Y0193687D01*
D02*
G37*
G36*
X0133479Y0199755D02*
X0133562Y0199724D01*
X0133700Y0199696D01*
X0133893Y0199672D01*
X0134444Y0199636D01*
X0136207Y0199606D01*
Y0196850D01*
X0135684Y0196849D01*
X0133479Y0196702D01*
X0133452Y0196667D01*
Y0199790D01*
X0133479Y0199755D01*
D02*
G37*
G36*
X0162609D02*
X0162680Y0199724D01*
X0162799Y0199696D01*
X0162966Y0199672D01*
X0163441Y0199636D01*
X0164961Y0199606D01*
Y0196850D01*
X0164509Y0196849D01*
X0162680Y0196733D01*
X0162609Y0196702D01*
X0162585Y0196667D01*
Y0199790D01*
X0162609Y0199755D01*
D02*
G37*
G36*
X0158674Y0196667D02*
X0158647Y0196702D01*
X0158564Y0196733D01*
X0158426Y0196760D01*
X0158233Y0196784D01*
X0157682Y0196821D01*
X0155919Y0196850D01*
Y0199606D01*
X0156442Y0199608D01*
X0158647Y0199755D01*
X0158674Y0199790D01*
Y0196667D01*
D02*
G37*
G36*
X0123196Y0195656D02*
X0122825Y0195278D01*
X0121734Y0194000D01*
X0121559Y0193738D01*
X0121422Y0193500D01*
X0121325Y0193286D01*
X0121266Y0193094D01*
X0121247Y0192926D01*
X0117349Y0195644D01*
X0117594Y0195521D01*
X0117870Y0195468D01*
X0118179Y0195487D01*
X0118521Y0195576D01*
X0118894Y0195737D01*
X0119300Y0195968D01*
X0119738Y0196271D01*
X0120209Y0196644D01*
X0120712Y0197089D01*
X0121247Y0197605D01*
X0123196Y0195656D01*
D02*
G37*
G36*
X0136843Y0193493D02*
X0136774Y0193406D01*
X0136714Y0193315D01*
X0136661Y0193219D01*
X0136617Y0193118D01*
X0136580Y0193012D01*
X0136552Y0192901D01*
X0136532Y0192785D01*
X0136520Y0192665D01*
X0136516Y0192539D01*
X0135531D01*
X0135528Y0192665D01*
X0135515Y0192785D01*
X0135495Y0192901D01*
X0135467Y0193012D01*
X0135431Y0193118D01*
X0135386Y0193219D01*
X0135334Y0193315D01*
X0135273Y0193406D01*
X0135205Y0193493D01*
X0135128Y0193574D01*
X0136919D01*
X0136843Y0193493D01*
D02*
G37*
G36*
X0128507Y0195818D02*
X0129004Y0195785D01*
X0129068Y0195777D01*
X0129144Y0195726D01*
X0129416Y0195672D01*
X0129423Y0195670D01*
X0129426Y0195670D01*
X0129528Y0195650D01*
X0133465D01*
X0133478Y0195653D01*
X0133671Y0195521D01*
X0133861Y0195219D01*
X0133715Y0194488D01*
X0133891Y0193605D01*
X0134391Y0192856D01*
X0134468Y0192805D01*
X0134474Y0192797D01*
X0134485Y0192776D01*
X0134495Y0192753D01*
X0134504Y0192725D01*
X0134513Y0192691D01*
X0134518Y0192661D01*
Y0186459D01*
X0134516Y0186354D01*
X0134512Y0186294D01*
X0134494Y0186268D01*
X0134407Y0185832D01*
Y0185560D01*
X0134169Y0185358D01*
X0133907Y0185281D01*
X0133891Y0185294D01*
X0133694Y0185492D01*
X0133530Y0186316D01*
X0133030Y0187065D01*
X0132281Y0187566D01*
X0131398Y0187741D01*
X0130514Y0187566D01*
X0129766Y0187065D01*
X0129456Y0186602D01*
X0128956Y0186754D01*
Y0187795D01*
X0128880Y0188179D01*
X0128662Y0188505D01*
X0128337Y0188722D01*
X0127953Y0188799D01*
X0125591D01*
X0125206Y0188722D01*
X0125105Y0188655D01*
X0124513Y0188617D01*
X0122406D01*
X0122348Y0188621D01*
X0122177Y0188642D01*
X0122135Y0188650D01*
X0121969Y0188899D01*
X0121644Y0189116D01*
X0121505Y0189144D01*
X0121495Y0189148D01*
X0121477Y0189149D01*
X0121260Y0189192D01*
X0117323D01*
X0117082Y0189145D01*
X0116686Y0189373D01*
X0116582Y0189479D01*
Y0191623D01*
X0116686Y0191729D01*
X0117082Y0191958D01*
X0117323Y0191910D01*
X0119156D01*
X0119291Y0191883D01*
X0119882D01*
X0120018Y0191910D01*
X0121260D01*
X0121405Y0191939D01*
X0121423Y0191938D01*
X0121443Y0191946D01*
X0121515Y0191961D01*
X0121521Y0191961D01*
X0121524Y0191962D01*
X0121644Y0191986D01*
X0121783Y0192079D01*
X0121788Y0192081D01*
X0121792Y0192085D01*
X0121969Y0192204D01*
X0122066Y0192349D01*
X0122070Y0192352D01*
X0122072Y0192358D01*
X0122187Y0192529D01*
X0122220Y0192695D01*
X0122227Y0192711D01*
X0122227Y0192733D01*
X0122242Y0192805D01*
X0122244Y0192811D01*
X0122245Y0192820D01*
X0122263Y0192913D01*
Y0192923D01*
X0122266Y0192930D01*
X0122316Y0193042D01*
X0122412Y0193208D01*
X0122535Y0193392D01*
X0123386Y0194390D01*
X0124817Y0195820D01*
X0128395D01*
X0128507Y0195818D01*
D02*
G37*
G36*
X0146247Y0193406D02*
X0146135Y0193402D01*
X0146026Y0193389D01*
X0145918Y0193368D01*
X0145813Y0193337D01*
X0145710Y0193297D01*
X0145610Y0193247D01*
X0145511Y0193189D01*
X0145415Y0193122D01*
X0145321Y0193045D01*
X0145230Y0192959D01*
X0144534Y0193655D01*
X0144620Y0193747D01*
X0144696Y0193840D01*
X0144764Y0193937D01*
X0144822Y0194035D01*
X0144872Y0194135D01*
X0144912Y0194238D01*
X0144943Y0194343D01*
X0144964Y0194451D01*
X0144977Y0194560D01*
X0144980Y0194672D01*
X0146247Y0193406D01*
D02*
G37*
G36*
X0127499Y0200658D02*
X0127472Y0200637D01*
X0123819D01*
X0122897Y0200453D01*
X0122116Y0199931D01*
X0119861Y0197677D01*
X0119564Y0197414D01*
X0119141Y0197078D01*
X0118765Y0196818D01*
X0118510Y0196673D01*
X0117323D01*
X0116939Y0196596D01*
X0116613Y0196379D01*
X0116396Y0196053D01*
X0116319Y0195669D01*
Y0195148D01*
X0115819Y0195067D01*
X0114892Y0195994D01*
X0114111Y0196517D01*
X0113189Y0196700D01*
X0109055D01*
X0108919Y0196673D01*
X0107087D01*
X0106703Y0196596D01*
X0106377Y0196379D01*
X0106159Y0196053D01*
X0106083Y0195669D01*
Y0192913D01*
X0106159Y0192529D01*
X0106377Y0192204D01*
X0106703Y0191986D01*
X0107087Y0191910D01*
X0108919D01*
X0109055Y0191883D01*
X0111765D01*
Y0189479D01*
X0111660Y0189373D01*
X0111265Y0189145D01*
X0111024Y0189192D01*
X0107087D01*
X0106703Y0189116D01*
X0106377Y0188899D01*
X0106159Y0188573D01*
X0106083Y0188189D01*
Y0185433D01*
X0106159Y0185049D01*
X0106377Y0184723D01*
X0106703Y0184506D01*
X0107087Y0184430D01*
X0111024D01*
X0111265Y0184477D01*
X0111660Y0184249D01*
X0111765Y0184143D01*
Y0180118D01*
X0111792Y0179982D01*
Y0177953D01*
X0111868Y0177569D01*
X0112086Y0177243D01*
X0112411Y0177026D01*
X0112795Y0176949D01*
X0115945D01*
X0116117Y0176983D01*
X0116139Y0176984D01*
X0116156Y0176991D01*
X0116329Y0177026D01*
X0116493Y0177135D01*
X0116499Y0177138D01*
X0116503Y0177142D01*
X0116655Y0177243D01*
X0116768Y0177413D01*
X0116772Y0177418D01*
X0116775Y0177423D01*
X0116872Y0177569D01*
X0116873Y0177572D01*
X0116897Y0177580D01*
X0117112Y0177630D01*
X0117393Y0177672D01*
X0117925Y0177710D01*
X0118946D01*
X0119058Y0177708D01*
X0119555Y0177675D01*
X0119619Y0177667D01*
X0119695Y0177616D01*
X0119967Y0177562D01*
X0119974Y0177560D01*
X0119977Y0177560D01*
X0120079Y0177540D01*
X0124016D01*
X0124117Y0177560D01*
X0124120Y0177560D01*
X0124127Y0177562D01*
X0124354Y0177607D01*
X0125891Y0177710D01*
X0128136D01*
X0128694Y0177152D01*
Y0174311D01*
X0128877Y0173389D01*
X0129399Y0172608D01*
X0133025Y0168983D01*
Y0164885D01*
X0132955Y0164161D01*
X0132887Y0163798D01*
X0132800Y0163460D01*
X0132698Y0163160D01*
X0132644Y0163038D01*
X0131657D01*
X0131595Y0163051D01*
X0130610D01*
X0130548Y0163038D01*
X0129921D01*
X0129000Y0162855D01*
X0128710Y0162661D01*
X0128706Y0162662D01*
X0128592Y0162738D01*
X0128208Y0162814D01*
X0122858D01*
X0122755Y0163332D01*
X0122717Y0163423D01*
X0122698Y0163520D01*
X0122643Y0163602D01*
X0122605Y0163694D01*
X0122300Y0164149D01*
X0122230Y0164219D01*
X0122176Y0164302D01*
X0122093Y0164356D01*
X0122023Y0164426D01*
X0121568Y0164731D01*
X0121476Y0164769D01*
X0121394Y0164824D01*
X0121297Y0164843D01*
X0121206Y0164881D01*
X0120668Y0164988D01*
X0120668Y0164988D01*
X0120569D01*
X0120472Y0165007D01*
X0120376Y0164988D01*
X0120277D01*
X0119739Y0164881D01*
X0119648Y0164843D01*
X0119551Y0164824D01*
X0119468Y0164769D01*
X0119377Y0164731D01*
X0118921Y0164426D01*
X0118851Y0164356D01*
X0118769Y0164302D01*
X0118714Y0164219D01*
X0118645Y0164149D01*
X0118340Y0163694D01*
X0118302Y0163602D01*
X0118247Y0163520D01*
X0118228Y0163423D01*
X0118190Y0163332D01*
X0118083Y0162794D01*
X0118083Y0162794D01*
Y0162695D01*
X0118064Y0162598D01*
X0118083Y0162502D01*
Y0162403D01*
X0118190Y0161865D01*
X0118228Y0161774D01*
X0118247Y0161677D01*
X0118302Y0161594D01*
X0118340Y0161503D01*
X0118645Y0161047D01*
X0118714Y0160977D01*
X0118769Y0160895D01*
X0118852Y0160840D01*
X0118921Y0160771D01*
X0119377Y0160466D01*
X0119468Y0160428D01*
X0119551Y0160373D01*
X0119648Y0160354D01*
X0119739Y0160316D01*
X0120277Y0160209D01*
X0120277Y0160209D01*
X0120376D01*
X0120472Y0160190D01*
X0120569Y0160209D01*
X0120668D01*
X0121193Y0160313D01*
X0121207Y0160316D01*
X0121495Y0160186D01*
X0121600Y0160096D01*
X0121693Y0159971D01*
Y0159449D01*
X0121769Y0159065D01*
X0121332Y0158893D01*
X0121222Y0158859D01*
X0120749Y0159332D01*
X0120261Y0159658D01*
X0119685Y0159773D01*
X0114567D01*
X0113991Y0159658D01*
X0113503Y0159332D01*
X0110747Y0156576D01*
X0110420Y0156088D01*
X0110306Y0155512D01*
Y0130315D01*
X0110236D01*
X0110306Y0130245D01*
Y0129374D01*
X0110306Y0129366D01*
X0110299Y0129290D01*
X0110254Y0129223D01*
X0110178Y0128839D01*
Y0127854D01*
X0110254Y0127470D01*
X0110288Y0127419D01*
X0110306Y0127159D01*
Y0126681D01*
X0110215Y0126545D01*
X0110211Y0126541D01*
X0110208Y0126535D01*
X0110097Y0126368D01*
X0110063Y0126199D01*
X0110055Y0126182D01*
X0110055Y0126160D01*
X0110020Y0125984D01*
Y0123622D01*
X0110097Y0123238D01*
X0110314Y0122912D01*
Y0122912D01*
X0109055Y0121653D01*
X0101204D01*
Y0201158D01*
X0127329D01*
X0127499Y0200658D01*
D02*
G37*
G36*
X0154670Y0193623D02*
X0154582Y0193694D01*
X0154491Y0193757D01*
X0154395Y0193813D01*
X0154295Y0193862D01*
X0154191Y0193903D01*
X0154083Y0193936D01*
X0153971Y0193963D01*
X0153854Y0193981D01*
X0153734Y0193992D01*
X0153609Y0193996D01*
X0153527Y0194980D01*
X0153653Y0194985D01*
X0153773Y0194998D01*
X0153888Y0195019D01*
X0153997Y0195049D01*
X0154101Y0195088D01*
X0154198Y0195135D01*
X0154290Y0195191D01*
X0154376Y0195255D01*
X0154457Y0195328D01*
X0154532Y0195409D01*
X0154670Y0193623D01*
D02*
G37*
G36*
X0236646Y0173808D02*
X0236577Y0173721D01*
X0236517Y0173630D01*
X0236464Y0173534D01*
X0236420Y0173433D01*
X0236384Y0173327D01*
X0236355Y0173216D01*
X0236335Y0173100D01*
X0236323Y0172980D01*
X0236319Y0172854D01*
X0235335D01*
X0235331Y0172980D01*
X0235318Y0173100D01*
X0235298Y0173216D01*
X0235270Y0173327D01*
X0235234Y0173433D01*
X0235189Y0173534D01*
X0235137Y0173630D01*
X0235076Y0173721D01*
X0235008Y0173808D01*
X0234931Y0173889D01*
X0236722D01*
X0236646Y0173808D01*
D02*
G37*
G36*
X0149105Y0174401D02*
X0149111Y0174231D01*
X0149158Y0174040D01*
X0149245Y0173828D01*
X0149372Y0173595D01*
X0149539Y0173341D01*
X0149747Y0173066D01*
X0149976Y0172804D01*
X0150017Y0172775D01*
X0150094Y0172727D01*
X0150165Y0172689D01*
X0150233Y0172662D01*
X0150295Y0172644D01*
X0150352Y0172636D01*
X0150224Y0172521D01*
X0150284Y0172452D01*
X0150613Y0172113D01*
X0149525Y0171252D01*
X0149337Y0171437D01*
X0149174Y0171580D01*
X0149018Y0171441D01*
X0149017Y0171503D01*
X0149005Y0171569D01*
X0148982Y0171640D01*
X0148948Y0171715D01*
X0148904Y0171794D01*
X0148871Y0171845D01*
X0148713Y0171983D01*
X0148589Y0172071D01*
X0148478Y0172139D01*
X0148380Y0172187D01*
X0148295Y0172217D01*
X0148223Y0172226D01*
X0149139Y0174549D01*
X0149105Y0174401D01*
D02*
G37*
G36*
X0140231Y0172894D02*
X0140221Y0172987D01*
X0140191Y0173071D01*
X0140141Y0173145D01*
X0140071Y0173209D01*
X0139981Y0173263D01*
X0139872Y0173307D01*
X0139742Y0173342D01*
X0139593Y0173366D01*
X0139424Y0173381D01*
X0139234Y0173386D01*
Y0174370D01*
X0139424Y0174375D01*
X0139593Y0174390D01*
X0139742Y0174414D01*
X0139872Y0174449D01*
X0139981Y0174493D01*
X0140071Y0174547D01*
X0140141Y0174611D01*
X0140191Y0174685D01*
X0140221Y0174769D01*
X0140231Y0174862D01*
Y0172894D01*
D02*
G37*
G36*
X0153827Y0177023D02*
X0153747Y0176964D01*
X0153676Y0176894D01*
X0153615Y0176811D01*
X0153563Y0176715D01*
X0153520Y0176606D01*
X0153487Y0176485D01*
X0153464Y0176351D01*
X0153450Y0176205D01*
X0153445Y0176045D01*
X0152461D01*
X0152456Y0176236D01*
X0152441Y0176406D01*
X0152416Y0176556D01*
X0152382Y0176686D01*
X0152338Y0176796D01*
X0152284Y0176885D01*
X0152219Y0176955D01*
X0152146Y0177004D01*
X0152062Y0177033D01*
X0151969Y0177042D01*
X0153916Y0177068D01*
X0153827Y0177023D01*
D02*
G37*
G36*
X0228790Y0173826D02*
X0228739Y0173754D01*
X0228693Y0173675D01*
X0228653Y0173588D01*
X0228620Y0173493D01*
X0228592Y0173390D01*
X0228571Y0173279D01*
X0228555Y0173161D01*
X0228546Y0173034D01*
X0228543Y0172900D01*
X0227362D01*
X0227359Y0173034D01*
X0227335Y0173279D01*
X0227313Y0173390D01*
X0227286Y0173493D01*
X0227252Y0173588D01*
X0227213Y0173675D01*
X0227167Y0173754D01*
X0227115Y0173826D01*
X0227057Y0173889D01*
X0228848D01*
X0228790Y0173826D01*
D02*
G37*
G36*
X0139972Y0170898D02*
X0140058Y0170829D01*
X0140149Y0170769D01*
X0140246Y0170716D01*
X0140347Y0170672D01*
X0140453Y0170635D01*
X0140563Y0170607D01*
X0140679Y0170587D01*
X0140800Y0170575D01*
X0140925Y0170571D01*
Y0169587D01*
X0140800Y0169583D01*
X0140679Y0169571D01*
X0140563Y0169550D01*
X0140453Y0169522D01*
X0140347Y0169486D01*
X0140246Y0169441D01*
X0140149Y0169389D01*
X0140058Y0169328D01*
X0139972Y0169260D01*
X0139890Y0169183D01*
Y0170974D01*
X0139972Y0170898D01*
D02*
G37*
G36*
X0155615Y0167317D02*
X0155630Y0167148D01*
X0155655Y0166999D01*
X0155689Y0166869D01*
X0155733Y0166760D01*
X0155787Y0166670D01*
X0155851Y0166600D01*
X0155925Y0166550D01*
X0156009Y0166520D01*
X0156102Y0166510D01*
X0154134D01*
X0154227Y0166520D01*
X0154311Y0166550D01*
X0154385Y0166600D01*
X0154449Y0166670D01*
X0154503Y0166760D01*
X0154547Y0166869D01*
X0154582Y0166999D01*
X0154606Y0167148D01*
X0154621Y0167317D01*
X0154626Y0167507D01*
X0155610D01*
X0155615Y0167317D01*
D02*
G37*
G36*
X0153950Y0166242D02*
X0154121Y0166240D01*
Y0164862D01*
X0153950Y0164860D01*
Y0164580D01*
X0153936Y0164634D01*
X0153895Y0164681D01*
X0153826Y0164724D01*
X0153729Y0164761D01*
X0153605Y0164792D01*
X0153454Y0164817D01*
X0153372Y0164826D01*
X0153239Y0164817D01*
X0153087Y0164792D01*
X0152963Y0164761D01*
X0152867Y0164724D01*
X0152798Y0164681D01*
X0152757Y0164634D01*
X0152743Y0164580D01*
Y0164860D01*
X0152572Y0164862D01*
Y0166240D01*
X0152743Y0166242D01*
Y0166522D01*
X0152757Y0166469D01*
X0152798Y0166421D01*
X0152867Y0166378D01*
X0152963Y0166342D01*
X0153087Y0166311D01*
X0153239Y0166285D01*
X0153321Y0166276D01*
X0153454Y0166285D01*
X0153605Y0166311D01*
X0153729Y0166342D01*
X0153826Y0166378D01*
X0153895Y0166421D01*
X0153936Y0166469D01*
X0153950Y0166523D01*
Y0166242D01*
D02*
G37*
G36*
X0152269Y0167639D02*
X0152307Y0167198D01*
X0152340Y0167018D01*
X0152384Y0166867D01*
X0152436Y0166743D01*
X0152499Y0166647D01*
X0152570Y0166578D01*
X0152652Y0166536D01*
X0152743Y0166522D01*
X0150407D01*
X0150498Y0166536D01*
X0150579Y0166578D01*
X0150651Y0166647D01*
X0150713Y0166743D01*
X0150766Y0166867D01*
X0150809Y0167018D01*
X0150843Y0167198D01*
X0150867Y0167404D01*
X0150881Y0167639D01*
X0150886Y0167900D01*
X0152264D01*
X0152269Y0167639D01*
D02*
G37*
G36*
X0158622Y0172227D02*
X0159226Y0171711D01*
X0159489Y0171526D01*
X0159725Y0171389D01*
X0159934Y0171300D01*
X0160117Y0171261D01*
X0160274Y0171269D01*
X0160404Y0171326D01*
X0160508Y0171432D01*
X0158686Y0168823D01*
X0158757Y0168962D01*
X0158786Y0169120D01*
X0158775Y0169296D01*
X0158724Y0169491D01*
X0158632Y0169704D01*
X0158499Y0169936D01*
X0158325Y0170187D01*
X0158111Y0170456D01*
X0157856Y0170744D01*
X0157561Y0171050D01*
X0158281Y0172557D01*
X0158622Y0172227D01*
D02*
G37*
G36*
X0162055Y0168304D02*
X0161921Y0168257D01*
X0161803Y0168178D01*
X0161701Y0168068D01*
X0161614Y0167926D01*
X0161543Y0167753D01*
X0161488Y0167548D01*
X0161457Y0167359D01*
X0161478Y0167089D01*
X0161512Y0166916D01*
X0161554Y0166774D01*
X0161604Y0166664D01*
X0161661Y0166585D01*
X0161726Y0166538D01*
X0161798Y0166522D01*
X0159462D01*
X0159534Y0166538D01*
X0159599Y0166585D01*
X0159656Y0166664D01*
X0159705Y0166774D01*
X0159747Y0166916D01*
X0159782Y0167089D01*
X0159808Y0167294D01*
X0159810Y0167320D01*
X0159772Y0167548D01*
X0159717Y0167753D01*
X0159646Y0167926D01*
X0159559Y0168068D01*
X0159457Y0168178D01*
X0159339Y0168257D01*
X0159205Y0168304D01*
X0159055Y0168320D01*
X0162205D01*
X0162055Y0168304D01*
D02*
G37*
G36*
X0236420Y0186414D02*
X0236445Y0186170D01*
X0236466Y0186059D01*
X0236494Y0185956D01*
X0236527Y0185861D01*
X0236567Y0185774D01*
X0236613Y0185695D01*
X0236665Y0185623D01*
X0236722Y0185559D01*
X0234931D01*
X0234989Y0185623D01*
X0235041Y0185695D01*
X0235087Y0185774D01*
X0235126Y0185861D01*
X0235160Y0185956D01*
X0235187Y0186059D01*
X0235209Y0186170D01*
X0235224Y0186288D01*
X0235233Y0186414D01*
X0235236Y0186548D01*
X0236417D01*
X0236420Y0186414D01*
D02*
G37*
G36*
X0228546D02*
X0228571Y0186170D01*
X0228592Y0186059D01*
X0228620Y0185956D01*
X0228653Y0185861D01*
X0228693Y0185774D01*
X0228739Y0185695D01*
X0228790Y0185623D01*
X0228848Y0185559D01*
X0227057D01*
X0227115Y0185623D01*
X0227167Y0185695D01*
X0227213Y0185774D01*
X0227252Y0185861D01*
X0227286Y0185956D01*
X0227313Y0186059D01*
X0227335Y0186170D01*
X0227350Y0186288D01*
X0227359Y0186414D01*
X0227362Y0186548D01*
X0228543D01*
X0228546Y0186414D01*
D02*
G37*
G36*
X0111011Y0187880D02*
X0111046Y0187779D01*
X0111106Y0187691D01*
X0111189Y0187614D01*
X0111297Y0187549D01*
X0111428Y0187496D01*
X0111583Y0187455D01*
X0111762Y0187425D01*
X0111965Y0187408D01*
X0112192Y0187402D01*
Y0186221D01*
X0111965Y0186215D01*
X0111762Y0186197D01*
X0111583Y0186167D01*
X0111428Y0186126D01*
X0111297Y0186073D01*
X0111189Y0186008D01*
X0111106Y0185931D01*
X0111046Y0185843D01*
X0111011Y0185742D01*
X0110999Y0185630D01*
Y0187992D01*
X0111011Y0187880D01*
D02*
G37*
G36*
X0136521Y0186756D02*
X0136535Y0186585D01*
X0136560Y0186435D01*
X0136594Y0186305D01*
X0136639Y0186195D01*
X0136693Y0186106D01*
X0136757Y0186037D01*
X0136831Y0185988D01*
X0136914Y0185959D01*
X0137008Y0185951D01*
X0135454Y0185924D01*
X0135468Y0185940D01*
X0135482Y0185975D01*
X0135493Y0186029D01*
X0135503Y0186102D01*
X0135519Y0186306D01*
X0135531Y0186941D01*
X0136516Y0186947D01*
X0136521Y0186756D01*
D02*
G37*
G36*
X0125603Y0185840D02*
X0125588Y0185875D01*
X0125541Y0185906D01*
X0125462Y0185933D01*
X0125352Y0185957D01*
X0125210Y0185978D01*
X0124832Y0186007D01*
X0124029Y0186024D01*
Y0187598D01*
X0124328Y0187600D01*
X0125352Y0187665D01*
X0125462Y0187689D01*
X0125541Y0187716D01*
X0125588Y0187747D01*
X0125603Y0187782D01*
Y0185840D01*
D02*
G37*
G36*
X0121263Y0188066D02*
X0121310Y0187968D01*
X0121389Y0187881D01*
X0121499Y0187806D01*
X0121641Y0187743D01*
X0121814Y0187691D01*
X0122019Y0187650D01*
X0122255Y0187621D01*
X0122522Y0187604D01*
X0122822Y0187598D01*
Y0186024D01*
X0122522Y0186018D01*
X0122019Y0185972D01*
X0121814Y0185931D01*
X0121641Y0185879D01*
X0121499Y0185816D01*
X0121389Y0185741D01*
X0121310Y0185654D01*
X0121263Y0185556D01*
X0121247Y0185446D01*
Y0188176D01*
X0121263Y0188066D01*
D02*
G37*
G36*
X0124030Y0181645D02*
X0124113Y0181614D01*
X0124251Y0181586D01*
X0124444Y0181562D01*
X0124995Y0181526D01*
X0126759Y0181496D01*
Y0178740D01*
X0126235Y0178738D01*
X0124030Y0178591D01*
X0124003Y0178556D01*
Y0181680D01*
X0124030Y0181645D01*
D02*
G37*
G36*
X0115959Y0181804D02*
X0116042Y0181740D01*
X0116180Y0181683D01*
X0116373Y0181633D01*
X0116621Y0181591D01*
X0116924Y0181557D01*
X0117696Y0181511D01*
X0117992Y0181507D01*
X0120064Y0181645D01*
X0120092Y0181680D01*
Y0178556D01*
X0120064Y0178591D01*
X0119982Y0178622D01*
X0119844Y0178650D01*
X0119651Y0178674D01*
X0119100Y0178711D01*
X0118094Y0178727D01*
X0117282Y0178671D01*
X0116924Y0178616D01*
X0116621Y0178547D01*
X0116373Y0178461D01*
X0116180Y0178361D01*
X0116042Y0178244D01*
X0115959Y0178113D01*
X0115932Y0177966D01*
Y0181877D01*
X0115959Y0181804D01*
D02*
G37*
G36*
X0115555Y0184109D02*
X0115688Y0182318D01*
X0115738Y0182125D01*
X0115795Y0181987D01*
X0115860Y0181904D01*
X0115932Y0181877D01*
X0112808D01*
X0112795Y0184633D01*
X0115551D01*
X0115555Y0184109D01*
D02*
G37*
G36*
X0252071Y0185682D02*
X0252083Y0185561D01*
X0252103Y0185445D01*
X0252132Y0185335D01*
X0252168Y0185229D01*
X0252212Y0185127D01*
X0252265Y0185031D01*
X0252325Y0184940D01*
X0252394Y0184854D01*
X0252470Y0184772D01*
X0250679Y0184772D01*
X0250756Y0184854D01*
X0250824Y0184940D01*
X0250885Y0185031D01*
X0250937Y0185127D01*
X0250982Y0185229D01*
X0251018Y0185335D01*
X0251046Y0185445D01*
X0251066Y0185561D01*
X0251079Y0185682D01*
X0251083Y0185807D01*
X0252067Y0185807D01*
X0252071Y0185682D01*
D02*
G37*
G36*
X0132680Y0185308D02*
X0132693Y0185199D01*
X0132715Y0185091D01*
X0132746Y0184986D01*
X0132786Y0184883D01*
X0132835Y0184783D01*
X0132894Y0184685D01*
X0132961Y0184588D01*
X0133038Y0184495D01*
X0133124Y0184403D01*
X0132428Y0183707D01*
X0132336Y0183793D01*
X0132242Y0183870D01*
X0132146Y0183937D01*
X0132048Y0183996D01*
X0131947Y0184045D01*
X0131844Y0184085D01*
X0131739Y0184116D01*
X0131632Y0184138D01*
X0131522Y0184150D01*
X0131410Y0184154D01*
X0132677Y0185420D01*
X0132680Y0185308D01*
D02*
G37*
D10*
X0140748Y0173878D02*
D03*
X0142717D02*
D03*
X0144685D02*
D03*
X0146653D02*
D03*
X0148622D02*
D03*
Y0189114D02*
D03*
X0146653D02*
D03*
X0144685D02*
D03*
X0142717D02*
D03*
X0140748D02*
D03*
D11*
X0137067Y0185433D02*
D03*
Y0183465D02*
D03*
Y0181496D02*
D03*
Y0179528D02*
D03*
Y0177559D02*
D03*
X0152303D02*
D03*
Y0179528D02*
D03*
Y0181496D02*
D03*
Y0183465D02*
D03*
Y0185433D02*
D03*
D12*
X0144685Y0181496D02*
D03*
D13*
X0160630Y0175787D02*
D03*
Y0169882D02*
D03*
X0160630Y0192323D02*
D03*
Y0198228D02*
D03*
X0131496Y0192323D02*
D03*
Y0198228D02*
D03*
X0122047Y0174213D02*
D03*
Y0180118D02*
D03*
D14*
X0160630Y0162008D02*
D03*
Y0165551D02*
D03*
X0155118Y0162008D02*
D03*
Y0165551D02*
D03*
X0151575Y0162008D02*
D03*
Y0165551D02*
D03*
X0164961Y0194685D02*
D03*
Y0198228D02*
D03*
X0126772Y0194685D02*
D03*
Y0198228D02*
D03*
Y0186811D02*
D03*
Y0190354D02*
D03*
Y0176575D02*
D03*
Y0180118D02*
D03*
X0134646Y0149803D02*
D03*
Y0146260D02*
D03*
Y0152559D02*
D03*
Y0156102D02*
D03*
D15*
X0263386Y0170276D02*
D03*
D16*
X0298819Y0108071D02*
D03*
X0290945D02*
D03*
X0283071D02*
D03*
X0275197D02*
D03*
X0267323D02*
D03*
X0259449D02*
D03*
X0251575D02*
D03*
X0243701D02*
D03*
X0235827D02*
D03*
X0227953D02*
D03*
X0220079D02*
D03*
X0212205D02*
D03*
X0204331D02*
D03*
X0196457D02*
D03*
X0188583D02*
D03*
X0180709D02*
D03*
Y0194291D02*
D03*
X0188583Y0194291D02*
D03*
X0196457Y0194291D02*
D03*
X0204331Y0194291D02*
D03*
X0212205D02*
D03*
X0220079D02*
D03*
X0227953D02*
D03*
X0235827Y0194291D02*
D03*
X0243701Y0194291D02*
D03*
X0251575D02*
D03*
X0259449D02*
D03*
X0267323D02*
D03*
X0275197Y0194291D02*
D03*
D17*
X0172835Y0123425D02*
D03*
Y0131299D02*
D03*
Y0139173D02*
D03*
Y0147047D02*
D03*
Y0154921D02*
D03*
Y0162795D02*
D03*
Y0170669D02*
D03*
Y0178543D02*
D03*
D18*
X0109055Y0194291D02*
D03*
Y0190551D02*
D03*
Y0186811D02*
D03*
X0119291D02*
D03*
Y0194291D02*
D03*
D19*
X0125452Y0158071D02*
D03*
Y0154134D02*
D03*
Y0148228D02*
D03*
X0125452Y0144291D02*
D03*
X0125452Y0146260D02*
D03*
Y0150197D02*
D03*
Y0152165D02*
D03*
Y0156102D02*
D03*
D20*
Y0141732D02*
D03*
Y0138583D02*
D03*
Y0160630D02*
D03*
Y0163779D02*
D03*
D21*
X0108465Y0179921D02*
D03*
X0114370D02*
D03*
D22*
X0131102Y0164646D02*
D03*
Y0161339D02*
D03*
Y0146378D02*
D03*
Y0149685D02*
D03*
Y0155984D02*
D03*
Y0152677D02*
D03*
D23*
X0137795Y0149606D02*
D03*
X0141732D02*
D03*
X0137795Y0153150D02*
D03*
X0141732D02*
D03*
X0119685Y0124803D02*
D03*
X0115748D02*
D03*
X0107874D02*
D03*
X0111811D02*
D03*
D24*
X0120866Y0107283D02*
D03*
Y0111614D02*
D03*
X0111417Y0107283D02*
D03*
Y0111614D02*
D03*
X0116142Y0107283D02*
D03*
Y0111614D02*
D03*
X0106693Y0107283D02*
D03*
Y0111614D02*
D03*
D25*
X0120866Y0115354D02*
D03*
Y0119291D02*
D03*
X0106693Y0115354D02*
D03*
Y0119291D02*
D03*
X0111417Y0115354D02*
D03*
Y0119291D02*
D03*
X0116142Y0115354D02*
D03*
Y0119291D02*
D03*
D26*
X0118976Y0128347D02*
D03*
X0115669D02*
D03*
X0108583D02*
D03*
X0111890D02*
D03*
D27*
X0133465Y0106228D02*
D03*
X0157087D02*
D03*
Y0120992D02*
D03*
X0133465D02*
D03*
D28*
X0122047Y0180118D02*
X0129134D01*
X0129921Y0160630D02*
X0133858D01*
X0185335Y0180020D02*
X0263878D01*
X0180709Y0184646D02*
X0185335Y0180020D01*
X0175886Y0184646D02*
X0180709D01*
X0172244Y0188287D02*
X0175886Y0184646D01*
X0172244Y0188287D02*
Y0194685D01*
X0168701Y0198228D02*
X0172244Y0194685D01*
X0164961Y0198228D02*
X0168701D01*
X0135433Y0162205D02*
Y0169980D01*
X0131102Y0174311D02*
X0135433Y0169980D01*
X0131102Y0174311D02*
Y0178150D01*
X0129134Y0180118D02*
X0131102Y0178150D01*
X0114173Y0186713D02*
Y0193307D01*
Y0180118D02*
Y0186713D01*
X0267323Y0183465D02*
Y0194291D01*
X0263878Y0180020D02*
X0267323Y0183465D01*
X0160630Y0198228D02*
X0164961D01*
X0131496D02*
X0160630D01*
X0126772D02*
X0131496D01*
X0123819D02*
X0126772D01*
X0119882Y0194291D02*
X0123819Y0198228D01*
X0119291Y0194291D02*
X0119882D01*
X0135433Y0162205D02*
X0138583D01*
X0133858Y0160630D02*
X0135433Y0162205D01*
X0114370Y0179921D02*
X0114567Y0180118D01*
X0122047D01*
X0114173D02*
X0114370Y0179921D01*
X0113189Y0194291D02*
X0114173Y0193307D01*
X0109055Y0194291D02*
X0113189D01*
X0143898Y0155512D02*
Y0168602D01*
X0147441Y0155512D02*
Y0168996D01*
D29*
X0125452Y0150197D02*
X0134252D01*
X0125452Y0152165D02*
X0134252D01*
X0121063Y0154134D02*
X0125452D01*
X0118898Y0156299D02*
X0121063Y0154134D01*
X0116142Y0156299D02*
X0118898D01*
X0114961Y0155118D02*
X0116142Y0156299D01*
X0114961Y0152362D02*
Y0155118D01*
Y0152362D02*
X0117126Y0150197D01*
X0125452D01*
X0137598Y0149803D02*
X0137795Y0149606D01*
X0134646Y0149803D02*
X0137598D01*
Y0152559D02*
X0137795Y0152756D01*
X0134646Y0152559D02*
X0137598D01*
X0117717Y0146850D02*
X0119095Y0148228D01*
X0125452D01*
X0117717Y0153543D02*
X0119095Y0152165D01*
X0125452D01*
X0134252Y0150197D02*
X0134646Y0149803D01*
X0134252Y0152165D02*
X0134646Y0152559D01*
D30*
X0251575Y0183465D02*
Y0194291D01*
X0115748Y0124803D02*
Y0139764D01*
X0141732Y0152953D02*
X0144095Y0155315D01*
X0111811Y0124803D02*
Y0155512D01*
X0235827Y0148819D02*
Y0174803D01*
X0202362Y0115354D02*
X0235827Y0148819D01*
X0174409Y0115354D02*
X0202362D01*
X0106693Y0111614D02*
Y0115354D01*
X0111417Y0111614D02*
Y0115354D01*
X0142717Y0189114D02*
Y0191339D01*
X0140945Y0193110D02*
X0142717Y0191339D01*
X0140945Y0193110D02*
Y0193110D01*
X0144685D02*
X0146260Y0194685D01*
X0144685Y0189114D02*
Y0193110D01*
X0149902Y0194488D02*
X0154429D01*
X0146653Y0191240D02*
X0149902Y0194488D01*
X0146653Y0189114D02*
Y0191240D01*
X0154429Y0194488D02*
X0154921Y0194980D01*
X0235827Y0108071D02*
Y0118504D01*
X0147244Y0155020D02*
Y0155118D01*
X0141732Y0149606D02*
X0141831D01*
X0144095Y0155315D02*
Y0156693D01*
X0141732Y0152756D02*
Y0152953D01*
X0142717Y0171358D02*
Y0173878D01*
X0141437Y0170079D02*
X0142717Y0171358D01*
X0138976Y0170079D02*
X0141437D01*
X0136024Y0185531D02*
Y0194488D01*
X0155118Y0165551D02*
Y0171063D01*
X0152953Y0173228D02*
X0155118Y0171063D01*
X0152953Y0173228D02*
Y0177461D01*
X0136063Y0173878D02*
X0140748D01*
X0133858Y0176083D02*
X0136063Y0173878D01*
X0133858Y0176083D02*
Y0182972D01*
X0131398Y0185433D02*
X0133858Y0182972D01*
X0144685Y0168799D02*
Y0173878D01*
X0146653Y0169390D02*
Y0173878D01*
X0220866Y0127559D02*
X0225984D01*
X0204331Y0111024D02*
X0220866Y0127559D01*
X0204331Y0108071D02*
Y0111024D01*
X0204331Y0185827D02*
Y0194291D01*
X0251575Y0183465D02*
Y0183858D01*
X0251575Y0183465D02*
X0251575Y0183465D01*
X0259449Y0186614D02*
Y0194291D01*
X0114567Y0158268D02*
X0119685D01*
X0111811Y0155512D02*
X0114567Y0158268D01*
X0121850Y0156102D02*
X0125452D01*
X0119685Y0158268D02*
X0121850Y0156102D01*
X0115748Y0139764D02*
X0120276Y0144291D01*
X0165284Y0106228D02*
X0174409Y0115354D01*
X0157087Y0106228D02*
X0165284D01*
X0133465D02*
X0157087D01*
X0147244Y0155118D02*
X0147638Y0155512D01*
X0120276Y0144291D02*
X0125452D01*
D31*
X0148770Y0172982D02*
X0150394Y0171358D01*
X0150295D02*
X0151575Y0170079D01*
Y0165551D02*
Y0170079D01*
X0150295Y0171358D02*
X0150394D01*
X0155118Y0165551D02*
X0155118Y0165551D01*
X0151575Y0165551D02*
X0155118D01*
D32*
X0105905Y0107480D02*
X0106693Y0106693D01*
X0154528Y0179528D02*
X0156201Y0177854D01*
X0152303Y0179528D02*
X0154528D01*
X0155905Y0181496D02*
X0159252Y0178150D01*
X0152303Y0181496D02*
X0155905D01*
X0144685D02*
X0152303D01*
X0138583Y0188189D02*
X0140650D01*
X0157776Y0183465D02*
X0157776Y0183465D01*
X0152303Y0183465D02*
X0157776D01*
X0103543Y0107480D02*
X0105905D01*
X0106693Y0106693D02*
Y0107283D01*
X0111417Y0103150D02*
Y0107283D01*
X0227953Y0145276D02*
Y0174803D01*
X0200394Y0117717D02*
X0227953Y0145276D01*
X0129134Y0117717D02*
X0200394D01*
X0114075Y0186811D02*
X0114173Y0186713D01*
X0109055Y0186811D02*
X0114075D01*
X0130315Y0141732D02*
X0133465Y0138583D01*
Y0128347D02*
Y0138583D01*
X0126772Y0121653D02*
X0133465Y0128347D01*
X0118504Y0121653D02*
X0126772D01*
X0116142Y0119291D02*
X0118504Y0121653D01*
X0127559Y0119291D02*
X0129134Y0117717D01*
X0120866Y0119291D02*
X0127559D01*
X0120866Y0111614D02*
Y0115354D01*
X0116142Y0111614D02*
Y0115354D01*
X0235827Y0184646D02*
Y0194291D01*
X0227953Y0184646D02*
Y0194291D01*
D33*
X0156201Y0173524D02*
Y0177854D01*
Y0173524D02*
X0159843Y0169882D01*
X0119291Y0186811D02*
X0126772D01*
X0159843Y0169882D02*
X0160630D01*
X0160630Y0165551D02*
X0163976D01*
X0160630D02*
X0160630Y0165551D01*
Y0169882D01*
D34*
X0141831Y0149606D02*
X0147244Y0155020D01*
D35*
X0109055Y0119291D02*
X0111417D01*
X0106693D02*
X0109055D01*
X0125452Y0160630D02*
X0125452Y0160630D01*
X0129921D01*
D36*
X0125452Y0141732D02*
X0130315D01*
D37*
X0120472Y0162598D02*
D03*
Y0139764D02*
D03*
D38*
X0106044Y0134153D02*
D03*
Y0168209D02*
D03*
D39*
X0122501Y0134153D02*
D03*
Y0168209D02*
D03*
D40*
X0219291Y0185039D02*
D03*
X0212992D02*
D03*
X0196063Y0184646D02*
D03*
X0190945D02*
D03*
X0118504Y0190551D02*
D03*
X0123228D02*
D03*
X0139370Y0157480D02*
D03*
X0303150Y0196851D02*
D03*
X0299213Y0188977D02*
D03*
X0303150Y0181103D02*
D03*
X0299213Y0173228D02*
D03*
X0303150Y0165354D02*
D03*
X0299213Y0157480D02*
D03*
X0303150Y0149606D02*
D03*
X0299213Y0141732D02*
D03*
X0303150Y0133858D02*
D03*
X0299213Y0125984D02*
D03*
X0303150Y0118110D02*
D03*
X0295276Y0196851D02*
D03*
X0291339Y0188977D02*
D03*
X0295276Y0181103D02*
D03*
X0291339Y0173228D02*
D03*
X0295276Y0165354D02*
D03*
X0291339Y0157480D02*
D03*
X0295276Y0149606D02*
D03*
X0291339Y0141732D02*
D03*
X0295276Y0133858D02*
D03*
X0291339Y0125984D02*
D03*
X0295276Y0118110D02*
D03*
X0287402Y0196851D02*
D03*
X0283465Y0188977D02*
D03*
X0287402Y0181103D02*
D03*
X0283465Y0173228D02*
D03*
X0287402Y0165354D02*
D03*
X0283465Y0157480D02*
D03*
X0287402Y0149606D02*
D03*
X0283465Y0141732D02*
D03*
X0287402Y0133858D02*
D03*
X0283465Y0125984D02*
D03*
X0287402Y0118110D02*
D03*
X0279528Y0181103D02*
D03*
X0275591Y0173228D02*
D03*
X0279528Y0165354D02*
D03*
X0275591Y0157480D02*
D03*
X0279528Y0149606D02*
D03*
X0275591Y0141732D02*
D03*
X0279528Y0133858D02*
D03*
X0275591Y0125984D02*
D03*
X0279528Y0118110D02*
D03*
X0271654Y0181103D02*
D03*
Y0165354D02*
D03*
X0267717Y0157480D02*
D03*
X0271654Y0149606D02*
D03*
X0267717Y0141732D02*
D03*
X0271654Y0133858D02*
D03*
X0267717Y0125984D02*
D03*
X0271654Y0118110D02*
D03*
X0259843Y0157480D02*
D03*
X0263780Y0149606D02*
D03*
X0259843Y0141732D02*
D03*
X0263780Y0133858D02*
D03*
X0259843Y0125984D02*
D03*
X0263780Y0118110D02*
D03*
X0251969Y0157480D02*
D03*
X0255906Y0149606D02*
D03*
X0251969Y0141732D02*
D03*
X0255906Y0133858D02*
D03*
X0251969Y0125984D02*
D03*
X0255906Y0118110D02*
D03*
X0248032Y0165354D02*
D03*
X0244095Y0157480D02*
D03*
X0248032Y0149606D02*
D03*
X0244095Y0141732D02*
D03*
X0248032Y0133858D02*
D03*
X0244095Y0125984D02*
D03*
X0248032Y0118110D02*
D03*
X0240158Y0165354D02*
D03*
Y0149606D02*
D03*
X0236221Y0141732D02*
D03*
X0240158Y0133858D02*
D03*
X0236221Y0125984D02*
D03*
X0240158Y0118110D02*
D03*
X0232284Y0149606D02*
D03*
Y0133858D02*
D03*
X0220473Y0173228D02*
D03*
X0224410Y0165354D02*
D03*
X0220473Y0157480D02*
D03*
Y0141732D02*
D03*
X0216536Y0165354D02*
D03*
Y0149606D02*
D03*
X0204725Y0173228D02*
D03*
Y0157480D02*
D03*
Y0141732D02*
D03*
Y0125984D02*
D03*
X0196851Y0173228D02*
D03*
X0200787Y0165354D02*
D03*
X0196851Y0157480D02*
D03*
X0200787Y0149606D02*
D03*
X0196851Y0141732D02*
D03*
X0200787Y0133858D02*
D03*
X0196851Y0125984D02*
D03*
X0188977Y0173228D02*
D03*
X0192913Y0165354D02*
D03*
X0188977Y0157480D02*
D03*
X0192913Y0149606D02*
D03*
X0188977Y0141732D02*
D03*
X0192913Y0133858D02*
D03*
X0188977Y0125984D02*
D03*
X0181103Y0173228D02*
D03*
X0185039Y0165354D02*
D03*
X0181103Y0157480D02*
D03*
X0185039Y0149606D02*
D03*
X0181103Y0141732D02*
D03*
X0185039Y0133858D02*
D03*
X0181103Y0125984D02*
D03*
X0173228Y0110236D02*
D03*
X0165354Y0173228D02*
D03*
Y0157480D02*
D03*
Y0141732D02*
D03*
Y0125984D02*
D03*
Y0110236D02*
D03*
X0161417Y0181103D02*
D03*
X0157480Y0157480D02*
D03*
X0161417Y0149606D02*
D03*
X0157480Y0141732D02*
D03*
X0161417Y0133858D02*
D03*
X0157480Y0125984D02*
D03*
Y0110236D02*
D03*
X0153543Y0149606D02*
D03*
X0149606Y0141732D02*
D03*
X0153543Y0133858D02*
D03*
X0149606Y0125984D02*
D03*
Y0110236D02*
D03*
X0145669Y0149606D02*
D03*
X0141732Y0141732D02*
D03*
X0145669Y0133858D02*
D03*
X0141732Y0125984D02*
D03*
Y0110236D02*
D03*
X0137795Y0133858D02*
D03*
X0133858Y0110236D02*
D03*
X0129921Y0133858D02*
D03*
X0125984Y0125984D02*
D03*
Y0110236D02*
D03*
X0110236Y0173228D02*
D03*
X0114173Y0165354D02*
D03*
X0235827Y0118504D02*
D03*
X0144685Y0181496D02*
D03*
X0140945Y0193110D02*
D03*
X0138583Y0188189D02*
D03*
X0146260Y0194685D02*
D03*
X0155512Y0194587D02*
D03*
X0157776Y0183465D02*
D03*
X0138976Y0170079D02*
D03*
X0103543Y0107480D02*
D03*
X0111417Y0103150D02*
D03*
X0136024Y0194488D02*
D03*
X0150295Y0171358D02*
D03*
X0131398Y0185433D02*
D03*
X0225984Y0127559D02*
D03*
X0204331Y0185827D02*
D03*
X0251575Y0183858D02*
D03*
X0259449Y0186614D02*
D03*
X0109055Y0119291D02*
D03*
X0163976Y0165551D02*
D03*
X0227953Y0174803D02*
D03*
X0235827D02*
D03*
Y0184646D02*
D03*
X0227953D02*
D03*
X0117717Y0146850D02*
D03*
Y0153543D02*
D03*
D41*
X0130315Y0141732D02*
D03*
X0138583Y0162205D02*
D03*
M02*
