G04 Layer_Physical_Order=2*
G04 Layer_Color=16711680*
%FSAX25Y25*%
%MOIN*%
G70*
G01*
G75*
%ADD30C,0.00984*%
%ADD32C,0.01181*%
%ADD33C,0.01575*%
%ADD35C,0.01968*%
%ADD37C,0.02756*%
%ADD38O,0.06299X0.03937*%
%ADD39O,0.08268X0.03937*%
%ADD40C,0.02559*%
%ADD41C,0.03543*%
%ADD42C,0.03150*%
G36*
X0150889Y0173127D02*
X0150913Y0172882D01*
X0150935Y0172772D01*
X0150962Y0172669D01*
X0150996Y0172574D01*
X0151035Y0172487D01*
X0151081Y0172407D01*
X0151133Y0172336D01*
X0151191Y0172272D01*
X0149400D01*
X0149458Y0172336D01*
X0149509Y0172407D01*
X0149555Y0172487D01*
X0149595Y0172574D01*
X0149628Y0172669D01*
X0149656Y0172772D01*
X0149677Y0172882D01*
X0149692Y0173001D01*
X0149702Y0173127D01*
X0149705Y0173261D01*
X0150886D01*
X0150889Y0173127D01*
D02*
G37*
G36*
X0150283Y0170079D02*
X0150196Y0170075D01*
X0150109Y0170061D01*
X0150021Y0170037D01*
X0149931Y0170003D01*
X0149840Y0169960D01*
X0149748Y0169907D01*
X0149655Y0169844D01*
X0149560Y0169771D01*
X0149464Y0169688D01*
X0149367Y0169595D01*
X0148532Y0170430D01*
X0148625Y0170527D01*
X0148781Y0170718D01*
X0148844Y0170811D01*
X0148897Y0170903D01*
X0148941Y0170994D01*
X0148974Y0171084D01*
X0148998Y0171172D01*
X0149012Y0171259D01*
X0149016Y0171345D01*
X0150283Y0170079D01*
D02*
G37*
G36*
X0138063Y0169183D02*
X0137999Y0169241D01*
X0137927Y0169293D01*
X0137848Y0169339D01*
X0137761Y0169378D01*
X0137666Y0169412D01*
X0137563Y0169439D01*
X0137452Y0169461D01*
X0137334Y0169476D01*
X0137208Y0169485D01*
X0137074Y0169488D01*
Y0170669D01*
X0137208Y0170672D01*
X0137452Y0170697D01*
X0137563Y0170718D01*
X0137666Y0170746D01*
X0137761Y0170779D01*
X0137848Y0170819D01*
X0137927Y0170865D01*
X0137999Y0170916D01*
X0138063Y0170974D01*
Y0169183D01*
D02*
G37*
G36*
X0236420Y0176572D02*
X0236445Y0176327D01*
X0236466Y0176216D01*
X0236494Y0176114D01*
X0236527Y0176019D01*
X0236567Y0175932D01*
X0236613Y0175852D01*
X0236665Y0175781D01*
X0236722Y0175717D01*
X0234931D01*
X0234989Y0175781D01*
X0235041Y0175852D01*
X0235087Y0175932D01*
X0235126Y0176019D01*
X0235160Y0176114D01*
X0235187Y0176216D01*
X0235209Y0176327D01*
X0235224Y0176446D01*
X0235233Y0176572D01*
X0235236Y0176706D01*
X0236417D01*
X0236420Y0176572D01*
D02*
G37*
G36*
X0104137Y0109249D02*
X0104161Y0109004D01*
X0104183Y0108894D01*
X0104210Y0108791D01*
X0104244Y0108696D01*
X0104283Y0108609D01*
X0104329Y0108529D01*
X0104381Y0108458D01*
X0104439Y0108394D01*
X0102648D01*
X0102706Y0108458D01*
X0102758Y0108529D01*
X0102803Y0108609D01*
X0102843Y0108696D01*
X0102876Y0108791D01*
X0102904Y0108894D01*
X0102925Y0109004D01*
X0102941Y0109123D01*
X0102950Y0109249D01*
X0102953Y0109383D01*
X0104134D01*
X0104137Y0109249D01*
D02*
G37*
G36*
X0307457Y0101204D02*
X0113440D01*
X0113193Y0101704D01*
X0113565Y0102260D01*
X0113742Y0103150D01*
X0113565Y0104039D01*
X0113061Y0104793D01*
X0113049Y0104801D01*
X0113045Y0104821D01*
X0113039Y0104884D01*
Y0116159D01*
X0117092Y0120212D01*
X0117443Y0120738D01*
X0117567Y0121358D01*
Y0139396D01*
X0117590Y0139404D01*
X0118164Y0139079D01*
X0118174Y0139027D01*
X0118213Y0138934D01*
X0118233Y0138836D01*
X0118288Y0138752D01*
X0118327Y0138660D01*
X0118327Y0138660D01*
X0118631Y0138204D01*
X0118702Y0138133D01*
X0118758Y0138049D01*
X0118842Y0137994D01*
X0118912Y0137923D01*
X0119368Y0137618D01*
X0119461Y0137580D01*
X0119545Y0137524D01*
X0119643Y0137504D01*
X0119736Y0137466D01*
X0120273Y0137359D01*
X0120374D01*
X0120472Y0137339D01*
X0120571Y0137359D01*
X0120671D01*
X0121209Y0137466D01*
X0121302Y0137504D01*
X0121400Y0137524D01*
X0121484Y0137580D01*
X0121576Y0137618D01*
X0121577Y0137618D01*
X0122032Y0137923D01*
X0122103Y0137994D01*
X0122187Y0138049D01*
X0122243Y0138133D01*
X0122314Y0138204D01*
X0122618Y0138660D01*
X0122657Y0138752D01*
X0122712Y0138836D01*
X0122732Y0138934D01*
X0122770Y0139027D01*
X0122877Y0139565D01*
Y0139665D01*
X0122897Y0139764D01*
X0122877Y0139862D01*
Y0139963D01*
X0122770Y0140500D01*
X0122732Y0140593D01*
X0122712Y0140692D01*
X0122657Y0140775D01*
X0122618Y0140868D01*
X0122618Y0140868D01*
X0122314Y0141324D01*
X0122243Y0141395D01*
X0122187Y0141478D01*
X0122103Y0141534D01*
X0122032Y0141605D01*
X0121576Y0141910D01*
X0121484Y0141948D01*
X0121400Y0142004D01*
X0121302Y0142023D01*
X0121209Y0142062D01*
X0120671Y0142169D01*
X0120661D01*
X0120512Y0142385D01*
X0120453Y0142600D01*
X0120449Y0142664D01*
X0122308Y0144523D01*
X0122660Y0145049D01*
X0122783Y0145669D01*
Y0149820D01*
X0127261Y0154298D01*
X0127735Y0154065D01*
X0127718Y0153937D01*
Y0142705D01*
X0127615Y0142456D01*
X0127519Y0141732D01*
X0127615Y0141009D01*
X0127894Y0140334D01*
X0128338Y0139755D01*
X0128917Y0139311D01*
X0129591Y0139032D01*
X0130315Y0138937D01*
X0131038Y0139032D01*
X0131713Y0139311D01*
X0132292Y0139755D01*
X0132736Y0140334D01*
X0133015Y0141009D01*
X0133110Y0141732D01*
X0133015Y0142456D01*
X0132912Y0142705D01*
Y0152861D01*
X0139731Y0159680D01*
X0139980Y0159784D01*
X0140559Y0160228D01*
X0140574Y0160247D01*
X0140592Y0160264D01*
X0140595Y0160266D01*
X0142359Y0160382D01*
X0153149D01*
X0153150Y0160382D01*
X0153847Y0160521D01*
X0154438Y0160916D01*
X0157251Y0163729D01*
X0162601D01*
X0163087Y0163404D01*
X0163976Y0163227D01*
X0164866Y0163404D01*
X0165620Y0163908D01*
X0166124Y0164662D01*
X0166301Y0165551D01*
X0166124Y0166441D01*
X0165620Y0167195D01*
X0164866Y0167699D01*
X0163976Y0167875D01*
X0163087Y0167699D01*
X0162612Y0167381D01*
X0162509Y0167374D01*
X0156496D01*
X0156496Y0167374D01*
X0155799Y0167235D01*
X0155207Y0166840D01*
X0155207Y0166840D01*
X0152395Y0164027D01*
X0150787D01*
X0150580Y0164527D01*
X0158922Y0172869D01*
X0159274Y0173395D01*
X0159397Y0174016D01*
Y0181752D01*
X0159401Y0181779D01*
X0159407Y0181813D01*
X0159419Y0181821D01*
X0159923Y0182575D01*
X0160100Y0183465D01*
X0159923Y0184354D01*
X0159449Y0185063D01*
Y0187652D01*
X0181077D01*
X0190670Y0178058D01*
X0190670Y0178058D01*
X0191164Y0177728D01*
X0191746Y0177612D01*
X0202913D01*
X0209502Y0171023D01*
Y0125984D01*
X0209618Y0125402D01*
X0209948Y0124908D01*
X0217428Y0117428D01*
X0217428Y0117428D01*
X0217922Y0117098D01*
X0218504Y0116983D01*
X0218504Y0116983D01*
X0233998D01*
X0234026Y0116978D01*
X0234059Y0116969D01*
X0234085Y0116960D01*
X0234108Y0116951D01*
X0234127Y0116940D01*
X0234133Y0116936D01*
X0234183Y0116860D01*
X0234937Y0116357D01*
X0235827Y0116180D01*
X0236716Y0116357D01*
X0237470Y0116860D01*
X0237974Y0117614D01*
X0238151Y0118504D01*
X0237974Y0119393D01*
X0237470Y0120147D01*
X0236716Y0120651D01*
X0235827Y0120828D01*
X0234937Y0120651D01*
X0234183Y0120147D01*
X0234133Y0120072D01*
X0234127Y0120068D01*
X0234108Y0120057D01*
X0234085Y0120048D01*
X0234059Y0120038D01*
X0234026Y0120030D01*
X0233998Y0120025D01*
X0219134D01*
X0212545Y0126614D01*
Y0171653D01*
X0212429Y0172236D01*
X0212099Y0172729D01*
X0204619Y0180210D01*
X0204125Y0180539D01*
X0203543Y0180655D01*
X0192376D01*
X0183124Y0189908D01*
X0183331Y0190408D01*
X0197598D01*
X0201962Y0186044D01*
X0201978Y0186021D01*
X0201995Y0185992D01*
X0202008Y0185967D01*
X0202017Y0185944D01*
X0202023Y0185923D01*
X0202024Y0185916D01*
X0202007Y0185827D01*
X0202183Y0184937D01*
X0202687Y0184183D01*
X0203441Y0183679D01*
X0204331Y0183503D01*
X0205220Y0183679D01*
X0205974Y0184183D01*
X0206478Y0184937D01*
X0206655Y0185827D01*
X0206478Y0186716D01*
X0205974Y0187470D01*
X0205220Y0187974D01*
X0204331Y0188151D01*
X0204241Y0188133D01*
X0204235Y0188135D01*
X0204214Y0188141D01*
X0204191Y0188150D01*
X0204166Y0188162D01*
X0204136Y0188179D01*
X0204114Y0188195D01*
X0199744Y0192565D01*
X0199951Y0193065D01*
X0240216D01*
X0249206Y0184075D01*
X0249222Y0184053D01*
X0249240Y0184023D01*
X0249252Y0183998D01*
X0249261Y0183976D01*
X0249267Y0183954D01*
X0249268Y0183948D01*
X0249251Y0183858D01*
X0249428Y0182969D01*
X0249931Y0182215D01*
X0250685Y0181711D01*
X0251575Y0181534D01*
X0252464Y0181711D01*
X0253218Y0182215D01*
X0253722Y0182969D01*
X0253899Y0183858D01*
X0253722Y0184748D01*
X0253218Y0185502D01*
X0252464Y0186005D01*
X0251575Y0186182D01*
X0251486Y0186165D01*
X0251479Y0186166D01*
X0251458Y0186172D01*
X0251435Y0186181D01*
X0251410Y0186194D01*
X0251380Y0186211D01*
X0251358Y0186227D01*
X0241968Y0195616D01*
X0241993Y0195808D01*
X0242143Y0196116D01*
X0247795D01*
X0257080Y0186831D01*
X0257096Y0186808D01*
X0257114Y0186779D01*
X0257126Y0186754D01*
X0257135Y0186732D01*
X0257141Y0186710D01*
X0257142Y0186703D01*
X0257125Y0186614D01*
X0257301Y0185725D01*
X0257805Y0184971D01*
X0258559Y0184467D01*
X0259449Y0184290D01*
X0260338Y0184467D01*
X0261092Y0184971D01*
X0261365Y0185378D01*
X0261864Y0185226D01*
Y0177697D01*
X0256555Y0172388D01*
X0237214D01*
X0237063Y0172888D01*
X0237470Y0173160D01*
X0237974Y0173914D01*
X0238151Y0174803D01*
X0237974Y0175693D01*
X0237470Y0176447D01*
X0237459Y0176454D01*
X0237455Y0176475D01*
X0237449Y0176537D01*
Y0182933D01*
X0237452Y0182960D01*
X0237459Y0182994D01*
X0237470Y0183002D01*
X0237974Y0183756D01*
X0238151Y0184646D01*
X0237974Y0185535D01*
X0237470Y0186289D01*
X0236716Y0186793D01*
X0235827Y0186970D01*
X0234937Y0186793D01*
X0234183Y0186289D01*
X0233680Y0185535D01*
X0233503Y0184646D01*
X0233680Y0183756D01*
X0234183Y0183002D01*
X0234195Y0182994D01*
X0234199Y0182974D01*
X0234205Y0182912D01*
Y0176516D01*
X0234202Y0176489D01*
X0234195Y0176454D01*
X0234183Y0176447D01*
X0233680Y0175693D01*
X0233503Y0174803D01*
X0233680Y0173914D01*
X0234183Y0173160D01*
X0234937Y0172656D01*
X0235075Y0172628D01*
X0235181Y0172098D01*
X0234948Y0171942D01*
X0234948Y0171942D01*
X0224908Y0161902D01*
X0224579Y0161409D01*
X0224463Y0160827D01*
Y0129387D01*
X0224458Y0129360D01*
X0224450Y0129327D01*
X0224441Y0129300D01*
X0224431Y0129278D01*
X0224420Y0129259D01*
X0224416Y0129253D01*
X0224341Y0129202D01*
X0223837Y0128448D01*
X0223660Y0127559D01*
X0223837Y0126670D01*
X0224341Y0125916D01*
X0225095Y0125412D01*
X0225984Y0125235D01*
X0226874Y0125412D01*
X0227628Y0125916D01*
X0228132Y0126670D01*
X0228308Y0127559D01*
X0228132Y0128448D01*
X0227628Y0129202D01*
X0227552Y0129253D01*
X0227548Y0129259D01*
X0227538Y0129278D01*
X0227528Y0129300D01*
X0227519Y0129327D01*
X0227510Y0129360D01*
X0227506Y0129387D01*
Y0160197D01*
X0236654Y0169345D01*
X0257185D01*
X0257767Y0169461D01*
X0258261Y0169790D01*
X0264462Y0175991D01*
X0264462Y0175991D01*
X0264791Y0176485D01*
X0264907Y0177067D01*
X0264907Y0177067D01*
Y0188878D01*
X0264791Y0189460D01*
X0264462Y0189954D01*
X0264462Y0189954D01*
X0253757Y0200658D01*
X0253964Y0201158D01*
X0307457D01*
Y0101204D01*
D02*
G37*
G36*
X0226480Y0129382D02*
X0226493Y0129262D01*
X0226513Y0129146D01*
X0226541Y0129035D01*
X0226577Y0128929D01*
X0226622Y0128828D01*
X0226674Y0128732D01*
X0226735Y0128641D01*
X0226803Y0128554D01*
X0226880Y0128473D01*
X0225089D01*
X0225165Y0128554D01*
X0225234Y0128641D01*
X0225294Y0128732D01*
X0225347Y0128828D01*
X0225391Y0128929D01*
X0225428Y0129035D01*
X0225456Y0129146D01*
X0225476Y0129262D01*
X0225488Y0129382D01*
X0225492Y0129508D01*
X0226476D01*
X0226480Y0129382D01*
D02*
G37*
G36*
X0110818Y0120219D02*
X0110725Y0120122D01*
X0110570Y0119932D01*
X0110507Y0119839D01*
X0110453Y0119746D01*
X0110410Y0119656D01*
X0110376Y0119566D01*
X0110353Y0119477D01*
X0110339Y0119390D01*
X0110335Y0119304D01*
X0109068Y0120571D01*
X0109154Y0120575D01*
X0109241Y0120589D01*
X0109330Y0120613D01*
X0109419Y0120646D01*
X0109510Y0120690D01*
X0109602Y0120743D01*
X0109696Y0120806D01*
X0109790Y0120879D01*
X0109886Y0120962D01*
X0109983Y0121054D01*
X0110818Y0120219D01*
D02*
G37*
G36*
X0234913Y0117608D02*
X0234831Y0117685D01*
X0234745Y0117754D01*
X0234654Y0117814D01*
X0234558Y0117867D01*
X0234456Y0117911D01*
X0234350Y0117947D01*
X0234240Y0117975D01*
X0234124Y0117996D01*
X0234003Y0118008D01*
X0233878Y0118012D01*
Y0118996D01*
X0234003Y0119000D01*
X0234124Y0119012D01*
X0234240Y0119032D01*
X0234350Y0119061D01*
X0234456Y0119097D01*
X0234558Y0119141D01*
X0234654Y0119194D01*
X0234745Y0119254D01*
X0234831Y0119323D01*
X0234913Y0119400D01*
Y0117608D01*
D02*
G37*
G36*
X0135121Y0200658D02*
X0130322Y0195859D01*
X0129992Y0195366D01*
X0129876Y0194783D01*
Y0187261D01*
X0129871Y0187234D01*
X0129863Y0187201D01*
X0129854Y0187174D01*
X0129844Y0187152D01*
X0129834Y0187133D01*
X0129830Y0187127D01*
X0129754Y0187076D01*
X0129250Y0186322D01*
X0129074Y0185433D01*
X0129250Y0184544D01*
X0129754Y0183790D01*
X0130508Y0183286D01*
X0131398Y0183109D01*
X0132287Y0183286D01*
X0133041Y0183790D01*
X0133545Y0184544D01*
X0133722Y0185433D01*
X0139045D01*
X0139601Y0184877D01*
X0140127Y0184525D01*
X0140748Y0184402D01*
X0146671D01*
X0148674Y0182399D01*
Y0173071D01*
X0148670Y0173044D01*
X0148663Y0173009D01*
X0148652Y0173002D01*
X0148148Y0172248D01*
X0147971Y0171358D01*
X0147974Y0171345D01*
X0147962Y0171327D01*
X0147922Y0171279D01*
X0145686Y0169043D01*
X0141581D01*
X0141194Y0169543D01*
X0141301Y0170079D01*
X0141124Y0170968D01*
X0140620Y0171722D01*
X0139866Y0172226D01*
X0138976Y0172403D01*
X0138087Y0172226D01*
X0137333Y0171722D01*
X0137325Y0171711D01*
X0137305Y0171707D01*
X0137242Y0171701D01*
X0133071D01*
X0132450Y0171577D01*
X0131924Y0171226D01*
X0123386Y0162687D01*
X0123279Y0162689D01*
X0123092Y0162740D01*
X0122863Y0162871D01*
X0122770Y0163335D01*
X0122732Y0163428D01*
X0122712Y0163526D01*
X0122657Y0163610D01*
X0122618Y0163702D01*
X0122618Y0163702D01*
X0122314Y0164158D01*
X0122243Y0164229D01*
X0122187Y0164313D01*
X0122103Y0164369D01*
X0122032Y0164440D01*
X0121576Y0164744D01*
X0121484Y0164783D01*
X0121400Y0164838D01*
X0121302Y0164858D01*
X0121209Y0164896D01*
X0120671Y0165003D01*
X0120571D01*
X0120472Y0165023D01*
X0120374Y0165003D01*
X0120273D01*
X0119736Y0164896D01*
X0119643Y0164858D01*
X0119545Y0164838D01*
X0119461Y0164783D01*
X0119368Y0164744D01*
X0119368Y0164744D01*
X0118912Y0164440D01*
X0118842Y0164369D01*
X0118758Y0164313D01*
X0118702Y0164229D01*
X0118631Y0164158D01*
X0118327Y0163702D01*
X0118288Y0163610D01*
X0118233Y0163526D01*
X0118213Y0163428D01*
X0118174Y0163335D01*
X0118068Y0162797D01*
Y0162697D01*
X0118048Y0162598D01*
X0118068Y0162500D01*
Y0162399D01*
X0118174Y0161862D01*
X0118051Y0161573D01*
X0117959Y0161461D01*
X0117835Y0161366D01*
X0115256D01*
X0114635Y0161242D01*
X0114109Y0160891D01*
X0109877Y0156658D01*
X0109525Y0156132D01*
X0109402Y0155512D01*
Y0126656D01*
X0102397Y0119651D01*
X0102045Y0119124D01*
X0101922Y0118504D01*
Y0109250D01*
X0101709Y0109035D01*
X0101704Y0109032D01*
X0101204Y0109294D01*
Y0201158D01*
X0134914D01*
X0135121Y0200658D01*
D02*
G37*
G36*
X0163063Y0164655D02*
X0163035Y0164676D01*
X0162994Y0164694D01*
X0162940Y0164711D01*
X0162874Y0164725D01*
X0162794Y0164737D01*
X0162595Y0164754D01*
X0162345Y0164763D01*
X0162200Y0164764D01*
Y0166339D01*
X0162345Y0166340D01*
X0162874Y0166378D01*
X0162940Y0166392D01*
X0162994Y0166408D01*
X0163035Y0166426D01*
X0163063Y0166447D01*
Y0164655D01*
D02*
G37*
G36*
X0139942Y0163359D02*
X0140045Y0163282D01*
X0140159Y0163214D01*
X0140282Y0163155D01*
X0140407Y0163109D01*
X0141077Y0163044D01*
X0142509Y0162995D01*
X0143096Y0162992D01*
Y0161417D01*
X0142509Y0161414D01*
X0140323Y0161269D01*
X0140282Y0161254D01*
X0140159Y0161196D01*
X0140045Y0161127D01*
X0139942Y0161051D01*
X0139848Y0160965D01*
Y0161175D01*
X0139788Y0161153D01*
X0139696Y0161091D01*
Y0163319D01*
X0139788Y0163257D01*
X0139848Y0163234D01*
Y0163445D01*
X0139942Y0163359D01*
D02*
G37*
G36*
X0142228Y0192986D02*
X0142240Y0192876D01*
X0142262Y0192769D01*
X0142293Y0192664D01*
X0142333Y0192561D01*
X0142382Y0192460D01*
X0142441Y0192362D01*
X0142508Y0192266D01*
X0142585Y0192172D01*
X0142671Y0192080D01*
X0141975Y0191384D01*
X0141883Y0191470D01*
X0141789Y0191547D01*
X0141693Y0191614D01*
X0141595Y0191673D01*
X0141495Y0191722D01*
X0141392Y0191762D01*
X0141287Y0191793D01*
X0141179Y0191815D01*
X0141070Y0191827D01*
X0140958Y0191831D01*
X0142224Y0193097D01*
X0142228Y0192986D01*
D02*
G37*
G36*
X0258510Y0188254D02*
X0258604Y0188178D01*
X0258700Y0188110D01*
X0258799Y0188052D01*
X0258899Y0188002D01*
X0259002Y0187962D01*
X0259107Y0187931D01*
X0259214Y0187910D01*
X0259324Y0187897D01*
X0259436Y0187894D01*
X0258169Y0186627D01*
X0258166Y0186739D01*
X0258153Y0186848D01*
X0258132Y0186956D01*
X0258101Y0187061D01*
X0258061Y0187164D01*
X0258011Y0187264D01*
X0257953Y0187363D01*
X0257885Y0187459D01*
X0257809Y0187553D01*
X0257723Y0187644D01*
X0258419Y0188340D01*
X0258510Y0188254D01*
D02*
G37*
G36*
X0139866Y0188090D02*
X0139880Y0188003D01*
X0139904Y0187914D01*
X0139937Y0187825D01*
X0139981Y0187734D01*
X0140034Y0187642D01*
X0140097Y0187548D01*
X0140170Y0187454D01*
X0140253Y0187358D01*
X0140346Y0187261D01*
X0139511Y0186426D01*
X0139414Y0186519D01*
X0139223Y0186674D01*
X0139130Y0186738D01*
X0139038Y0186791D01*
X0138947Y0186834D01*
X0138857Y0186868D01*
X0138769Y0186891D01*
X0138681Y0186905D01*
X0138595Y0186909D01*
X0139862Y0188176D01*
X0139866Y0188090D01*
D02*
G37*
G36*
X0137750Y0195518D02*
X0137664Y0195427D01*
X0137587Y0195333D01*
X0137520Y0195237D01*
X0137461Y0195138D01*
X0137412Y0195038D01*
X0137372Y0194935D01*
X0137341Y0194830D01*
X0137319Y0194722D01*
X0137306Y0194613D01*
X0137303Y0194501D01*
X0136036Y0195768D01*
X0136148Y0195771D01*
X0136258Y0195784D01*
X0136365Y0195806D01*
X0136470Y0195836D01*
X0136573Y0195877D01*
X0136674Y0195926D01*
X0136772Y0195984D01*
X0136868Y0196052D01*
X0136962Y0196128D01*
X0137054Y0196214D01*
X0137750Y0195518D01*
D02*
G37*
G36*
X0156507Y0195406D02*
X0156594Y0195337D01*
X0156685Y0195276D01*
X0156781Y0195224D01*
X0156882Y0195180D01*
X0156988Y0195143D01*
X0157099Y0195115D01*
X0157215Y0195095D01*
X0157335Y0195083D01*
X0157461Y0195079D01*
Y0194095D01*
X0157335Y0194090D01*
X0157215Y0194078D01*
X0157099Y0194058D01*
X0156988Y0194030D01*
X0156882Y0193994D01*
X0156781Y0193949D01*
X0156685Y0193897D01*
X0156594Y0193836D01*
X0156507Y0193768D01*
X0156426Y0193691D01*
Y0195482D01*
X0156507Y0195406D01*
D02*
G37*
G36*
X0147543Y0194560D02*
X0147555Y0194451D01*
X0147577Y0194343D01*
X0147608Y0194238D01*
X0147648Y0194135D01*
X0147697Y0194035D01*
X0147756Y0193937D01*
X0147823Y0193840D01*
X0147900Y0193747D01*
X0147986Y0193655D01*
X0147290Y0192959D01*
X0147198Y0193045D01*
X0147105Y0193122D01*
X0147008Y0193189D01*
X0146910Y0193247D01*
X0146809Y0193297D01*
X0146707Y0193337D01*
X0146601Y0193368D01*
X0146494Y0193389D01*
X0146385Y0193402D01*
X0146273Y0193406D01*
X0147539Y0194672D01*
X0147543Y0194560D01*
D02*
G37*
G36*
X0131894Y0187256D02*
X0131906Y0187136D01*
X0131926Y0187020D01*
X0131954Y0186909D01*
X0131991Y0186803D01*
X0132035Y0186702D01*
X0132088Y0186606D01*
X0132148Y0186515D01*
X0132217Y0186428D01*
X0132293Y0186347D01*
X0130502D01*
X0130579Y0186428D01*
X0130647Y0186515D01*
X0130708Y0186606D01*
X0130760Y0186702D01*
X0130805Y0186803D01*
X0130841Y0186909D01*
X0130869Y0187020D01*
X0130889Y0187136D01*
X0130902Y0187256D01*
X0130905Y0187382D01*
X0131890D01*
X0131894Y0187256D01*
D02*
G37*
G36*
X0112011Y0104918D02*
X0112035Y0104674D01*
X0112057Y0104563D01*
X0112084Y0104460D01*
X0112118Y0104365D01*
X0112157Y0104278D01*
X0112203Y0104199D01*
X0112255Y0104127D01*
X0112313Y0104063D01*
X0110522D01*
X0110580Y0104127D01*
X0110632Y0104199D01*
X0110677Y0104278D01*
X0110717Y0104365D01*
X0110750Y0104460D01*
X0110778Y0104563D01*
X0110799Y0104674D01*
X0110815Y0104792D01*
X0110824Y0104918D01*
X0110827Y0105052D01*
X0112008D01*
X0112011Y0104918D01*
D02*
G37*
G36*
X0158613Y0182487D02*
X0158561Y0182415D01*
X0158516Y0182336D01*
X0158476Y0182249D01*
X0158442Y0182154D01*
X0158415Y0182051D01*
X0158394Y0181941D01*
X0158378Y0181822D01*
X0158369Y0181696D01*
X0158366Y0181562D01*
X0157185D01*
X0157182Y0181696D01*
X0157158Y0181941D01*
X0157136Y0182051D01*
X0157109Y0182154D01*
X0157075Y0182249D01*
X0157036Y0182336D01*
X0156990Y0182415D01*
X0156938Y0182487D01*
X0156880Y0182551D01*
X0158671D01*
X0158613Y0182487D01*
D02*
G37*
G36*
X0236665Y0183668D02*
X0236613Y0183597D01*
X0236567Y0183517D01*
X0236527Y0183430D01*
X0236494Y0183335D01*
X0236466Y0183232D01*
X0236445Y0183122D01*
X0236430Y0183003D01*
X0236420Y0182877D01*
X0236417Y0182743D01*
X0235236D01*
X0235233Y0182877D01*
X0235209Y0183122D01*
X0235187Y0183232D01*
X0235160Y0183335D01*
X0235126Y0183430D01*
X0235087Y0183517D01*
X0235041Y0183597D01*
X0234989Y0183668D01*
X0234931Y0183732D01*
X0236722D01*
X0236665Y0183668D01*
D02*
G37*
G36*
X0203392Y0187467D02*
X0203486Y0187390D01*
X0203582Y0187323D01*
X0203680Y0187264D01*
X0203781Y0187215D01*
X0203884Y0187175D01*
X0203989Y0187144D01*
X0204096Y0187122D01*
X0204206Y0187110D01*
X0204318Y0187106D01*
X0203051Y0185840D01*
X0203048Y0185951D01*
X0203035Y0186061D01*
X0203013Y0186168D01*
X0202982Y0186274D01*
X0202942Y0186376D01*
X0202893Y0186477D01*
X0202835Y0186575D01*
X0202767Y0186671D01*
X0202691Y0186765D01*
X0202605Y0186857D01*
X0203301Y0187553D01*
X0203392Y0187467D01*
D02*
G37*
G36*
X0250636Y0185498D02*
X0250730Y0185422D01*
X0250826Y0185354D01*
X0250925Y0185296D01*
X0251025Y0185247D01*
X0251128Y0185206D01*
X0251233Y0185176D01*
X0251341Y0185154D01*
X0251450Y0185141D01*
X0251562Y0185138D01*
X0250295Y0183871D01*
X0250292Y0183983D01*
X0250279Y0184093D01*
X0250257Y0184200D01*
X0250227Y0184305D01*
X0250186Y0184408D01*
X0250137Y0184509D01*
X0250079Y0184607D01*
X0250011Y0184703D01*
X0249935Y0184797D01*
X0249849Y0184888D01*
X0250545Y0185584D01*
X0250636Y0185498D01*
D02*
G37*
%LPC*%
G36*
X0227953Y0186970D02*
X0227063Y0186793D01*
X0226309Y0186289D01*
X0225805Y0185535D01*
X0225629Y0184646D01*
X0225805Y0183756D01*
X0226309Y0183002D01*
X0226321Y0182994D01*
X0226325Y0182974D01*
X0226331Y0182912D01*
Y0176516D01*
X0226328Y0176489D01*
X0226321Y0176454D01*
X0226309Y0176447D01*
X0225805Y0175693D01*
X0225629Y0174803D01*
X0225805Y0173914D01*
X0226309Y0173160D01*
X0227063Y0172656D01*
X0227953Y0172479D01*
X0228842Y0172656D01*
X0229596Y0173160D01*
X0230100Y0173914D01*
X0230277Y0174803D01*
X0230100Y0175693D01*
X0229596Y0176447D01*
X0229585Y0176454D01*
X0229581Y0176475D01*
X0229574Y0176537D01*
Y0182933D01*
X0229578Y0182960D01*
X0229585Y0182994D01*
X0229596Y0183002D01*
X0230100Y0183756D01*
X0230277Y0184646D01*
X0230100Y0185535D01*
X0229596Y0186289D01*
X0228842Y0186793D01*
X0227953Y0186970D01*
D02*
G37*
%LPD*%
G36*
X0228790Y0183668D02*
X0228739Y0183597D01*
X0228693Y0183517D01*
X0228653Y0183430D01*
X0228620Y0183335D01*
X0228592Y0183232D01*
X0228571Y0183122D01*
X0228555Y0183003D01*
X0228546Y0182877D01*
X0228543Y0182743D01*
X0227362D01*
X0227359Y0182877D01*
X0227335Y0183122D01*
X0227313Y0183232D01*
X0227286Y0183335D01*
X0227252Y0183430D01*
X0227213Y0183517D01*
X0227167Y0183597D01*
X0227115Y0183668D01*
X0227057Y0183732D01*
X0228848D01*
X0228790Y0183668D01*
D02*
G37*
G36*
X0228546Y0176572D02*
X0228571Y0176327D01*
X0228592Y0176216D01*
X0228620Y0176114D01*
X0228653Y0176019D01*
X0228693Y0175932D01*
X0228739Y0175852D01*
X0228790Y0175781D01*
X0228848Y0175717D01*
X0227057D01*
X0227115Y0175781D01*
X0227167Y0175852D01*
X0227213Y0175932D01*
X0227252Y0176019D01*
X0227286Y0176114D01*
X0227313Y0176216D01*
X0227335Y0176327D01*
X0227350Y0176446D01*
X0227359Y0176572D01*
X0227362Y0176706D01*
X0228543D01*
X0228546Y0176572D01*
D02*
G37*
D30*
X0211024Y0125984D02*
Y0171653D01*
X0203543Y0179134D02*
X0211024Y0171653D01*
X0191746Y0179134D02*
X0203543D01*
X0181707Y0189173D02*
X0191746Y0179134D01*
X0218504Y0118504D02*
X0235827D01*
X0211024Y0125984D02*
X0218504Y0118504D01*
X0144882Y0189173D02*
X0181707D01*
X0263386Y0177067D02*
Y0188878D01*
X0236024Y0170866D02*
X0257185D01*
X0225984Y0127559D02*
Y0160827D01*
X0257185Y0170866D02*
X0263386Y0177067D01*
X0225984Y0160827D02*
X0236024Y0170866D01*
X0140945Y0193110D02*
X0144882Y0189173D01*
X0149016Y0191929D02*
X0198228D01*
X0146260Y0194685D02*
X0149016Y0191929D01*
X0140945Y0193110D02*
X0141634D01*
X0136516Y0199902D02*
X0252362D01*
X0131398Y0194783D02*
X0136516Y0199902D01*
X0131398Y0185433D02*
Y0194783D01*
X0252362Y0199902D02*
X0263386Y0188878D01*
X0198228Y0191929D02*
X0204331Y0185827D01*
X0139173Y0197638D02*
X0248425D01*
X0136024Y0194488D02*
X0139173Y0197638D01*
X0248425D02*
X0259449Y0186614D01*
X0240846Y0194587D02*
X0251575Y0183858D01*
X0155512Y0194587D02*
X0240846D01*
D32*
X0150295Y0171358D02*
Y0183071D01*
X0147343Y0186024D02*
X0150295Y0183071D01*
X0140748Y0186024D02*
X0147343D01*
X0138583Y0188189D02*
X0140748Y0186024D01*
X0157776Y0174016D02*
Y0183465D01*
X0149114Y0165354D02*
X0157776Y0174016D01*
X0136024Y0165354D02*
X0149114D01*
X0146358Y0167421D02*
X0150295Y0171358D01*
X0134350Y0167421D02*
X0146358D01*
X0124213Y0157283D02*
X0134350Y0167421D01*
X0121161Y0150492D02*
X0136024Y0165354D01*
X0121161Y0145669D02*
Y0150492D01*
X0115945Y0140453D02*
X0121161Y0145669D01*
X0115945Y0121358D02*
Y0140453D01*
X0111417Y0116831D02*
X0115945Y0121358D01*
X0111417Y0103150D02*
Y0116831D01*
X0116339Y0157283D02*
X0124213D01*
X0113386Y0154331D02*
X0116339Y0157283D01*
X0113386Y0123622D02*
Y0154331D01*
X0109055Y0119291D02*
X0113386Y0123622D01*
X0115256Y0159744D02*
X0122736D01*
X0111024Y0155512D02*
X0115256Y0159744D01*
X0111024Y0125984D02*
Y0155512D01*
X0122736Y0159744D02*
X0133071Y0170079D01*
X0103543Y0118504D02*
X0111024Y0125984D01*
X0133071Y0170079D02*
X0138976D01*
X0103543Y0107480D02*
Y0118504D01*
X0235827Y0174803D02*
Y0184646D01*
X0227953Y0174803D02*
Y0184646D01*
D33*
X0138583Y0162205D02*
X0153150D01*
X0156496Y0165551D01*
X0163976D01*
D35*
X0117717Y0146850D02*
Y0153543D01*
D37*
X0120472Y0162598D02*
D03*
Y0139764D02*
D03*
D38*
X0106044Y0134153D02*
D03*
Y0168209D02*
D03*
D39*
X0122501Y0134153D02*
D03*
Y0168209D02*
D03*
D40*
X0219291Y0185039D02*
D03*
X0212992D02*
D03*
X0196063Y0184646D02*
D03*
X0190945D02*
D03*
X0118504Y0190551D02*
D03*
X0123228D02*
D03*
X0139370Y0157480D02*
D03*
X0303150Y0196851D02*
D03*
X0299213Y0188977D02*
D03*
X0303150Y0181103D02*
D03*
X0299213Y0173228D02*
D03*
X0303150Y0165354D02*
D03*
X0299213Y0157480D02*
D03*
X0303150Y0149606D02*
D03*
X0299213Y0141732D02*
D03*
X0303150Y0133858D02*
D03*
X0299213Y0125984D02*
D03*
X0303150Y0118110D02*
D03*
X0295276Y0196851D02*
D03*
X0291339Y0188977D02*
D03*
X0295276Y0181103D02*
D03*
X0291339Y0173228D02*
D03*
X0295276Y0165354D02*
D03*
X0291339Y0157480D02*
D03*
X0295276Y0149606D02*
D03*
X0291339Y0141732D02*
D03*
X0295276Y0133858D02*
D03*
X0291339Y0125984D02*
D03*
X0295276Y0118110D02*
D03*
X0287402Y0196851D02*
D03*
X0283465Y0188977D02*
D03*
X0287402Y0181103D02*
D03*
X0283465Y0173228D02*
D03*
X0287402Y0165354D02*
D03*
X0283465Y0157480D02*
D03*
X0287402Y0149606D02*
D03*
X0283465Y0141732D02*
D03*
X0287402Y0133858D02*
D03*
X0283465Y0125984D02*
D03*
X0287402Y0118110D02*
D03*
X0279528Y0181103D02*
D03*
X0275591Y0173228D02*
D03*
X0279528Y0165354D02*
D03*
X0275591Y0157480D02*
D03*
X0279528Y0149606D02*
D03*
X0275591Y0141732D02*
D03*
X0279528Y0133858D02*
D03*
X0275591Y0125984D02*
D03*
X0279528Y0118110D02*
D03*
X0271654Y0181103D02*
D03*
Y0165354D02*
D03*
X0267717Y0157480D02*
D03*
X0271654Y0149606D02*
D03*
X0267717Y0141732D02*
D03*
X0271654Y0133858D02*
D03*
X0267717Y0125984D02*
D03*
X0271654Y0118110D02*
D03*
X0259843Y0157480D02*
D03*
X0263780Y0149606D02*
D03*
X0259843Y0141732D02*
D03*
X0263780Y0133858D02*
D03*
X0259843Y0125984D02*
D03*
X0263780Y0118110D02*
D03*
X0251969Y0157480D02*
D03*
X0255906Y0149606D02*
D03*
X0251969Y0141732D02*
D03*
X0255906Y0133858D02*
D03*
X0251969Y0125984D02*
D03*
X0255906Y0118110D02*
D03*
X0248032Y0165354D02*
D03*
X0244095Y0157480D02*
D03*
X0248032Y0149606D02*
D03*
X0244095Y0141732D02*
D03*
X0248032Y0133858D02*
D03*
X0244095Y0125984D02*
D03*
X0248032Y0118110D02*
D03*
X0240158Y0165354D02*
D03*
Y0149606D02*
D03*
X0236221Y0141732D02*
D03*
X0240158Y0133858D02*
D03*
X0236221Y0125984D02*
D03*
X0240158Y0118110D02*
D03*
X0232284Y0149606D02*
D03*
Y0133858D02*
D03*
X0220473Y0173228D02*
D03*
X0224410Y0165354D02*
D03*
X0220473Y0157480D02*
D03*
Y0141732D02*
D03*
X0216536Y0165354D02*
D03*
Y0149606D02*
D03*
X0204725Y0173228D02*
D03*
Y0157480D02*
D03*
Y0141732D02*
D03*
Y0125984D02*
D03*
X0196851Y0173228D02*
D03*
X0200787Y0165354D02*
D03*
X0196851Y0157480D02*
D03*
X0200787Y0149606D02*
D03*
X0196851Y0141732D02*
D03*
X0200787Y0133858D02*
D03*
X0196851Y0125984D02*
D03*
X0188977Y0173228D02*
D03*
X0192913Y0165354D02*
D03*
X0188977Y0157480D02*
D03*
X0192913Y0149606D02*
D03*
X0188977Y0141732D02*
D03*
X0192913Y0133858D02*
D03*
X0188977Y0125984D02*
D03*
X0181103Y0173228D02*
D03*
X0185039Y0165354D02*
D03*
X0181103Y0157480D02*
D03*
X0185039Y0149606D02*
D03*
X0181103Y0141732D02*
D03*
X0185039Y0133858D02*
D03*
X0181103Y0125984D02*
D03*
X0173228Y0110236D02*
D03*
X0165354Y0173228D02*
D03*
Y0157480D02*
D03*
Y0141732D02*
D03*
Y0125984D02*
D03*
Y0110236D02*
D03*
X0161417Y0181103D02*
D03*
X0157480Y0157480D02*
D03*
X0161417Y0149606D02*
D03*
X0157480Y0141732D02*
D03*
X0161417Y0133858D02*
D03*
X0157480Y0125984D02*
D03*
Y0110236D02*
D03*
X0153543Y0149606D02*
D03*
X0149606Y0141732D02*
D03*
X0153543Y0133858D02*
D03*
X0149606Y0125984D02*
D03*
Y0110236D02*
D03*
X0145669Y0149606D02*
D03*
X0141732Y0141732D02*
D03*
X0145669Y0133858D02*
D03*
X0141732Y0125984D02*
D03*
Y0110236D02*
D03*
X0137795Y0133858D02*
D03*
X0133858Y0110236D02*
D03*
X0129921Y0133858D02*
D03*
X0125984Y0125984D02*
D03*
Y0110236D02*
D03*
X0110236Y0173228D02*
D03*
X0114173Y0165354D02*
D03*
X0235827Y0118504D02*
D03*
X0144685Y0181496D02*
D03*
X0140945Y0193110D02*
D03*
X0138583Y0188189D02*
D03*
X0146260Y0194685D02*
D03*
X0155512Y0194587D02*
D03*
X0157776Y0183465D02*
D03*
X0138976Y0170079D02*
D03*
X0103543Y0107480D02*
D03*
X0111417Y0103150D02*
D03*
X0136024Y0194488D02*
D03*
X0150295Y0171358D02*
D03*
X0131398Y0185433D02*
D03*
X0225984Y0127559D02*
D03*
X0204331Y0185827D02*
D03*
X0251575Y0183858D02*
D03*
X0259449Y0186614D02*
D03*
X0109055Y0119291D02*
D03*
X0163976Y0165551D02*
D03*
X0227953Y0174803D02*
D03*
X0235827D02*
D03*
Y0184646D02*
D03*
X0227953D02*
D03*
X0117717Y0146850D02*
D03*
Y0153543D02*
D03*
D41*
X0130315Y0141732D02*
D03*
X0138583Y0162205D02*
D03*
D42*
X0130315Y0153937D02*
X0138583Y0162205D01*
X0130315Y0141732D02*
Y0153937D01*
M02*
