M48
;Layer_Color=9474304
;FILE_FORMAT=2:5
INCH
;TYPE=PLATED
T1F00S00C0.01181
T2F00S00C0.01968
;TYPE=NON_PLATED
T4F00S00C0.02756
%
T01
X0106299Y0106299
Y0129921
X0129921
X0117717Y0146850
Y0153543
X0106299Y0153543
X0147638Y0141732
X0159449
X0161811Y0151575
X0156693
X0174803Y0108268
Y0104331
X0218504Y0118110
X0230315
X0235827Y0118504
X0242126Y0118110
X0253937
X0265748
X0277559
X0289370
X0301181
X0295275Y0129921
X0283465
X0271654
X0259842
X0248031
X0236220
X0225984Y0127559
X0230315Y0141732
X0242126
X0253937
X0265748
X0277559
X0289370
X0301181
X0295275Y0153543
X0283465
X0271654
X0259842
X0248031
X0236220
X0242126Y0165354
X0253937
X0251575Y0183858
X0259449Y0186614
X0271654Y0177165
X0283465
X0295275
X0301181Y0188976
X0289370
Y0165354
X0301181
X0277559
X0235827Y0174803
X0227953
Y0184646
X0235827
X0219291Y0185039
X0212992
X0204331Y0185827
X0196063Y0184646
X0190945
X0164961Y0187795
X0160630
X0159055Y0182677
X0162205Y0178347
X0164567Y0167323
X0156102Y0162795
X0143701Y0166929
X0151969Y0177559
X0152953Y0185630
X0148425Y0188583
X0141732Y0183858
X0138976Y0181496
X0135827Y0188976
X0123228Y0190551
X0118504
X0112205Y0165354
X0133858Y0157087
T02
X0130315Y0141732
X0138583Y0162205
T04
X0120472Y0139764
Y0162598
M30
